M48
; DRILL file {KiCad 9.0.6} date 2025-11-23T20:44:01-0500
; FORMAT={-:-/ absolute / metric / decimal}
; #@! TF.CreationDate,2025-11-23T20:44:01-05:00
; #@! TF.GenerationSoftware,Kicad,Pcbnew,9.0.6
; #@! TF.FileFunction,Plated,1,2,PTH
FMAT,2
METRIC
; #@! TA.AperFunction,Plated,PTH,ViaDrill
T1C0.300
; #@! TA.AperFunction,Plated,PTH,ComponentDrill
T2C0.800
; #@! TA.AperFunction,Plated,PTH,ComponentDrill
T3C1.000
%
G90
G05
T1
X120.2Y-101.935
X120.811Y-115.487
X121.811Y-115.487
X122.811Y-115.487
X123.811Y-115.487
X124.011Y-93.287
X124.011Y-94.049
X124.011Y-94.811
X124.011Y-95.725
X124.011Y-96.487
X124.011Y-97.249
X124.811Y-115.487
X125.811Y-115.487
X126.211Y-77.688
X126.211Y-78.688
X126.211Y-79.688
X126.211Y-80.688
X126.211Y-81.688
X126.211Y-82.688
X126.211Y-83.688
X126.211Y-84.688
X126.211Y-85.688
X126.211Y-86.688
X126.211Y-87.688
X126.211Y-88.688
X126.211Y-89.688
X126.211Y-90.688
X126.811Y-115.487
X127.46Y-94.38
X127.46Y-95.05
X127.811Y-115.487
X128.811Y-115.487
X129.211Y-76.287
X129.211Y-95.198
X129.211Y-96.087
X129.211Y-96.849
X129.725Y-100.299
X129.811Y-115.487
X130.211Y-76.287
X130.811Y-115.487
X131.19Y-85.376
X131.19Y-86.176
X131.19Y-87.0
X131.19Y-89.3
X131.19Y-90.1
X131.19Y-90.87
X131.211Y-76.287
X131.376Y-84.043
X131.811Y-95.198
X131.811Y-96.087
X131.811Y-96.849
X131.811Y-115.487
X132.2Y-84.043
X132.211Y-76.287
X132.811Y-115.487
X132.9Y-94.838
X132.9Y-95.727
X132.9Y-96.617
X133.0Y-84.043
X133.211Y-76.287
X133.662Y-92.552
X133.662Y-93.569
X133.662Y-94.457
X133.662Y-95.346
X133.662Y-96.236
X133.662Y-97.124
X133.811Y-115.487
X134.05Y-80.906
X134.05Y-81.706
X134.05Y-82.53
X134.2Y-87.2
X134.2Y-87.835
X134.2Y-88.47
X134.2Y-89.105
X134.2Y-89.74
X134.2Y-90.375
X134.211Y-76.287
X134.6Y-86.203
X135.211Y-76.287
X135.469Y-90.405
X135.489Y-86.203
X136.358Y-90.405
X136.378Y-86.203
X137.247Y-90.405
X137.267Y-86.203
X137.411Y-115.487
X138.011Y-78.087
X138.136Y-90.405
X138.156Y-86.203
X138.411Y-115.487
X139.011Y-78.087
X139.025Y-90.405
X139.045Y-86.203
X139.411Y-115.487
X139.765Y-83.78
X139.914Y-90.405
X139.934Y-86.203
X140.011Y-78.087
X140.4Y-83.78
X140.411Y-115.487
X140.803Y-90.405
X140.823Y-86.203
X141.011Y-78.087
X141.035Y-83.78
X141.411Y-115.487
X141.712Y-86.203
X142.0Y-87.2
X142.0Y-87.835
X142.0Y-88.47
X142.0Y-89.105
X142.0Y-89.74
X142.0Y-90.375
X142.011Y-78.087
X142.411Y-115.487
X142.8Y-88.4
X143.011Y-78.087
X143.076Y-94.2
X143.1Y-95.0
X143.1Y-95.762
X143.1Y-96.524
X143.411Y-115.487
X143.435Y-88.4
X143.838Y-94.2
X144.011Y-78.087
X144.07Y-88.4
X144.6Y-94.2
X145.2Y-92.0
X145.2Y-92.762
X145.2Y-93.524
X147.811Y-99.487
X147.811Y-100.487
X147.811Y-101.487
X147.811Y-102.487
X147.811Y-103.487
X147.811Y-104.487
X147.811Y-105.487
X147.811Y-106.487
X147.811Y-107.487
X147.811Y-108.487
X147.811Y-109.487
X147.811Y-110.487
X147.811Y-111.487
X147.811Y-112.487
T2
X137.345Y-82.11
X137.345Y-84.11
X143.441Y-82.11
X143.441Y-84.11
T3
X122.867Y-109.444
X122.867Y-111.983
X129.212Y-81.757
X131.752Y-81.757
M30
