%TF.GenerationSoftware,KiCad,Pcbnew,9.0.6*%
%TF.CreationDate,2025-11-23T20:43:56-05:00*%
%TF.ProjectId,5013-5v,35303133-2d35-4762-9e6b-696361645f70,rev?*%
%TF.SameCoordinates,Original*%
%TF.FileFunction,Copper,L1,Top*%
%TF.FilePolarity,Positive*%
%FSLAX46Y46*%
G04 Gerber Fmt 4.6, Leading zero omitted, Abs format (unit mm)*
G04 Created by KiCad (PCBNEW 9.0.6) date 2025-11-23 20:43:56*
%MOMM*%
%LPD*%
G01*
G04 APERTURE LIST*
G04 Aperture macros list*
%AMRoundRect*
0 Rectangle with rounded corners*
0 $1 Rounding radius*
0 $2 $3 $4 $5 $6 $7 $8 $9 X,Y pos of 4 corners*
0 Add a 4 corners polygon primitive as box body*
4,1,4,$2,$3,$4,$5,$6,$7,$8,$9,$2,$3,0*
0 Add four circle primitives for the rounded corners*
1,1,$1+$1,$2,$3*
1,1,$1+$1,$4,$5*
1,1,$1+$1,$6,$7*
1,1,$1+$1,$8,$9*
0 Add four rect primitives between the rounded corners*
20,1,$1+$1,$2,$3,$4,$5,0*
20,1,$1+$1,$4,$5,$6,$7,0*
20,1,$1+$1,$6,$7,$8,$9,0*
20,1,$1+$1,$8,$9,$2,$3,0*%
G04 Aperture macros list end*
%TA.AperFunction,SMDPad,CuDef*%
%ADD10R,0.650000X1.525000*%
%TD*%
%TA.AperFunction,SMDPad,CuDef*%
%ADD11R,3.400000X2.710000*%
%TD*%
%TA.AperFunction,SMDPad,CuDef*%
%ADD12RoundRect,0.237500X-0.237500X0.250000X-0.237500X-0.250000X0.237500X-0.250000X0.237500X0.250000X0*%
%TD*%
%TA.AperFunction,SMDPad,CuDef*%
%ADD13RoundRect,0.250000X-1.100000X0.412500X-1.100000X-0.412500X1.100000X-0.412500X1.100000X0.412500X0*%
%TD*%
%TA.AperFunction,SMDPad,CuDef*%
%ADD14RoundRect,0.237500X0.237500X-0.287500X0.237500X0.287500X-0.237500X0.287500X-0.237500X-0.287500X0*%
%TD*%
%TA.AperFunction,ComponentPad*%
%ADD15RoundRect,0.250000X-0.550000X0.550000X-0.550000X-0.550000X0.550000X-0.550000X0.550000X0.550000X0*%
%TD*%
%TA.AperFunction,ComponentPad*%
%ADD16C,1.600000*%
%TD*%
%TA.AperFunction,ComponentPad*%
%ADD17R,1.700000X1.700000*%
%TD*%
%TA.AperFunction,ComponentPad*%
%ADD18C,1.700000*%
%TD*%
%TA.AperFunction,SMDPad,CuDef*%
%ADD19R,5.970000X6.100000*%
%TD*%
%TA.AperFunction,SMDPad,CuDef*%
%ADD20R,1.400000X1.900000*%
%TD*%
%TA.AperFunction,SMDPad,CuDef*%
%ADD21RoundRect,0.250000X-0.412500X-1.100000X0.412500X-1.100000X0.412500X1.100000X-0.412500X1.100000X0*%
%TD*%
%TA.AperFunction,SMDPad,CuDef*%
%ADD22RoundRect,0.250000X0.625000X-0.400000X0.625000X0.400000X-0.625000X0.400000X-0.625000X-0.400000X0*%
%TD*%
%TA.AperFunction,SMDPad,CuDef*%
%ADD23RoundRect,0.237500X0.237500X-0.250000X0.237500X0.250000X-0.237500X0.250000X-0.237500X-0.250000X0*%
%TD*%
%TA.AperFunction,SMDPad,CuDef*%
%ADD24RoundRect,0.250000X0.337500X0.475000X-0.337500X0.475000X-0.337500X-0.475000X0.337500X-0.475000X0*%
%TD*%
%TA.AperFunction,SMDPad,CuDef*%
%ADD25R,5.100000X3.650000*%
%TD*%
%TA.AperFunction,SMDPad,CuDef*%
%ADD26RoundRect,0.250000X0.475000X-0.337500X0.475000X0.337500X-0.475000X0.337500X-0.475000X-0.337500X0*%
%TD*%
%TA.AperFunction,ViaPad*%
%ADD27C,0.600000*%
%TD*%
%TA.AperFunction,Conductor*%
%ADD28C,0.750000*%
%TD*%
%TA.AperFunction,Conductor*%
%ADD29C,0.600000*%
%TD*%
%TA.AperFunction,Conductor*%
%ADD30C,1.500000*%
%TD*%
%TA.AperFunction,Conductor*%
%ADD31C,0.325000*%
%TD*%
G04 APERTURE END LIST*
D10*
%TO.P,IC1,1,GND*%
%TO.N,GND1*%
X132424000Y-93375500D03*
%TO.P,IC1,2,VIN*%
%TO.N,/Vin*%
X131154000Y-93375500D03*
%TO.P,IC1,3,EN/UVLO*%
X129884000Y-93375500D03*
%TO.P,IC1,4,RON*%
%TO.N,Net-(IC1-RON)*%
X128614000Y-93375500D03*
%TO.P,IC1,5,FB*%
%TO.N,/fb*%
X128614000Y-98799500D03*
%TO.P,IC1,6,PGOOD*%
%TO.N,Net-(IC1-PGOOD)*%
X129884000Y-98799500D03*
%TO.P,IC1,7,BST*%
%TO.N,Net-(IC1-BST)*%
X131154000Y-98799500D03*
%TO.P,IC1,8,SW*%
%TO.N,/sw*%
X132424000Y-98799500D03*
D11*
%TO.P,IC1,9,EP*%
%TO.N,GND1*%
X130519000Y-96087500D03*
%TD*%
D12*
%TO.P,Ron,1*%
%TO.N,Net-(IC1-RON)*%
X126423000Y-93175000D03*
%TO.P,Ron,2*%
%TO.N,GND1*%
X126423000Y-95000000D03*
%TD*%
D13*
%TO.P,Cout,1*%
%TO.N,/Vout*%
X131065000Y-109405000D03*
%TO.P,Cout,2*%
%TO.N,GND*%
X131065000Y-112530000D03*
%TD*%
D12*
%TO.P,Rr,1*%
%TO.N,/sw*%
X132519000Y-103775000D03*
%TO.P,Rr,2*%
%TO.N,Net-(Cac1-Pad1)*%
X132519000Y-105600000D03*
%TD*%
D14*
%TO.P,pgood,1,K*%
%TO.N,GND*%
X121901800Y-100637500D03*
%TO.P,pgood,2,A*%
%TO.N,Net-(pgood1-A)*%
X121901800Y-98887500D03*
%TD*%
D15*
%TO.P,C9,1*%
%TO.N,/Vin*%
X143441000Y-82110388D03*
D16*
%TO.P,C9,2*%
%TO.N,GND1*%
X143441000Y-84110388D03*
%TD*%
D17*
%TO.P,Vin,1,Pin_1*%
%TO.N,/Vin*%
X129212000Y-81757500D03*
D18*
%TO.P,Vin,2,Pin_2*%
%TO.N,GND1*%
X131752000Y-81757500D03*
%TD*%
D17*
%TO.P,Vout,1,Pin_1*%
%TO.N,GND*%
X122867000Y-111983500D03*
D18*
%TO.P,Vout,2,Pin_2*%
%TO.N,/Vout*%
X122867000Y-109443500D03*
%TD*%
D19*
%TO.P,D1,1,K*%
%TO.N,/sw*%
X138119000Y-94495500D03*
D20*
%TO.P,D1,2,A*%
%TO.N,GND1*%
X140409000Y-88630500D03*
X135829000Y-88630500D03*
%TD*%
D21*
%TO.P,Cin,1*%
%TO.N,/Vin*%
X129432500Y-90139500D03*
%TO.P,Cin,2*%
%TO.N,GND1*%
X132557500Y-90139500D03*
%TD*%
D22*
%TO.P,R6,1*%
%TO.N,GND*%
X143600000Y-92800000D03*
%TO.P,R6,2*%
%TO.N,GND1*%
X143600000Y-89700000D03*
%TD*%
D13*
%TO.P,Cout,1*%
%TO.N,/Vout*%
X127439000Y-109405000D03*
%TO.P,Cout,2*%
%TO.N,GND*%
X127439000Y-112530000D03*
%TD*%
D23*
%TO.P,Rfbb,1*%
%TO.N,/fb*%
X126423000Y-98964000D03*
%TO.P,Rfbb,2*%
%TO.N,GND*%
X126423000Y-97139000D03*
%TD*%
D21*
%TO.P,Cin,1*%
%TO.N,/Vin*%
X129432500Y-86202500D03*
%TO.P,Cin,2*%
%TO.N,GND1*%
X132557500Y-86202500D03*
%TD*%
D24*
%TO.P,Cr,1*%
%TO.N,Net-(Cac1-Pad1)*%
X127947000Y-105671500D03*
%TO.P,Cr,2*%
%TO.N,/Vout*%
X125872000Y-105671500D03*
%TD*%
D23*
%TO.P,Rfbt,1*%
%TO.N,/Vout*%
X125661000Y-103178500D03*
%TO.P,Rfbt,2*%
%TO.N,/fb*%
X125661000Y-101353500D03*
%TD*%
D24*
%TO.P,cbst,1*%
%TO.N,/sw*%
X132946900Y-101467900D03*
%TO.P,cbst,2*%
%TO.N,Net-(IC1-BST)*%
X130871900Y-101467900D03*
%TD*%
D25*
%TO.P,L1,1,1*%
%TO.N,/sw*%
X140494600Y-101037500D03*
%TO.P,L1,2,2*%
%TO.N,/Vout*%
X140494600Y-110737500D03*
%TD*%
D12*
%TO.P,R5,1*%
%TO.N,Net-(pgood1-A)*%
X120200000Y-98887500D03*
%TO.P,R5,2*%
%TO.N,Net-(IC1-PGOOD)*%
X120200000Y-100712500D03*
%TD*%
D26*
%TO.P,cac,1*%
%TO.N,Net-(Cac1-Pad1)*%
X127947000Y-103280000D03*
%TO.P,cac,2*%
%TO.N,/fb*%
X127947000Y-101205000D03*
%TD*%
D15*
%TO.P,C8,1*%
%TO.N,/Vin*%
X137345000Y-82110387D03*
D16*
%TO.P,C8,2*%
%TO.N,GND1*%
X137345000Y-84110387D03*
%TD*%
D27*
%TO.N,GND*%
X126211000Y-85687500D03*
X126211000Y-89687500D03*
X124011000Y-94811500D03*
X133211000Y-76287500D03*
X124011000Y-93287500D03*
X144011000Y-78087500D03*
X126211000Y-79687500D03*
X126211000Y-80687500D03*
X143411000Y-115487500D03*
X126811000Y-115487500D03*
X143838000Y-94200000D03*
X143100000Y-95762000D03*
X139011000Y-78087500D03*
X126211000Y-78687500D03*
X147811000Y-112487500D03*
X124011000Y-95725500D03*
X133811000Y-115487500D03*
X130211000Y-76287500D03*
X140411000Y-115487500D03*
X123811000Y-115487500D03*
X132811000Y-115487500D03*
X147811000Y-107487500D03*
X126211000Y-84687500D03*
X147811000Y-105487500D03*
X132211000Y-76287500D03*
X126211000Y-90687500D03*
X126211000Y-82687500D03*
X131811000Y-115487500D03*
X147811000Y-111487500D03*
X124011000Y-94049500D03*
X126211000Y-77687500D03*
X147811000Y-108487500D03*
X145200000Y-92762000D03*
X128811000Y-115487500D03*
X124011000Y-96487500D03*
X126211000Y-88687500D03*
X142011000Y-78087500D03*
X147811000Y-100487500D03*
X143100000Y-95000000D03*
X141011000Y-78087500D03*
X131211000Y-76287500D03*
X125811000Y-115487500D03*
X129811000Y-115487500D03*
X134211000Y-76287500D03*
X147811000Y-109487500D03*
X147811000Y-102487500D03*
X138411000Y-115487500D03*
X143076000Y-94200000D03*
X147811000Y-110487500D03*
X145200000Y-92000000D03*
X135211000Y-76287500D03*
X129211000Y-76287500D03*
X127811000Y-115487500D03*
X144600000Y-94200000D03*
X121811000Y-115487500D03*
X142411000Y-115487500D03*
X124011000Y-97249500D03*
X122811000Y-115487500D03*
X126211000Y-86687500D03*
X143100000Y-96524000D03*
X137411000Y-115487500D03*
X126211000Y-87687500D03*
X141411000Y-115487500D03*
X139411000Y-115487500D03*
X126211000Y-81687500D03*
X143011000Y-78087500D03*
X147811000Y-106487500D03*
X147811000Y-104487500D03*
X147811000Y-103487500D03*
X147811000Y-101487500D03*
X140011000Y-78087500D03*
X124811000Y-115487500D03*
X130811000Y-115487500D03*
X147811000Y-99487500D03*
X120811000Y-115487500D03*
X138011000Y-78087500D03*
X145200000Y-93524000D03*
X126211000Y-83687500D03*
%TO.N,Net-(IC1-PGOOD)*%
X129725000Y-100299500D03*
X120200000Y-101935500D03*
%TO.N,GND1*%
X131190000Y-89300000D03*
X134050000Y-82530000D03*
X133662000Y-92552500D03*
X129211000Y-96849500D03*
X134200000Y-89740000D03*
X134200000Y-90375000D03*
X141712000Y-86202500D03*
X132200000Y-84043500D03*
X127460000Y-94380000D03*
X139765000Y-83780000D03*
X131190000Y-90100000D03*
X142000000Y-88470000D03*
X136378000Y-86202500D03*
X134200000Y-89105000D03*
X142000000Y-87835000D03*
X134050000Y-80906000D03*
X131190000Y-86176000D03*
X142000000Y-89105000D03*
X129211000Y-95198500D03*
X131376000Y-84043500D03*
X139025000Y-90405500D03*
X134600000Y-86202500D03*
X142000000Y-90375000D03*
X131190000Y-90870000D03*
X140400000Y-83780000D03*
X139934000Y-86202500D03*
X139045000Y-86202500D03*
X143435000Y-88400000D03*
X129211000Y-96087500D03*
X132900000Y-94838500D03*
X134200000Y-87200000D03*
X133662000Y-97124500D03*
X133662000Y-93568500D03*
X131190000Y-85376000D03*
X142000000Y-89740000D03*
X134050000Y-81706000D03*
X132900000Y-96616500D03*
X133662000Y-96235500D03*
X140823000Y-86202500D03*
X135489000Y-86202500D03*
X127460000Y-95050000D03*
X138156000Y-86202500D03*
X139914000Y-90405500D03*
X131811000Y-96849500D03*
X141035000Y-83780000D03*
X140803000Y-90405500D03*
X134200000Y-87835000D03*
X132900000Y-95727500D03*
X136358000Y-90405500D03*
X138136000Y-90405500D03*
X135469000Y-90405500D03*
X137267000Y-86202500D03*
X142800000Y-88400000D03*
X131190000Y-87000000D03*
X133662000Y-95346500D03*
X142000000Y-87200000D03*
X133000000Y-84043500D03*
X131811000Y-95198500D03*
X133662000Y-94457500D03*
X134200000Y-88470000D03*
X144070000Y-88400000D03*
X137247000Y-90405500D03*
X131811000Y-96087500D03*
%TD*%
D28*
%TO.N,Net-(Cac1-Pad1)*%
X132447500Y-105671500D02*
X132519000Y-105600000D01*
X127947000Y-103280000D02*
X127947000Y-105671500D01*
X127947000Y-105671500D02*
X132447500Y-105671500D01*
D29*
%TO.N,Net-(IC1-BST)*%
X131154000Y-98799500D02*
X131154000Y-101185800D01*
X131154000Y-101185800D02*
X130871900Y-101467900D01*
D30*
%TO.N,/Vin*%
X134805000Y-78709500D02*
X130233000Y-78709500D01*
X129212000Y-79730500D02*
X130233000Y-78709500D01*
X136710000Y-80614500D02*
X134805000Y-78709500D01*
X138107000Y-82011500D02*
X138107000Y-82110387D01*
X136710000Y-80614500D02*
X138107000Y-82011500D01*
X143441000Y-82110388D02*
X138107000Y-82110387D01*
X138107000Y-82110387D02*
X137345000Y-82110387D01*
X137345000Y-81249500D02*
X137345000Y-81348387D01*
X137345000Y-81249500D02*
X136710000Y-80614500D01*
X129212000Y-81757500D02*
X129212000Y-79730500D01*
X137345000Y-82110387D02*
X137345000Y-81249500D01*
X137345000Y-81348387D02*
X138107000Y-82110387D01*
D29*
%TO.N,Net-(IC1-RON)*%
X128413500Y-93175000D02*
X128614000Y-93375500D01*
X126423000Y-93175000D02*
X128413500Y-93175000D01*
D28*
%TO.N,GND*%
X126423000Y-97139000D02*
X124662500Y-97139000D01*
X124662500Y-97139000D02*
X124011000Y-96487500D01*
D31*
%TO.N,Net-(IC1-PGOOD)*%
X129884000Y-98799500D02*
X129884000Y-100140500D01*
X129884000Y-100140500D02*
X129725000Y-100299500D01*
X120200000Y-100712500D02*
X120200000Y-101935500D01*
%TO.N,Net-(pgood1-A)*%
X120200000Y-98887500D02*
X121901800Y-98887500D01*
%TD*%
%TA.AperFunction,Conductor*%
%TO.N,/fb*%
G36*
X128623459Y-98014561D02*
G01*
X128728623Y-98028406D01*
X128759891Y-98036784D01*
X128850318Y-98074240D01*
X128878352Y-98090425D01*
X128956002Y-98150009D01*
X128978886Y-98172892D01*
X129032876Y-98243252D01*
X129058070Y-98308418D01*
X129058500Y-98318737D01*
X129058500Y-99609870D01*
X129058501Y-99609876D01*
X129064909Y-99669484D01*
X129085111Y-99723650D01*
X129090095Y-99793341D01*
X129072032Y-99835872D01*
X129015608Y-99920316D01*
X129015602Y-99920327D01*
X128955264Y-100065998D01*
X128955261Y-100066010D01*
X128924500Y-100220653D01*
X128924500Y-100378346D01*
X128955261Y-100532989D01*
X128955264Y-100533001D01*
X129015602Y-100678672D01*
X129015609Y-100678685D01*
X129094502Y-100796755D01*
X129115380Y-100863432D01*
X129115400Y-100865646D01*
X129115400Y-101523041D01*
X129114351Y-101539136D01*
X129100660Y-101643722D01*
X129092376Y-101674824D01*
X129055330Y-101764828D01*
X129039317Y-101792753D01*
X128980353Y-101870187D01*
X128957694Y-101893048D01*
X128880784Y-101952699D01*
X128853007Y-101968956D01*
X128819979Y-101982896D01*
X128763334Y-102006802D01*
X128732305Y-102015362D01*
X128627846Y-102029980D01*
X128611763Y-102031172D01*
X128335234Y-102033629D01*
X128331992Y-102033658D01*
X125564015Y-102058246D01*
X125547730Y-102057318D01*
X125441865Y-102044256D01*
X125410360Y-102036064D01*
X125319176Y-101999004D01*
X125290891Y-101982896D01*
X125251110Y-101952698D01*
X125212496Y-101923385D01*
X125189377Y-101900471D01*
X125129170Y-101822606D01*
X125112814Y-101794469D01*
X125074942Y-101703611D01*
X125066473Y-101672183D01*
X125052473Y-101566441D01*
X125051400Y-101550166D01*
X125051400Y-100697999D01*
X125052747Y-100679775D01*
X125053776Y-100672844D01*
X125070294Y-100561681D01*
X125080888Y-100526815D01*
X125128056Y-100427281D01*
X125148326Y-100397011D01*
X125228629Y-100308630D01*
X125241863Y-100296066D01*
X125426819Y-100144739D01*
X125610200Y-99994700D01*
X125610200Y-98521625D01*
X125611261Y-98505440D01*
X125625106Y-98400276D01*
X125633484Y-98369008D01*
X125670940Y-98278581D01*
X125687123Y-98250550D01*
X125746713Y-98172892D01*
X125769588Y-98150016D01*
X125827937Y-98105243D01*
X125893102Y-98080051D01*
X125942422Y-98085914D01*
X126035247Y-98116674D01*
X126136323Y-98127000D01*
X126709676Y-98126999D01*
X126709684Y-98126998D01*
X126709687Y-98126998D01*
X126765030Y-98121344D01*
X126810753Y-98116674D01*
X126974516Y-98062408D01*
X127023877Y-98031962D01*
X127088974Y-98013500D01*
X128607274Y-98013500D01*
X128623459Y-98014561D01*
G37*
%TD.AperFunction*%
%TD*%
%TA.AperFunction,Conductor*%
%TO.N,/sw*%
G36*
X135210636Y-91164937D02*
G01*
X135235503Y-91175237D01*
X135235510Y-91175238D01*
X135235511Y-91175239D01*
X135390153Y-91205999D01*
X135390156Y-91206000D01*
X135390158Y-91206000D01*
X135547844Y-91206000D01*
X135547845Y-91205999D01*
X135624152Y-91190820D01*
X135702488Y-91175239D01*
X135702488Y-91175238D01*
X135702497Y-91175237D01*
X135727363Y-91164937D01*
X135774811Y-91155500D01*
X136052189Y-91155500D01*
X136099636Y-91164937D01*
X136124503Y-91175237D01*
X136124510Y-91175238D01*
X136124511Y-91175239D01*
X136279153Y-91205999D01*
X136279156Y-91206000D01*
X136279158Y-91206000D01*
X136436844Y-91206000D01*
X136436845Y-91205999D01*
X136513152Y-91190820D01*
X136591488Y-91175239D01*
X136591488Y-91175238D01*
X136591497Y-91175237D01*
X136616363Y-91164937D01*
X136663811Y-91155500D01*
X136941189Y-91155500D01*
X136988636Y-91164937D01*
X137013503Y-91175237D01*
X137013510Y-91175238D01*
X137013511Y-91175239D01*
X137168153Y-91205999D01*
X137168156Y-91206000D01*
X137168158Y-91206000D01*
X137325844Y-91206000D01*
X137325845Y-91205999D01*
X137402152Y-91190820D01*
X137480488Y-91175239D01*
X137480488Y-91175238D01*
X137480497Y-91175237D01*
X137505363Y-91164937D01*
X137552811Y-91155500D01*
X137830189Y-91155500D01*
X137877636Y-91164937D01*
X137902503Y-91175237D01*
X137902510Y-91175238D01*
X137902511Y-91175239D01*
X138057153Y-91205999D01*
X138057156Y-91206000D01*
X138057158Y-91206000D01*
X138214844Y-91206000D01*
X138214845Y-91205999D01*
X138291152Y-91190820D01*
X138369488Y-91175239D01*
X138369488Y-91175238D01*
X138369497Y-91175237D01*
X138394363Y-91164937D01*
X138441811Y-91155500D01*
X138719189Y-91155500D01*
X138766636Y-91164937D01*
X138791503Y-91175237D01*
X138791510Y-91175238D01*
X138791511Y-91175239D01*
X138946153Y-91205999D01*
X138946156Y-91206000D01*
X138946158Y-91206000D01*
X139103844Y-91206000D01*
X139103845Y-91205999D01*
X139180152Y-91190820D01*
X139258488Y-91175239D01*
X139258488Y-91175238D01*
X139258497Y-91175237D01*
X139283363Y-91164937D01*
X139330811Y-91155500D01*
X139608189Y-91155500D01*
X139655636Y-91164937D01*
X139680503Y-91175237D01*
X139680510Y-91175238D01*
X139680511Y-91175239D01*
X139835153Y-91205999D01*
X139835156Y-91206000D01*
X139835158Y-91206000D01*
X139992844Y-91206000D01*
X139992845Y-91205999D01*
X140069152Y-91190820D01*
X140147488Y-91175239D01*
X140147488Y-91175238D01*
X140147497Y-91175237D01*
X140172363Y-91164937D01*
X140219811Y-91155500D01*
X140497189Y-91155500D01*
X140544636Y-91164937D01*
X140569503Y-91175237D01*
X140569510Y-91175238D01*
X140569511Y-91175239D01*
X140724153Y-91205999D01*
X140724156Y-91206000D01*
X140724158Y-91206000D01*
X140881844Y-91206000D01*
X140881845Y-91205999D01*
X140958152Y-91190820D01*
X141036488Y-91175239D01*
X141036488Y-91175238D01*
X141036497Y-91175237D01*
X141061363Y-91164937D01*
X141069537Y-91163311D01*
X141073876Y-91160523D01*
X141108811Y-91155500D01*
X141154874Y-91155500D01*
X141171059Y-91156561D01*
X141276223Y-91170406D01*
X141307491Y-91178784D01*
X141397918Y-91216240D01*
X141425952Y-91232425D01*
X141503602Y-91292009D01*
X141526491Y-91314898D01*
X141586074Y-91392548D01*
X141602259Y-91420581D01*
X141639715Y-91511008D01*
X141648093Y-91542275D01*
X141661939Y-91647439D01*
X141663000Y-91663625D01*
X141663000Y-97759500D01*
X143454392Y-98879119D01*
X143467076Y-98888206D01*
X143546240Y-98952836D01*
X143567722Y-98975435D01*
X143623585Y-99051411D01*
X143638751Y-99078655D01*
X143673893Y-99166160D01*
X143681783Y-99196328D01*
X143695005Y-99297662D01*
X143696046Y-99313248D01*
X143713118Y-103941510D01*
X143712112Y-103957736D01*
X143698592Y-104063190D01*
X143690291Y-104094557D01*
X143652997Y-104185301D01*
X143636843Y-104213439D01*
X143577291Y-104291396D01*
X143554390Y-104314382D01*
X143476649Y-104374224D01*
X143448570Y-104390481D01*
X143357971Y-104428106D01*
X143326637Y-104436523D01*
X143239373Y-104448039D01*
X143221228Y-104450434D01*
X143205007Y-104451500D01*
X132028702Y-104451500D01*
X132012566Y-104450446D01*
X131907710Y-104436684D01*
X131876531Y-104428356D01*
X131786335Y-104391123D01*
X131758361Y-104375032D01*
X131680827Y-104315785D01*
X131657952Y-104293020D01*
X131598332Y-104215771D01*
X131582107Y-104187875D01*
X131544439Y-104097857D01*
X131535962Y-104066720D01*
X131521694Y-103961927D01*
X131520564Y-103945827D01*
X131514593Y-102706237D01*
X131533954Y-102639108D01*
X131573494Y-102600105D01*
X131678056Y-102535612D01*
X131802112Y-102411556D01*
X131894214Y-102262234D01*
X131949399Y-102095697D01*
X131959900Y-101992909D01*
X131959899Y-100942892D01*
X131955142Y-100896322D01*
X131954500Y-100883721D01*
X131954500Y-99741700D01*
X131962318Y-99698366D01*
X131973091Y-99669483D01*
X131979500Y-99609873D01*
X131979499Y-98066998D01*
X131999184Y-97999960D01*
X132051987Y-97954205D01*
X132103499Y-97942999D01*
X132266871Y-97942999D01*
X132266872Y-97942999D01*
X132326483Y-97936591D01*
X132461331Y-97886296D01*
X132576546Y-97800046D01*
X132576548Y-97800042D01*
X132580778Y-97795815D01*
X132642103Y-97762333D01*
X132668455Y-97759500D01*
X133133868Y-97759500D01*
X133200907Y-97779185D01*
X133202694Y-97780355D01*
X133282821Y-97833894D01*
X133282823Y-97833895D01*
X133282827Y-97833897D01*
X133409334Y-97886297D01*
X133428503Y-97894237D01*
X133583153Y-97924999D01*
X133583156Y-97925000D01*
X133583158Y-97925000D01*
X133740844Y-97925000D01*
X133740845Y-97924999D01*
X133895497Y-97894237D01*
X134041179Y-97833894D01*
X134172289Y-97746289D01*
X134283789Y-97634789D01*
X134371394Y-97503679D01*
X134413273Y-97402572D01*
X134440145Y-97362354D01*
X134551000Y-97251500D01*
X134551000Y-91663625D01*
X134552061Y-91647440D01*
X134565906Y-91542276D01*
X134565906Y-91542275D01*
X134574284Y-91511008D01*
X134611740Y-91420581D01*
X134627923Y-91392550D01*
X134687513Y-91314892D01*
X134710392Y-91292013D01*
X134788050Y-91232423D01*
X134816079Y-91216240D01*
X134906509Y-91178783D01*
X134937775Y-91170406D01*
X135042941Y-91156561D01*
X135059126Y-91155500D01*
X135163189Y-91155500D01*
X135210636Y-91164937D01*
G37*
%TD.AperFunction*%
%TD*%
%TA.AperFunction,Conductor*%
%TO.N,/Vout*%
G36*
X126185059Y-102586561D02*
G01*
X126290223Y-102600406D01*
X126321491Y-102608784D01*
X126411918Y-102646240D01*
X126439952Y-102662425D01*
X126517602Y-102722009D01*
X126540491Y-102744898D01*
X126600074Y-102822548D01*
X126616259Y-102850581D01*
X126653715Y-102941008D01*
X126662093Y-102972275D01*
X126675939Y-103077439D01*
X126677000Y-103093625D01*
X126677000Y-106903500D01*
X134358743Y-106903500D01*
X134366321Y-106903732D01*
X134375797Y-106904312D01*
X134415968Y-106906772D01*
X134430993Y-106908618D01*
X134479922Y-106917697D01*
X134487306Y-106919303D01*
X136551380Y-107434565D01*
X137832995Y-107754499D01*
X137832996Y-107754499D01*
X137833000Y-107754500D01*
X137894873Y-107754398D01*
X137894881Y-107754399D01*
X142042088Y-107747597D01*
X143423980Y-107745331D01*
X143440135Y-107746362D01*
X143545182Y-107759997D01*
X143576419Y-107768300D01*
X143666807Y-107805509D01*
X143694838Y-107821605D01*
X143772536Y-107880912D01*
X143795455Y-107903706D01*
X143855183Y-107981076D01*
X143871433Y-108009022D01*
X143909131Y-108099198D01*
X143917606Y-108130395D01*
X143931813Y-108235372D01*
X143932932Y-108251529D01*
X143949057Y-112480260D01*
X143948055Y-112496472D01*
X143934573Y-112601834D01*
X143926291Y-112633173D01*
X143889079Y-112723847D01*
X143872958Y-112751971D01*
X143813518Y-112829900D01*
X143790659Y-112852883D01*
X143713048Y-112912748D01*
X143685013Y-112929021D01*
X143594547Y-112966722D01*
X143563252Y-112975174D01*
X143457965Y-112989227D01*
X143441759Y-112990317D01*
X137839714Y-112999316D01*
X137826648Y-112998647D01*
X137741427Y-112989756D01*
X137715866Y-112984320D01*
X137634406Y-112957768D01*
X137622197Y-112953062D01*
X132900005Y-110840501D01*
X132900000Y-110840500D01*
X132793255Y-110840500D01*
X124184934Y-110840500D01*
X124117895Y-110820815D01*
X124085667Y-110790810D01*
X124074545Y-110775953D01*
X124074544Y-110775952D01*
X123959335Y-110689706D01*
X123959328Y-110689702D01*
X123824482Y-110639408D01*
X123824483Y-110639408D01*
X123764883Y-110633001D01*
X123764881Y-110633000D01*
X123764873Y-110633000D01*
X123764864Y-110633000D01*
X121969129Y-110633000D01*
X121969123Y-110633001D01*
X121909516Y-110639408D01*
X121774671Y-110689702D01*
X121774664Y-110689706D01*
X121652355Y-110781268D01*
X121650712Y-110779073D01*
X121645548Y-110781892D01*
X121630927Y-110795505D01*
X121615511Y-110798286D01*
X121601759Y-110805792D01*
X121581829Y-110804362D01*
X121562168Y-110807910D01*
X121535153Y-110801015D01*
X121532068Y-110800794D01*
X121527970Y-110799182D01*
X121481080Y-110779759D01*
X121453048Y-110763574D01*
X121375398Y-110703991D01*
X121352508Y-110681101D01*
X121292925Y-110603451D01*
X121276740Y-110575418D01*
X121239284Y-110484991D01*
X121230906Y-110453723D01*
X121217061Y-110348559D01*
X121216000Y-110332374D01*
X121216000Y-108013478D01*
X121217112Y-107996907D01*
X121231625Y-107889281D01*
X121240403Y-107857323D01*
X121279622Y-107765113D01*
X121296548Y-107736628D01*
X121364017Y-107651505D01*
X121375170Y-107639225D01*
X122135313Y-106907236D01*
X122139193Y-106903500D01*
X124645000Y-104490500D01*
X124645000Y-103093625D01*
X124646061Y-103077440D01*
X124659906Y-102972276D01*
X124659906Y-102972275D01*
X124668284Y-102941008D01*
X124705740Y-102850581D01*
X124721923Y-102822550D01*
X124781513Y-102744892D01*
X124804392Y-102722013D01*
X124882050Y-102662423D01*
X124910079Y-102646240D01*
X125000509Y-102608783D01*
X125031775Y-102600406D01*
X125136941Y-102586561D01*
X125153126Y-102585500D01*
X126168874Y-102585500D01*
X126185059Y-102586561D01*
G37*
%TD.AperFunction*%
%TD*%
%TA.AperFunction,Conductor*%
%TO.N,/Vin*%
G36*
X129741059Y-79980561D02*
G01*
X129846223Y-79994406D01*
X129877491Y-80002784D01*
X129967918Y-80040240D01*
X129995952Y-80056425D01*
X130073602Y-80116009D01*
X130096491Y-80138898D01*
X130156074Y-80216548D01*
X130172259Y-80244581D01*
X130209715Y-80335008D01*
X130218093Y-80366275D01*
X130231939Y-80471439D01*
X130233000Y-80487625D01*
X130233000Y-83260803D01*
X130232976Y-83263224D01*
X130232667Y-83279045D01*
X130232479Y-83283879D01*
X130231548Y-83299765D01*
X130231383Y-83302173D01*
X130214406Y-83519364D01*
X130204000Y-83652500D01*
X130204000Y-91272500D01*
X130435045Y-91419924D01*
X130435049Y-91419927D01*
X130935785Y-91739433D01*
X131045048Y-91809151D01*
X131757248Y-92263587D01*
X131803174Y-92316242D01*
X131813343Y-92385368D01*
X131801949Y-92422580D01*
X131758426Y-92511608D01*
X131748500Y-92579739D01*
X131748500Y-94058836D01*
X131742867Y-94078018D01*
X131742153Y-94098000D01*
X131733224Y-94110858D01*
X131728815Y-94125875D01*
X131713707Y-94138966D01*
X131702302Y-94155391D01*
X131678358Y-94169595D01*
X131676011Y-94171630D01*
X131671948Y-94173399D01*
X131655486Y-94180217D01*
X131624224Y-94188593D01*
X131530398Y-94200946D01*
X131519058Y-94202439D01*
X131502874Y-94203500D01*
X129725126Y-94203500D01*
X129708941Y-94202439D01*
X129695917Y-94200724D01*
X129603775Y-94188593D01*
X129572508Y-94180215D01*
X129482081Y-94142759D01*
X129454047Y-94126574D01*
X129433566Y-94110858D01*
X129376397Y-94066990D01*
X129353511Y-94044103D01*
X129315124Y-93994076D01*
X129289930Y-93928907D01*
X129289500Y-93918590D01*
X129289500Y-92579739D01*
X129284536Y-92545673D01*
X129279573Y-92511607D01*
X129228198Y-92406517D01*
X129228196Y-92406515D01*
X129228196Y-92406514D01*
X129145485Y-92323803D01*
X129040391Y-92272426D01*
X128972254Y-92262499D01*
X128971097Y-92262415D01*
X128970601Y-92262258D01*
X128967820Y-92261853D01*
X128967886Y-92261398D01*
X128916285Y-92245070D01*
X128196607Y-91813263D01*
X128183478Y-91804188D01*
X128101611Y-91739433D01*
X128079373Y-91716627D01*
X128021541Y-91639596D01*
X128005847Y-91611877D01*
X127969549Y-91522658D01*
X127961434Y-91491855D01*
X127948027Y-91388333D01*
X127947000Y-91372407D01*
X127947000Y-80487625D01*
X127948061Y-80471440D01*
X127961906Y-80366276D01*
X127961906Y-80366275D01*
X127970284Y-80335008D01*
X128007740Y-80244581D01*
X128023923Y-80216550D01*
X128083513Y-80138892D01*
X128106392Y-80116013D01*
X128184050Y-80056423D01*
X128212079Y-80040240D01*
X128302509Y-80002783D01*
X128333775Y-79994406D01*
X128438941Y-79980561D01*
X128455126Y-79979500D01*
X129724874Y-79979500D01*
X129741059Y-79980561D01*
G37*
%TD.AperFunction*%
%TD*%
%TA.AperFunction,Conductor*%
%TO.N,GND*%
G36*
X153345788Y-62319454D02*
G01*
X153426570Y-62373430D01*
X153480546Y-62454212D01*
X153499500Y-62549500D01*
X153499500Y-133050500D01*
X153480546Y-133145788D01*
X153426570Y-133226570D01*
X153345788Y-133280546D01*
X153250500Y-133299500D01*
X114749500Y-133299500D01*
X114654212Y-133280546D01*
X114573430Y-133226570D01*
X114519454Y-133145788D01*
X114500500Y-133050500D01*
X114500500Y-112483501D01*
X121517000Y-112483501D01*
X121517000Y-112881332D01*
X121523401Y-112940871D01*
X121523403Y-112940878D01*
X121573646Y-113075587D01*
X121659810Y-113190687D01*
X121659812Y-113190689D01*
X121774912Y-113276853D01*
X121909621Y-113327096D01*
X121909628Y-113327098D01*
X121969167Y-113333499D01*
X121969175Y-113333500D01*
X122366999Y-113333500D01*
X122367000Y-113333499D01*
X122367000Y-112483501D01*
X123367000Y-112483501D01*
X123367000Y-113333499D01*
X123367001Y-113333500D01*
X123764825Y-113333500D01*
X123764832Y-113333499D01*
X123824371Y-113327098D01*
X123824378Y-113327096D01*
X123959087Y-113276853D01*
X124074187Y-113190689D01*
X124074189Y-113190687D01*
X124160353Y-113075587D01*
X124210596Y-112940878D01*
X124210598Y-112940871D01*
X124216999Y-112881332D01*
X124217000Y-112881325D01*
X124217000Y-112780001D01*
X125589001Y-112780001D01*
X125589001Y-112992484D01*
X125599494Y-113095199D01*
X125599495Y-113095202D01*
X125654640Y-113261619D01*
X125654641Y-113261621D01*
X125746681Y-113410841D01*
X125746684Y-113410845D01*
X125870654Y-113534815D01*
X125870658Y-113534818D01*
X126019878Y-113626858D01*
X126019879Y-113626859D01*
X126186298Y-113682004D01*
X126186305Y-113682005D01*
X126289023Y-113692499D01*
X127188998Y-113692499D01*
X127189000Y-113692498D01*
X127189000Y-112780001D01*
X127689000Y-112780001D01*
X127689000Y-113692498D01*
X127689001Y-113692499D01*
X128588968Y-113692499D01*
X128588984Y-113692498D01*
X128691699Y-113682005D01*
X128691702Y-113682004D01*
X128858119Y-113626859D01*
X128858121Y-113626858D01*
X129007341Y-113534818D01*
X129007345Y-113534815D01*
X129075930Y-113466231D01*
X129156712Y-113412255D01*
X129252000Y-113393301D01*
X129347288Y-113412255D01*
X129428070Y-113466231D01*
X129496654Y-113534815D01*
X129496658Y-113534818D01*
X129645878Y-113626858D01*
X129645879Y-113626859D01*
X129812298Y-113682004D01*
X129812305Y-113682005D01*
X129915023Y-113692499D01*
X130814998Y-113692499D01*
X130815000Y-113692498D01*
X130815000Y-112780001D01*
X131315000Y-112780001D01*
X131315000Y-113692498D01*
X131315001Y-113692499D01*
X132214968Y-113692499D01*
X132214984Y-113692498D01*
X132317699Y-113682005D01*
X132317702Y-113682004D01*
X132484119Y-113626859D01*
X132484121Y-113626858D01*
X132633341Y-113534818D01*
X132633345Y-113534815D01*
X132757315Y-113410845D01*
X132757318Y-113410841D01*
X132849358Y-113261621D01*
X132849359Y-113261620D01*
X132904504Y-113095201D01*
X132904505Y-113095194D01*
X132914999Y-112992481D01*
X132915000Y-112992471D01*
X132915000Y-112780001D01*
X132914999Y-112780000D01*
X131315001Y-112780000D01*
X131315000Y-112780001D01*
X130815000Y-112780001D01*
X130814999Y-112780000D01*
X127689001Y-112780000D01*
X127689000Y-112780001D01*
X127189000Y-112780001D01*
X127188999Y-112780000D01*
X125589002Y-112780000D01*
X125589001Y-112780001D01*
X124217000Y-112780001D01*
X124217000Y-112483501D01*
X124216999Y-112483500D01*
X123367001Y-112483500D01*
X123367000Y-112483501D01*
X122367000Y-112483501D01*
X122366999Y-112483500D01*
X121517001Y-112483500D01*
X121517000Y-112483501D01*
X114500500Y-112483501D01*
X114500500Y-108013466D01*
X120210500Y-108013466D01*
X120210500Y-110332359D01*
X120212654Y-110398149D01*
X120213716Y-110414351D01*
X120220160Y-110479785D01*
X120232716Y-110575154D01*
X120234008Y-110584966D01*
X120259666Y-110713959D01*
X120268044Y-110745227D01*
X120310323Y-110869778D01*
X120343394Y-110949619D01*
X120347783Y-110960215D01*
X120347786Y-110960221D01*
X120405950Y-111078165D01*
X120422140Y-111106208D01*
X120495198Y-111215546D01*
X120495205Y-111215555D01*
X120495209Y-111215561D01*
X120554792Y-111293211D01*
X120641512Y-111392097D01*
X120664402Y-111414987D01*
X120664410Y-111414994D01*
X120763289Y-111501708D01*
X120783968Y-111517575D01*
X120840938Y-111561290D01*
X120950281Y-111634353D01*
X120950290Y-111634358D01*
X120950296Y-111634362D01*
X120957463Y-111638500D01*
X120978313Y-111650538D01*
X121096283Y-111708716D01*
X121143173Y-111728139D01*
X121159897Y-111734892D01*
X121163995Y-111736504D01*
X121259804Y-111768731D01*
X121259810Y-111768732D01*
X121266145Y-111770341D01*
X121272321Y-111771666D01*
X121286492Y-111775282D01*
X121286492Y-111775283D01*
X121313507Y-111782178D01*
X121313529Y-111782183D01*
X121313559Y-111782191D01*
X121325258Y-111785033D01*
X121336042Y-111787653D01*
X121446021Y-111801527D01*
X121457683Y-111803281D01*
X121458907Y-111803494D01*
X121460221Y-111803724D01*
X121460968Y-111803777D01*
X121474338Y-111805099D01*
X121482504Y-111806129D01*
X121537891Y-111813117D01*
X121597776Y-111808484D01*
X121614149Y-111807759D01*
X121696392Y-111806829D01*
X121793961Y-111787497D01*
X121794019Y-111787814D01*
X121809435Y-111785033D01*
X121818099Y-111782715D01*
X121895962Y-111767288D01*
X121915500Y-111759066D01*
X121947714Y-111748037D01*
X121970364Y-111741979D01*
X122067045Y-111695789D01*
X122080572Y-111691026D01*
X122094339Y-111682749D01*
X122136055Y-111662819D01*
X122230205Y-111638849D01*
X122243385Y-111638500D01*
X122504894Y-111638500D01*
X122466901Y-111676493D01*
X122401075Y-111790507D01*
X122367000Y-111917674D01*
X122367000Y-112049326D01*
X122401075Y-112176493D01*
X122466901Y-112290507D01*
X122559993Y-112383599D01*
X122674007Y-112449425D01*
X122801174Y-112483500D01*
X122932826Y-112483500D01*
X123059993Y-112449425D01*
X123174007Y-112383599D01*
X123267099Y-112290507D01*
X123332925Y-112176493D01*
X123367000Y-112049326D01*
X123367000Y-111917674D01*
X123332925Y-111790507D01*
X123267099Y-111676493D01*
X123229106Y-111638500D01*
X123465495Y-111638500D01*
X123560783Y-111657454D01*
X123603951Y-111680544D01*
X123646198Y-111708808D01*
X123834605Y-111785583D01*
X123901644Y-111805268D01*
X123982152Y-111825323D01*
X123982532Y-111825418D01*
X124184914Y-111845998D01*
X124184934Y-111846000D01*
X125340000Y-111846000D01*
X125435288Y-111864954D01*
X125516070Y-111918930D01*
X125570046Y-111999712D01*
X125589000Y-112095000D01*
X125589000Y-112279999D01*
X125589001Y-112280000D01*
X132914998Y-112280000D01*
X132928139Y-112266858D01*
X132933953Y-112237631D01*
X132987929Y-112156849D01*
X133068711Y-112102873D01*
X133163999Y-112083919D01*
X133259287Y-112102873D01*
X133265662Y-112105618D01*
X135828185Y-113252011D01*
X137211596Y-113870906D01*
X137260556Y-113891276D01*
X137260559Y-113891277D01*
X137272768Y-113895983D01*
X137322797Y-113913765D01*
X137404257Y-113940317D01*
X137506706Y-113967825D01*
X137532267Y-113973261D01*
X137637091Y-113989828D01*
X137722312Y-113998719D01*
X137722327Y-113998720D01*
X137722335Y-113998721D01*
X137737393Y-113999891D01*
X137775232Y-114002832D01*
X137788298Y-114003501D01*
X137841329Y-114004815D01*
X143443374Y-113995816D01*
X143509236Y-113993550D01*
X143525442Y-113992460D01*
X143590993Y-113985888D01*
X143696280Y-113971835D01*
X143825419Y-113945895D01*
X143856714Y-113937443D01*
X143981338Y-113894851D01*
X144071804Y-113857150D01*
X144189785Y-113798639D01*
X144217820Y-113782366D01*
X144327170Y-113708917D01*
X144404781Y-113649052D01*
X144503575Y-113561953D01*
X144526434Y-113538970D01*
X144613000Y-113439702D01*
X144672440Y-113361773D01*
X144745306Y-113252011D01*
X144761427Y-113223887D01*
X144819291Y-113105600D01*
X144856503Y-113014926D01*
X144898418Y-112890078D01*
X144906700Y-112858739D01*
X144931941Y-112729456D01*
X144945423Y-112624094D01*
X144951640Y-112558500D01*
X144952642Y-112542288D01*
X144954550Y-112476426D01*
X144953639Y-112237631D01*
X144938425Y-108247693D01*
X144936029Y-108182063D01*
X144934909Y-108165886D01*
X144928233Y-108100548D01*
X144928230Y-108100523D01*
X144914023Y-107995546D01*
X144887938Y-107866794D01*
X144879463Y-107835597D01*
X144836829Y-107711375D01*
X144799131Y-107621199D01*
X144784121Y-107591003D01*
X144740676Y-107503606D01*
X144740657Y-107503571D01*
X144724414Y-107475636D01*
X144724405Y-107475623D01*
X144651112Y-107366645D01*
X144651104Y-107366633D01*
X144591383Y-107289272D01*
X144504510Y-107190776D01*
X144504504Y-107190769D01*
X144481585Y-107167975D01*
X144417482Y-107112056D01*
X144382637Y-107081659D01*
X144382627Y-107081651D01*
X144382619Y-107081644D01*
X144382615Y-107081641D01*
X144382613Y-107081638D01*
X144379553Y-107078969D01*
X144379993Y-107078463D01*
X144320782Y-107006707D01*
X144292330Y-106913811D01*
X144301594Y-106817099D01*
X144347163Y-106731293D01*
X144422099Y-106669458D01*
X144477650Y-106652443D01*
X144489999Y-106640000D01*
X144490000Y-106640000D01*
X144485607Y-104821551D01*
X144504330Y-104726221D01*
X144518666Y-104696974D01*
X144525011Y-104685923D01*
X144583017Y-104567521D01*
X144620311Y-104476777D01*
X144662329Y-104351798D01*
X144670630Y-104320431D01*
X144695929Y-104191056D01*
X144709449Y-104085602D01*
X144715685Y-104019957D01*
X144715686Y-104019944D01*
X144716690Y-104003756D01*
X144716691Y-104003731D01*
X144718611Y-103937801D01*
X144701539Y-99309539D01*
X144699311Y-99246239D01*
X144698800Y-99238595D01*
X144698271Y-99230669D01*
X144698270Y-99230653D01*
X144692054Y-99167568D01*
X144678832Y-99066234D01*
X144654564Y-98941911D01*
X144646674Y-98911743D01*
X144626958Y-98852018D01*
X144606964Y-98791447D01*
X144606957Y-98791428D01*
X144571829Y-98703957D01*
X144571825Y-98703948D01*
X144517306Y-98589606D01*
X144517299Y-98589591D01*
X144502133Y-98562347D01*
X144470368Y-98512896D01*
X144470000Y-98360000D01*
X144288676Y-98274448D01*
X144275018Y-98260079D01*
X144182132Y-98173945D01*
X144102968Y-98109315D01*
X144052663Y-98070821D01*
X144052641Y-98070805D01*
X144039998Y-98061747D01*
X144039979Y-98061734D01*
X143987306Y-98026456D01*
X143923484Y-97986567D01*
X142785530Y-97275344D01*
X142714772Y-97208769D01*
X142674877Y-97120183D01*
X142668500Y-97064193D01*
X142668500Y-94198939D01*
X142687454Y-94103651D01*
X142741430Y-94022869D01*
X142822212Y-93968893D01*
X142917500Y-93949939D01*
X142919878Y-93949999D01*
X142950000Y-93949998D01*
X142950000Y-93450001D01*
X144250000Y-93450001D01*
X144250000Y-93949998D01*
X144250001Y-93949999D01*
X144274968Y-93949999D01*
X144274984Y-93949998D01*
X144377699Y-93939505D01*
X144377702Y-93939504D01*
X144544119Y-93884359D01*
X144544121Y-93884358D01*
X144693341Y-93792318D01*
X144693345Y-93792315D01*
X144817319Y-93668341D01*
X144909356Y-93519125D01*
X144932263Y-93450000D01*
X144250001Y-93450000D01*
X144250000Y-93450001D01*
X142950000Y-93450001D01*
X142950000Y-93049000D01*
X142968954Y-92953712D01*
X143022930Y-92872930D01*
X143103712Y-92818954D01*
X143199000Y-92800000D01*
X143599999Y-92800000D01*
X143600000Y-92799999D01*
X143600000Y-92399000D01*
X143618954Y-92303712D01*
X143672930Y-92222930D01*
X143753712Y-92168954D01*
X143849000Y-92150000D01*
X144932262Y-92150000D01*
X144909356Y-92080874D01*
X144863401Y-92006369D01*
X144855960Y-91986379D01*
X144844295Y-91968518D01*
X144839174Y-91941283D01*
X144829509Y-91915317D01*
X144830284Y-91893999D01*
X144826343Y-91873036D01*
X144832033Y-91845917D01*
X144833041Y-91818226D01*
X144841915Y-91798828D01*
X144846296Y-91777952D01*
X144860321Y-91758595D01*
X144873459Y-91729878D01*
X144901118Y-91697741D01*
X144907915Y-91691084D01*
X144909711Y-91689707D01*
X145008597Y-91602987D01*
X145031487Y-91580097D01*
X145093667Y-91509192D01*
X145100422Y-91502579D01*
X145133328Y-91481087D01*
X145164501Y-91457168D01*
X145173747Y-91454690D01*
X145181765Y-91449454D01*
X145220388Y-91442192D01*
X145258346Y-91432021D01*
X145263982Y-91431716D01*
X145540000Y-91420000D01*
X145500000Y-79020000D01*
X144353111Y-79025965D01*
X144304860Y-79021500D01*
X144264192Y-79013690D01*
X144191408Y-78999713D01*
X144085635Y-78986533D01*
X144019825Y-78980521D01*
X144003552Y-78979573D01*
X143937468Y-78977899D01*
X138181668Y-79021434D01*
X138149692Y-79022185D01*
X138144229Y-79022401D01*
X138141751Y-79022499D01*
X138075938Y-79028894D01*
X138075282Y-79028829D01*
X138074648Y-79029017D01*
X138026989Y-79024009D01*
X137979267Y-79019246D01*
X137978228Y-79018926D01*
X137873892Y-78986533D01*
X137869496Y-78985168D01*
X137822819Y-78965261D01*
X137689116Y-78891315D01*
X137647442Y-78862357D01*
X137521795Y-78754501D01*
X137503401Y-78737005D01*
X136314316Y-77484333D01*
X136314313Y-77484330D01*
X136314311Y-77484326D01*
X135940001Y-77090000D01*
X135939997Y-77089999D01*
X135519049Y-77090020D01*
X135423760Y-77071071D01*
X135423750Y-77071067D01*
X135368885Y-77048341D01*
X135240912Y-77014051D01*
X135147239Y-76988952D01*
X135147236Y-76988951D01*
X135147234Y-76988951D01*
X135120773Y-76985466D01*
X135120773Y-76985467D01*
X134919734Y-76959000D01*
X130118266Y-76959000D01*
X129917228Y-76985467D01*
X129917226Y-76985467D01*
X129890770Y-76988950D01*
X129890757Y-76988953D01*
X129669112Y-77048342D01*
X129613512Y-77071372D01*
X129518240Y-77090325D01*
X128739661Y-77090365D01*
X128432483Y-77493572D01*
X128432448Y-77493620D01*
X127377046Y-78878969D01*
X127110000Y-79229498D01*
X127110000Y-79229500D01*
X127112736Y-79571472D01*
X127112736Y-79571473D01*
X127113990Y-79728325D01*
X127095798Y-79823762D01*
X127088324Y-79840436D01*
X127078788Y-79859773D01*
X127078776Y-79859801D01*
X127041326Y-79950211D01*
X127041319Y-79950231D01*
X126999043Y-80074774D01*
X126999042Y-80074776D01*
X126990666Y-80106036D01*
X126965007Y-80235038D01*
X126951161Y-80340210D01*
X126944716Y-80405648D01*
X126943654Y-80421847D01*
X126941500Y-80487639D01*
X126941500Y-91372408D01*
X126943354Y-91429986D01*
X126927477Y-91525835D01*
X126876128Y-91608312D01*
X126797125Y-91664860D01*
X126702497Y-91686871D01*
X126694483Y-91687000D01*
X126121904Y-91687000D01*
X125991057Y-91697298D01*
X125991054Y-91697298D01*
X125774958Y-91751750D01*
X125572067Y-91843907D01*
X125572065Y-91843909D01*
X125388890Y-91970814D01*
X125231314Y-92128390D01*
X125104409Y-92311565D01*
X125104407Y-92311567D01*
X125012250Y-92514458D01*
X124957798Y-92730554D01*
X124957798Y-92730557D01*
X124947500Y-92861404D01*
X124947500Y-93488595D01*
X124957798Y-93619442D01*
X124957799Y-93619449D01*
X124992410Y-93756808D01*
X124997313Y-93853839D01*
X124981551Y-93911602D01*
X124974918Y-93927880D01*
X124974910Y-93927904D01*
X124955236Y-93994904D01*
X124935081Y-94075811D01*
X124914501Y-94278193D01*
X124914500Y-94278218D01*
X124914500Y-95073042D01*
X124917422Y-95149656D01*
X124918860Y-95168478D01*
X124927600Y-95244567D01*
X124946336Y-95366506D01*
X124950141Y-95382850D01*
X124955855Y-95419757D01*
X124957797Y-95444439D01*
X124957799Y-95444448D01*
X125012250Y-95660541D01*
X125104407Y-95863432D01*
X125104408Y-95863433D01*
X125231315Y-96046611D01*
X125388889Y-96204185D01*
X125388892Y-96204187D01*
X125388893Y-96204188D01*
X125441784Y-96240831D01*
X125509317Y-96310676D01*
X125539496Y-96377437D01*
X125672361Y-96844928D01*
X125675131Y-96879237D01*
X125681847Y-96913000D01*
X125679009Y-96927266D01*
X125680180Y-96941768D01*
X125669607Y-96974530D01*
X125662893Y-97008288D01*
X125654811Y-97020382D01*
X125650344Y-97034228D01*
X125628041Y-97060447D01*
X125608917Y-97089070D01*
X125596819Y-97097152D01*
X125587396Y-97108232D01*
X125556759Y-97123919D01*
X125528135Y-97143046D01*
X125522632Y-97145249D01*
X125465381Y-97167381D01*
X125388933Y-97200640D01*
X125215823Y-97307529D01*
X125157475Y-97352301D01*
X125091915Y-97409798D01*
X125058577Y-97439036D01*
X125035702Y-97461912D01*
X125035691Y-97461923D01*
X124949006Y-97560768D01*
X124889419Y-97638422D01*
X124889398Y-97638451D01*
X124816330Y-97747806D01*
X124816328Y-97747809D01*
X124800142Y-97775845D01*
X124741982Y-97893786D01*
X124741979Y-97893794D01*
X124704523Y-97984221D01*
X124703727Y-97986567D01*
X124662244Y-98108770D01*
X124653865Y-98140043D01*
X124628209Y-98269025D01*
X124614360Y-98374213D01*
X124607916Y-98439647D01*
X124606854Y-98455849D01*
X124604700Y-98521639D01*
X124604700Y-99407986D01*
X124585746Y-99503274D01*
X124533688Y-99582117D01*
X124488513Y-99628290D01*
X124484438Y-99632457D01*
X124404135Y-99720838D01*
X124404128Y-99720847D01*
X124312852Y-99837534D01*
X124312848Y-99837539D01*
X124292580Y-99867807D01*
X124219419Y-99996687D01*
X124172253Y-100096218D01*
X124118816Y-100234496D01*
X124108223Y-100269362D01*
X124075715Y-100413885D01*
X124075712Y-100413898D01*
X124059256Y-100524644D01*
X124059241Y-100524751D01*
X124058148Y-100532108D01*
X124049982Y-100605652D01*
X124048635Y-100623872D01*
X124045900Y-100698009D01*
X124045900Y-101550168D01*
X124048077Y-101616302D01*
X124049151Y-101632597D01*
X124055671Y-101698410D01*
X124069673Y-101804163D01*
X124069676Y-101804185D01*
X124083130Y-101871442D01*
X124083234Y-101968597D01*
X124046151Y-102058396D01*
X124026175Y-102084458D01*
X123983799Y-102132778D01*
X123924219Y-102210422D01*
X123924198Y-102210451D01*
X123851130Y-102319806D01*
X123851128Y-102319809D01*
X123834942Y-102347845D01*
X123776781Y-102465787D01*
X123776776Y-102465800D01*
X123739327Y-102556211D01*
X123739319Y-102556231D01*
X123697043Y-102680774D01*
X123697042Y-102680776D01*
X123688666Y-102712036D01*
X123663007Y-102841038D01*
X123649161Y-102946210D01*
X123642716Y-103011648D01*
X123641654Y-103027847D01*
X123639500Y-103093639D01*
X123639500Y-103956948D01*
X123620546Y-104052236D01*
X123566570Y-104133018D01*
X123563217Y-104136308D01*
X122191730Y-105457000D01*
X120677713Y-106914943D01*
X120677702Y-106914953D01*
X120677694Y-106914962D01*
X120630854Y-106963189D01*
X120619681Y-106975491D01*
X120576019Y-107026932D01*
X120508554Y-107112050D01*
X120508553Y-107112050D01*
X120432150Y-107222970D01*
X120432137Y-107222990D01*
X120415216Y-107251466D01*
X120415203Y-107251489D01*
X120354340Y-107371561D01*
X120315114Y-107463788D01*
X120315107Y-107463804D01*
X120270813Y-107590998D01*
X120270813Y-107591000D01*
X120262034Y-107622964D01*
X120235145Y-107754903D01*
X120235144Y-107754906D01*
X120220630Y-107862540D01*
X120213866Y-107929594D01*
X120212754Y-107946163D01*
X120210500Y-108013466D01*
X114500500Y-108013466D01*
X114500500Y-98573904D01*
X118724500Y-98573904D01*
X118724500Y-99201095D01*
X118734798Y-99331942D01*
X118734798Y-99331945D01*
X118789250Y-99548043D01*
X118856921Y-99697025D01*
X118879071Y-99791621D01*
X118863334Y-99887493D01*
X118856921Y-99902975D01*
X118789250Y-100051956D01*
X118734798Y-100268054D01*
X118734798Y-100268057D01*
X118724500Y-100398904D01*
X118724500Y-101026095D01*
X118734798Y-101156942D01*
X118734798Y-101156945D01*
X118789250Y-101373041D01*
X118881410Y-101575937D01*
X118884404Y-101581214D01*
X118886010Y-101586064D01*
X118886033Y-101586115D01*
X118886027Y-101586117D01*
X118914943Y-101673445D01*
X118913771Y-101743044D01*
X118899500Y-101833147D01*
X118899500Y-102037861D01*
X118931522Y-102240031D01*
X118994778Y-102434714D01*
X118994782Y-102434724D01*
X119087711Y-102617107D01*
X119087713Y-102617110D01*
X119208034Y-102782719D01*
X119352781Y-102927466D01*
X119518390Y-103047787D01*
X119700781Y-103140720D01*
X119895466Y-103203977D01*
X119966575Y-103215239D01*
X120097638Y-103235999D01*
X120097645Y-103235999D01*
X120097648Y-103236000D01*
X120097651Y-103236000D01*
X120302349Y-103236000D01*
X120302352Y-103236000D01*
X120302355Y-103235999D01*
X120302361Y-103235999D01*
X120397870Y-103220871D01*
X120504534Y-103203977D01*
X120699219Y-103140720D01*
X120881610Y-103047787D01*
X121047219Y-102927466D01*
X121191966Y-102782719D01*
X121312287Y-102617110D01*
X121405220Y-102434719D01*
X121468477Y-102240034D01*
X121500500Y-102037852D01*
X121500500Y-101911496D01*
X121519454Y-101816208D01*
X121573430Y-101735426D01*
X121589838Y-101724462D01*
X121651800Y-101662499D01*
X121651800Y-101241019D01*
X121659348Y-101180176D01*
X121661350Y-101172231D01*
X121703015Y-101084466D01*
X121775096Y-101019325D01*
X121866618Y-100986726D01*
X121963649Y-100991632D01*
X122051417Y-101033298D01*
X122116558Y-101105379D01*
X122149157Y-101196901D01*
X122151800Y-101233083D01*
X122151800Y-101662498D01*
X122151801Y-101662499D01*
X122188436Y-101662499D01*
X122188452Y-101662498D01*
X122289451Y-101652180D01*
X122453102Y-101597953D01*
X122599835Y-101507446D01*
X122721746Y-101385535D01*
X122812254Y-101238799D01*
X122812255Y-101238797D01*
X122866480Y-101075157D01*
X122876799Y-100974149D01*
X122876800Y-100974139D01*
X122876800Y-100887501D01*
X122876799Y-100887500D01*
X122417027Y-100887500D01*
X122399092Y-100883932D01*
X122380831Y-100884855D01*
X122351880Y-100874541D01*
X122321739Y-100868546D01*
X122306535Y-100858387D01*
X122289310Y-100852251D01*
X122266511Y-100831644D01*
X122240957Y-100814570D01*
X122230797Y-100799365D01*
X122217233Y-100787105D01*
X122204055Y-100759341D01*
X122186981Y-100733788D01*
X122183413Y-100715853D01*
X122175573Y-100699335D01*
X122174022Y-100668642D01*
X122168027Y-100638500D01*
X122171594Y-100620565D01*
X122170672Y-100602304D01*
X122180985Y-100573353D01*
X122186981Y-100543212D01*
X122197139Y-100528008D01*
X122203276Y-100510783D01*
X122223882Y-100487984D01*
X122240957Y-100462430D01*
X122256161Y-100452270D01*
X122268422Y-100438706D01*
X122296185Y-100425528D01*
X122321739Y-100408454D01*
X122356192Y-100397046D01*
X122364130Y-100395046D01*
X122424965Y-100387500D01*
X122876798Y-100387500D01*
X122876799Y-100387499D01*
X122876799Y-100294516D01*
X122878406Y-100294516D01*
X122891033Y-100208179D01*
X122940811Y-100124744D01*
X122949560Y-100115535D01*
X123093485Y-99971611D01*
X123220392Y-99788433D01*
X123312551Y-99585538D01*
X123367001Y-99369449D01*
X123377300Y-99238584D01*
X123377300Y-98536416D01*
X123367001Y-98405551D01*
X123312551Y-98189462D01*
X123220392Y-97986567D01*
X123093485Y-97803389D01*
X122935911Y-97645815D01*
X122752733Y-97518908D01*
X122752732Y-97518907D01*
X122549841Y-97426750D01*
X122549839Y-97426749D01*
X122549838Y-97426749D01*
X122333749Y-97372299D01*
X122333747Y-97372298D01*
X122333744Y-97372298D01*
X122202895Y-97362000D01*
X122202884Y-97362000D01*
X121600716Y-97362000D01*
X121600704Y-97362000D01*
X121469857Y-97372298D01*
X121469854Y-97372298D01*
X121253756Y-97426750D01*
X121112595Y-97490869D01*
X121017999Y-97513019D01*
X120922127Y-97497282D01*
X120906644Y-97490869D01*
X120848043Y-97464251D01*
X120848041Y-97464250D01*
X120848038Y-97464249D01*
X120631949Y-97409799D01*
X120631944Y-97409798D01*
X120631942Y-97409798D01*
X120501095Y-97399500D01*
X120501084Y-97399500D01*
X119898916Y-97399500D01*
X119898904Y-97399500D01*
X119768057Y-97409798D01*
X119768054Y-97409798D01*
X119551958Y-97464250D01*
X119349067Y-97556407D01*
X119349065Y-97556409D01*
X119165890Y-97683314D01*
X119008314Y-97840890D01*
X118881409Y-98024065D01*
X118881407Y-98024067D01*
X118789250Y-98226958D01*
X118734798Y-98443054D01*
X118734798Y-98443057D01*
X118724500Y-98573904D01*
X114500500Y-98573904D01*
X114500500Y-62549500D01*
X114519454Y-62454212D01*
X114573430Y-62373430D01*
X114654212Y-62319454D01*
X114749500Y-62300500D01*
X153250500Y-62300500D01*
X153345788Y-62319454D01*
G37*
%TD.AperFunction*%
%TD*%
%TA.AperFunction,Conductor*%
%TO.N,GND1*%
G36*
X134302703Y-79979685D02*
G01*
X134323345Y-79996319D01*
X136008181Y-81681155D01*
X136041666Y-81742478D01*
X136044500Y-81768836D01*
X136044500Y-82710388D01*
X136044501Y-82710406D01*
X136055000Y-82813183D01*
X136055001Y-82813186D01*
X136110185Y-82979718D01*
X136110187Y-82979723D01*
X136145069Y-83036275D01*
X136189000Y-83107500D01*
X136202289Y-83129044D01*
X136271510Y-83198265D01*
X136304995Y-83259588D01*
X136300011Y-83329280D01*
X136284148Y-83358831D01*
X136233139Y-83429038D01*
X136140244Y-83611355D01*
X136077009Y-83805969D01*
X136045000Y-84008069D01*
X136045000Y-84212704D01*
X136077010Y-84414805D01*
X136077010Y-84414808D01*
X136139904Y-84608374D01*
X136903765Y-83844514D01*
X136965088Y-83811029D01*
X137034780Y-83816013D01*
X137058465Y-83831235D01*
X137024920Y-83864781D01*
X136972259Y-83955993D01*
X136945000Y-84057726D01*
X136945000Y-84163048D01*
X136972259Y-84264781D01*
X137024920Y-84355993D01*
X137099394Y-84430467D01*
X137190606Y-84483128D01*
X137292339Y-84510387D01*
X137397661Y-84510387D01*
X137499394Y-84483128D01*
X137590606Y-84430467D01*
X137665080Y-84355993D01*
X137717741Y-84264781D01*
X137745000Y-84163048D01*
X137745000Y-84057726D01*
X137717741Y-83955993D01*
X137665080Y-83864781D01*
X137632825Y-83832526D01*
X137672195Y-83811029D01*
X137741886Y-83816013D01*
X137786234Y-83844514D01*
X138550093Y-84608373D01*
X138612990Y-84414798D01*
X138645000Y-84212704D01*
X138645000Y-84008069D01*
X138612990Y-83805969D01*
X138549754Y-83611352D01*
X138514000Y-83541181D01*
X138501104Y-83472512D01*
X138527381Y-83407772D01*
X138584487Y-83367515D01*
X138624485Y-83360887D01*
X142161516Y-83360887D01*
X142228555Y-83380572D01*
X142274310Y-83433376D01*
X142284254Y-83502534D01*
X142272001Y-83541182D01*
X142236244Y-83611356D01*
X142173009Y-83805970D01*
X142141000Y-84008070D01*
X142141000Y-84212705D01*
X142173010Y-84414806D01*
X142173010Y-84414809D01*
X142235904Y-84608375D01*
X142999765Y-83844515D01*
X143061088Y-83811030D01*
X143130780Y-83816014D01*
X143154465Y-83831236D01*
X143120920Y-83864782D01*
X143068259Y-83955994D01*
X143041000Y-84057727D01*
X143041000Y-84163049D01*
X143068259Y-84264782D01*
X143120920Y-84355994D01*
X143195394Y-84430468D01*
X143286606Y-84483129D01*
X143388339Y-84510388D01*
X143493661Y-84510388D01*
X143595394Y-84483129D01*
X143686606Y-84430468D01*
X143718859Y-84398214D01*
X143740356Y-84437582D01*
X143735372Y-84507274D01*
X143706871Y-84551621D01*
X142943011Y-85315481D01*
X143136588Y-85378378D01*
X143338683Y-85410388D01*
X143543317Y-85410388D01*
X143745417Y-85378378D01*
X143940031Y-85315143D01*
X144122349Y-85222247D01*
X144260114Y-85122155D01*
X144325921Y-85098675D01*
X144393974Y-85114500D01*
X144442669Y-85164606D01*
X144457000Y-85222473D01*
X144457000Y-90520374D01*
X144455939Y-90536560D01*
X144442093Y-90641724D01*
X144433715Y-90672991D01*
X144396259Y-90763418D01*
X144380074Y-90791451D01*
X144320491Y-90869101D01*
X144297601Y-90891991D01*
X144219951Y-90951574D01*
X144191918Y-90967759D01*
X144101491Y-91005215D01*
X144070224Y-91013593D01*
X143976398Y-91025946D01*
X143965058Y-91027439D01*
X143948874Y-91028500D01*
X142002421Y-91028500D01*
X141935382Y-91008815D01*
X141909193Y-90986259D01*
X141883928Y-90957450D01*
X141861048Y-90934570D01*
X141811336Y-90890973D01*
X141733695Y-90831396D01*
X141733690Y-90831393D01*
X141733684Y-90831388D01*
X141678697Y-90794646D01*
X141678693Y-90794643D01*
X141678680Y-90794635D01*
X141650673Y-90778467D01*
X141650663Y-90778461D01*
X141650650Y-90778454D01*
X141650636Y-90778447D01*
X141591365Y-90749219D01*
X141591357Y-90749215D01*
X141500945Y-90711766D01*
X141500934Y-90711762D01*
X141438323Y-90690508D01*
X141407054Y-90682130D01*
X141361107Y-90672991D01*
X141342204Y-90669231D01*
X141342201Y-90669230D01*
X141342198Y-90669230D01*
X141237049Y-90655387D01*
X141237043Y-90655386D01*
X141237040Y-90655386D01*
X141230883Y-90654779D01*
X141204131Y-90652144D01*
X141187942Y-90651083D01*
X141185736Y-90651010D01*
X141154874Y-90650000D01*
X141108811Y-90650000D01*
X141108810Y-90650000D01*
X141036868Y-90655145D01*
X141001934Y-90660167D01*
X140931499Y-90675487D01*
X140924336Y-90678758D01*
X140897032Y-90687574D01*
X140862266Y-90694489D01*
X140859540Y-90695032D01*
X140859530Y-90695034D01*
X140844029Y-90698117D01*
X140819840Y-90700500D01*
X140786157Y-90700500D01*
X140761965Y-90698117D01*
X140746466Y-90695034D01*
X140700492Y-90685888D01*
X140688698Y-90682934D01*
X140674928Y-90678758D01*
X140643249Y-90669148D01*
X140595796Y-90659710D01*
X140518730Y-90652121D01*
X140497189Y-90650000D01*
X140219811Y-90650000D01*
X140200391Y-90651912D01*
X140121205Y-90659710D01*
X140073753Y-90669148D01*
X140073741Y-90669151D01*
X140028316Y-90682930D01*
X140016517Y-90685886D01*
X139981850Y-90692782D01*
X139970540Y-90695032D01*
X139970530Y-90695034D01*
X139955029Y-90698117D01*
X139930840Y-90700500D01*
X139897157Y-90700500D01*
X139872965Y-90698117D01*
X139857466Y-90695034D01*
X139811492Y-90685888D01*
X139799698Y-90682934D01*
X139785928Y-90678758D01*
X139754249Y-90669148D01*
X139706796Y-90659710D01*
X139629730Y-90652121D01*
X139608189Y-90650000D01*
X139330811Y-90650000D01*
X139311391Y-90651912D01*
X139232205Y-90659710D01*
X139184753Y-90669148D01*
X139184741Y-90669151D01*
X139139316Y-90682930D01*
X139127517Y-90685886D01*
X139092850Y-90692782D01*
X139081540Y-90695032D01*
X139081530Y-90695034D01*
X139066029Y-90698117D01*
X139041840Y-90700500D01*
X139008157Y-90700500D01*
X138983965Y-90698117D01*
X138968466Y-90695034D01*
X138922492Y-90685888D01*
X138910698Y-90682934D01*
X138896928Y-90678758D01*
X138865249Y-90669148D01*
X138817796Y-90659710D01*
X138740730Y-90652121D01*
X138719189Y-90650000D01*
X138441811Y-90650000D01*
X138422391Y-90651912D01*
X138343205Y-90659710D01*
X138295753Y-90669148D01*
X138295741Y-90669151D01*
X138250316Y-90682930D01*
X138238517Y-90685886D01*
X138203850Y-90692782D01*
X138192540Y-90695032D01*
X138192530Y-90695034D01*
X138177029Y-90698117D01*
X138152840Y-90700500D01*
X138119157Y-90700500D01*
X138094965Y-90698117D01*
X138079466Y-90695034D01*
X138033492Y-90685888D01*
X138021698Y-90682934D01*
X138007928Y-90678758D01*
X137976249Y-90669148D01*
X137928796Y-90659710D01*
X137851730Y-90652121D01*
X137830189Y-90650000D01*
X137552811Y-90650000D01*
X137533391Y-90651912D01*
X137454205Y-90659710D01*
X137406753Y-90669148D01*
X137406741Y-90669151D01*
X137361316Y-90682930D01*
X137349517Y-90685886D01*
X137314850Y-90692782D01*
X137303540Y-90695032D01*
X137303530Y-90695034D01*
X137288029Y-90698117D01*
X137263840Y-90700500D01*
X137230157Y-90700500D01*
X137205965Y-90698117D01*
X137190466Y-90695034D01*
X137144492Y-90685888D01*
X137132698Y-90682934D01*
X137118928Y-90678758D01*
X137087249Y-90669148D01*
X137039796Y-90659710D01*
X136962730Y-90652121D01*
X136941189Y-90650000D01*
X136663811Y-90650000D01*
X136644391Y-90651912D01*
X136565205Y-90659710D01*
X136517753Y-90669148D01*
X136517741Y-90669151D01*
X136472316Y-90682930D01*
X136460517Y-90685886D01*
X136425850Y-90692782D01*
X136414540Y-90695032D01*
X136414530Y-90695034D01*
X136399029Y-90698117D01*
X136374840Y-90700500D01*
X136341157Y-90700500D01*
X136316965Y-90698117D01*
X136301466Y-90695034D01*
X136255492Y-90685888D01*
X136243698Y-90682934D01*
X136229928Y-90678758D01*
X136198249Y-90669148D01*
X136150796Y-90659710D01*
X136073730Y-90652121D01*
X136052189Y-90650000D01*
X135774811Y-90650000D01*
X135755391Y-90651912D01*
X135676205Y-90659710D01*
X135628753Y-90669148D01*
X135628741Y-90669151D01*
X135583316Y-90682930D01*
X135571517Y-90685886D01*
X135536850Y-90692782D01*
X135525540Y-90695032D01*
X135525530Y-90695034D01*
X135510029Y-90698117D01*
X135485840Y-90700500D01*
X135452157Y-90700500D01*
X135427965Y-90698117D01*
X135412466Y-90695034D01*
X135366492Y-90685888D01*
X135354698Y-90682934D01*
X135340928Y-90678758D01*
X135309249Y-90669148D01*
X135261796Y-90659710D01*
X135184730Y-90652121D01*
X135163189Y-90650000D01*
X135059126Y-90650000D01*
X135026059Y-90651083D01*
X135009858Y-90652145D01*
X134976957Y-90655385D01*
X134871803Y-90669229D01*
X134871801Y-90669229D01*
X134871796Y-90669230D01*
X134806952Y-90682128D01*
X134806947Y-90682129D01*
X134775692Y-90690503D01*
X134775684Y-90690505D01*
X134713076Y-90711756D01*
X134713052Y-90711765D01*
X134622666Y-90749203D01*
X134622630Y-90749220D01*
X134563324Y-90778466D01*
X134535296Y-90794649D01*
X134480325Y-90831379D01*
X134480297Y-90831400D01*
X134402666Y-90890969D01*
X134352937Y-90934582D01*
X134330082Y-90957437D01*
X134286469Y-91007166D01*
X134226887Y-91084813D01*
X134226876Y-91084828D01*
X134190149Y-91139795D01*
X134190137Y-91139814D01*
X134173960Y-91167836D01*
X134144720Y-91227131D01*
X134107266Y-91317553D01*
X134107262Y-91317564D01*
X134086011Y-91380165D01*
X134086007Y-91380179D01*
X134077633Y-91411431D01*
X134077631Y-91411438D01*
X134064731Y-91476289D01*
X134064729Y-91476299D01*
X134050885Y-91581455D01*
X134047645Y-91614357D01*
X134046583Y-91630558D01*
X134045500Y-91663639D01*
X134045500Y-97005946D01*
X134030561Y-97064952D01*
X134025012Y-97075208D01*
X134019833Y-97081519D01*
X133992961Y-97121737D01*
X133946250Y-97209129D01*
X133925648Y-97258863D01*
X133922595Y-97264508D01*
X133921131Y-97265982D01*
X133916637Y-97274392D01*
X133897923Y-97302400D01*
X133882501Y-97321191D01*
X133858693Y-97344999D01*
X133839903Y-97360420D01*
X133811885Y-97379141D01*
X133790446Y-97390600D01*
X133759328Y-97403489D01*
X133736071Y-97410545D01*
X133719340Y-97413873D01*
X133703031Y-97417117D01*
X133678841Y-97419500D01*
X133645161Y-97419500D01*
X133620968Y-97417117D01*
X133587926Y-97410544D01*
X133564669Y-97403488D01*
X133533546Y-97390597D01*
X133512111Y-97379140D01*
X133483571Y-97360071D01*
X133479503Y-97357380D01*
X133478023Y-97356411D01*
X133477803Y-97356268D01*
X133474204Y-97353933D01*
X133383601Y-97312555D01*
X133343330Y-97294163D01*
X133341879Y-97293737D01*
X133276288Y-97274477D01*
X133276290Y-97274477D01*
X133276285Y-97274476D01*
X133217206Y-97265982D01*
X133133868Y-97254000D01*
X132668455Y-97254000D01*
X132668453Y-97254000D01*
X132622332Y-97256472D01*
X132614422Y-97256896D01*
X132614405Y-97256897D01*
X132614377Y-97256900D01*
X132588089Y-97259726D01*
X132588069Y-97259729D01*
X132534676Y-97268379D01*
X132399875Y-97318649D01*
X132399864Y-97318654D01*
X132338541Y-97352135D01*
X132338536Y-97352138D01*
X132320714Y-97365474D01*
X132315615Y-97369092D01*
X132274585Y-97396678D01*
X132273609Y-97395374D01*
X132247870Y-97414641D01*
X132245254Y-97416401D01*
X132214822Y-97426026D01*
X132184911Y-97437183D01*
X132178868Y-97437398D01*
X132178637Y-97437472D01*
X132178425Y-97437414D01*
X132176065Y-97437499D01*
X132103490Y-97437499D01*
X131996048Y-97449051D01*
X131996038Y-97449053D01*
X131944527Y-97460259D01*
X131841991Y-97494386D01*
X131752603Y-97551834D01*
X131685564Y-97571519D01*
X131642230Y-97563701D01*
X131586486Y-97542910D01*
X131586485Y-97542909D01*
X131586483Y-97542909D01*
X131526873Y-97536500D01*
X131526863Y-97536500D01*
X130781129Y-97536500D01*
X130781123Y-97536501D01*
X130721516Y-97542908D01*
X130586671Y-97593202D01*
X130578886Y-97597454D01*
X130577153Y-97594280D01*
X130527698Y-97612659D01*
X130459443Y-97597725D01*
X130458497Y-97597117D01*
X130451328Y-97593202D01*
X130316486Y-97542910D01*
X130316485Y-97542909D01*
X130316483Y-97542909D01*
X130256873Y-97536500D01*
X130256863Y-97536500D01*
X129511129Y-97536500D01*
X129511123Y-97536501D01*
X129451516Y-97542908D01*
X129316671Y-97593202D01*
X129308886Y-97597454D01*
X129307153Y-97594280D01*
X129257698Y-97612659D01*
X129189443Y-97597725D01*
X129188497Y-97597117D01*
X129181328Y-97593202D01*
X129046482Y-97542908D01*
X129046483Y-97542908D01*
X128986883Y-97536501D01*
X128986881Y-97536500D01*
X128986873Y-97536500D01*
X128986865Y-97536500D01*
X128853417Y-97536500D01*
X128829228Y-97534118D01*
X128794604Y-97527231D01*
X128794601Y-97527230D01*
X128794598Y-97527230D01*
X128689449Y-97513387D01*
X128689443Y-97513386D01*
X128689440Y-97513386D01*
X128683283Y-97512779D01*
X128656531Y-97510144D01*
X128640342Y-97509083D01*
X128638136Y-97509010D01*
X128607274Y-97508000D01*
X128607260Y-97508000D01*
X128418134Y-97508000D01*
X128407504Y-97504878D01*
X128396493Y-97506097D01*
X128374574Y-97495209D01*
X128351095Y-97488315D01*
X128342205Y-97479130D01*
X128333918Y-97475014D01*
X128311687Y-97447601D01*
X128295201Y-97420009D01*
X128281381Y-97386604D01*
X128252543Y-97271748D01*
X128249428Y-97253899D01*
X128224627Y-97005946D01*
X128132993Y-96089821D01*
X128132992Y-96089818D01*
X128090000Y-95660000D01*
X126406441Y-95582415D01*
X126387694Y-95580111D01*
X126266759Y-95555782D01*
X126231389Y-95542831D01*
X126131735Y-95487940D01*
X126101884Y-95464966D01*
X126023304Y-95382680D01*
X126001733Y-95351809D01*
X125951482Y-95249724D01*
X125940174Y-95213800D01*
X125921439Y-95091874D01*
X125920000Y-95073041D01*
X125920000Y-94278213D01*
X125939685Y-94211174D01*
X125992489Y-94165419D01*
X126056600Y-94154855D01*
X126136323Y-94163000D01*
X126709676Y-94162999D01*
X126709684Y-94162998D01*
X126709687Y-94162998D01*
X126765030Y-94157344D01*
X126810753Y-94152674D01*
X126974516Y-94098408D01*
X127121350Y-94007840D01*
X127121352Y-94007838D01*
X127127013Y-94003362D01*
X127128775Y-94005591D01*
X127178694Y-93978334D01*
X127205052Y-93975500D01*
X127664501Y-93975500D01*
X127731540Y-93995185D01*
X127777295Y-94047989D01*
X127788501Y-94099500D01*
X127788501Y-94185876D01*
X127794908Y-94245483D01*
X127845202Y-94380328D01*
X127845206Y-94380335D01*
X127931452Y-94495544D01*
X127931455Y-94495547D01*
X128046664Y-94581793D01*
X128046671Y-94581797D01*
X128091618Y-94598561D01*
X128181517Y-94632091D01*
X128241127Y-94638500D01*
X128986872Y-94638499D01*
X129046483Y-94632091D01*
X129159957Y-94589767D01*
X129229646Y-94584784D01*
X129258126Y-94594735D01*
X129288635Y-94609780D01*
X129288640Y-94609782D01*
X129288644Y-94609784D01*
X129308381Y-94617959D01*
X129379062Y-94647236D01*
X129441674Y-94668490D01*
X129472941Y-94676868D01*
X129537791Y-94689768D01*
X129636870Y-94702812D01*
X129642941Y-94703612D01*
X129642957Y-94703614D01*
X129675874Y-94706856D01*
X129692059Y-94707917D01*
X129725126Y-94709000D01*
X129725140Y-94709000D01*
X131502860Y-94709000D01*
X131502874Y-94709000D01*
X131535943Y-94707917D01*
X131552127Y-94706856D01*
X131585042Y-94703614D01*
X131690208Y-94689768D01*
X131755048Y-94676871D01*
X131786310Y-94668495D01*
X131848913Y-94647246D01*
X131865375Y-94640428D01*
X131873742Y-94636874D01*
X131877805Y-94635105D01*
X131886150Y-94631382D01*
X131934031Y-94600589D01*
X131936264Y-94604353D01*
X131960208Y-94590149D01*
X132019473Y-94549006D01*
X132048946Y-94517351D01*
X132058563Y-94509018D01*
X132059610Y-94508137D01*
X132059849Y-94507904D01*
X132059856Y-94507899D01*
X132086696Y-94476921D01*
X132089593Y-94473696D01*
X132117519Y-94443705D01*
X132121967Y-94437297D01*
X132130097Y-94426830D01*
X132154075Y-94399159D01*
X132185745Y-94329803D01*
X132187619Y-94325886D01*
X132221782Y-94257645D01*
X132228280Y-94221626D01*
X132231331Y-94208718D01*
X132232887Y-94203418D01*
X132233394Y-94201797D01*
X132233521Y-94201258D01*
X132233524Y-94201252D01*
X132239353Y-94160704D01*
X132240055Y-94156370D01*
X132247331Y-94116051D01*
X132247608Y-94108262D01*
X132248788Y-94095076D01*
X132254000Y-94058836D01*
X132254000Y-92673463D01*
X132262658Y-92627940D01*
X132285299Y-92570578D01*
X132296693Y-92533366D01*
X132313930Y-92455676D01*
X132313460Y-92311797D01*
X132303291Y-92242671D01*
X132262309Y-92104758D01*
X132262309Y-92104757D01*
X132184132Y-91983975D01*
X132138200Y-91931313D01*
X132029157Y-91837447D01*
X130766800Y-91031969D01*
X130720874Y-90979314D01*
X130709500Y-90927436D01*
X130709500Y-85315480D01*
X136847011Y-85315480D01*
X137040588Y-85378377D01*
X137242683Y-85410387D01*
X137447317Y-85410387D01*
X137649411Y-85378377D01*
X137842987Y-85315480D01*
X137345001Y-84817493D01*
X137345000Y-84817493D01*
X136847011Y-85315480D01*
X130709500Y-85315480D01*
X130709500Y-83677067D01*
X130709877Y-83667404D01*
X130735342Y-83341619D01*
X130735720Y-83336451D01*
X130735860Y-83334407D01*
X130735974Y-83332607D01*
X130736182Y-83329339D01*
X130737113Y-83313453D01*
X130737597Y-83303524D01*
X130737785Y-83298690D01*
X130738071Y-83288916D01*
X130738380Y-83273095D01*
X130738451Y-83268235D01*
X130738475Y-83265814D01*
X130738500Y-83260803D01*
X130738500Y-82933204D01*
X130758185Y-82866165D01*
X130810989Y-82820410D01*
X130880147Y-82810466D01*
X130935386Y-82832886D01*
X131044445Y-82912122D01*
X131233782Y-83008595D01*
X131435870Y-83074257D01*
X131645754Y-83107500D01*
X131858246Y-83107500D01*
X132068127Y-83074257D01*
X132068130Y-83074257D01*
X132270218Y-83008594D01*
X132270220Y-83008593D01*
X132287289Y-82999895D01*
X132287290Y-82999895D01*
X131486128Y-82198733D01*
X131472264Y-82173344D01*
X131559007Y-82223425D01*
X131686174Y-82257500D01*
X131817826Y-82257500D01*
X131944993Y-82223425D01*
X132059007Y-82157599D01*
X132152099Y-82064507D01*
X132217925Y-81950493D01*
X132252000Y-81823326D01*
X132252000Y-81757499D01*
X132459106Y-81757499D01*
X132459106Y-81757501D01*
X132994395Y-82292790D01*
X132994395Y-82292789D01*
X133003093Y-82275720D01*
X133003094Y-82275718D01*
X133068757Y-82073630D01*
X133068757Y-82073627D01*
X133102000Y-81863746D01*
X133102000Y-81651253D01*
X133068757Y-81441372D01*
X133068757Y-81441369D01*
X133003094Y-81239281D01*
X133003094Y-81239280D01*
X132994396Y-81222208D01*
X132459106Y-81757499D01*
X132252000Y-81757499D01*
X132252000Y-81691674D01*
X132217925Y-81564507D01*
X132152099Y-81450493D01*
X132059007Y-81357401D01*
X131944993Y-81291575D01*
X131817826Y-81257500D01*
X131686174Y-81257500D01*
X131559007Y-81291575D01*
X131468362Y-81343908D01*
X131486128Y-81316266D01*
X132287290Y-80515103D01*
X132287289Y-80515102D01*
X132270225Y-80506408D01*
X132270213Y-80506403D01*
X132068128Y-80440742D01*
X131858246Y-80407500D01*
X131645754Y-80407500D01*
X131435872Y-80440742D01*
X131435869Y-80440742D01*
X131233782Y-80506404D01*
X131044442Y-80602879D01*
X130935385Y-80682113D01*
X130869578Y-80705593D01*
X130801525Y-80689767D01*
X130752830Y-80639661D01*
X130738500Y-80581795D01*
X130738500Y-80487640D01*
X130738500Y-80487625D01*
X130737417Y-80454560D01*
X130736356Y-80438374D01*
X130733114Y-80405454D01*
X130719268Y-80300290D01*
X130706368Y-80235441D01*
X130697990Y-80204174D01*
X130676736Y-80141562D01*
X130676727Y-80141541D01*
X130676026Y-80139677D01*
X130676088Y-80139653D01*
X130676084Y-80139641D01*
X130676466Y-80139511D01*
X130676705Y-80139421D01*
X130674869Y-80122336D01*
X130667885Y-80103607D01*
X130671213Y-80088309D01*
X130669541Y-80072742D01*
X130678490Y-80054866D01*
X130682740Y-80035335D01*
X130699429Y-80013043D01*
X130700820Y-80010265D01*
X130703892Y-80007082D01*
X130714660Y-79996315D01*
X130775985Y-79962833D01*
X130802337Y-79960000D01*
X134235664Y-79960000D01*
X134302703Y-79979685D01*
G37*
%TD.AperFunction*%
%TD*%
M02*
