%TF.GenerationSoftware,KiCad,Pcbnew,9.0.6*%
%TF.CreationDate,2025-11-23T20:43:57-05:00*%
%TF.ProjectId,5013-5v,35303133-2d35-4762-9e6b-696361645f70,rev?*%
%TF.SameCoordinates,Original*%
%TF.FileFunction,Legend,Top*%
%TF.FilePolarity,Positive*%
%FSLAX46Y46*%
G04 Gerber Fmt 4.6, Leading zero omitted, Abs format (unit mm)*
G04 Created by KiCad (PCBNEW 9.0.6) date 2025-11-23 20:43:57*
%MOMM*%
%LPD*%
G01*
G04 APERTURE LIST*
%ADD10C,0.100000*%
%ADD11C,0.150000*%
%ADD12C,0.187500*%
%ADD13C,0.254000*%
%ADD14C,0.000000*%
%ADD15C,0.200000*%
%ADD16C,0.120000*%
G04 APERTURE END LIST*
D10*
X122074074Y-116160419D02*
X121597884Y-116160419D01*
X121597884Y-116160419D02*
X121550265Y-116636609D01*
X121550265Y-116636609D02*
X121597884Y-116588990D01*
X121597884Y-116588990D02*
X121693122Y-116541371D01*
X121693122Y-116541371D02*
X121931217Y-116541371D01*
X121931217Y-116541371D02*
X122026455Y-116588990D01*
X122026455Y-116588990D02*
X122074074Y-116636609D01*
X122074074Y-116636609D02*
X122121693Y-116731847D01*
X122121693Y-116731847D02*
X122121693Y-116969942D01*
X122121693Y-116969942D02*
X122074074Y-117065180D01*
X122074074Y-117065180D02*
X122026455Y-117112800D01*
X122026455Y-117112800D02*
X121931217Y-117160419D01*
X121931217Y-117160419D02*
X121693122Y-117160419D01*
X121693122Y-117160419D02*
X121597884Y-117112800D01*
X121597884Y-117112800D02*
X121550265Y-117065180D01*
X122455027Y-116493752D02*
X122693122Y-117160419D01*
X122693122Y-117160419D02*
X122931217Y-116493752D01*
X123455027Y-117160419D02*
X123359789Y-117112800D01*
X123359789Y-117112800D02*
X123312170Y-117065180D01*
X123312170Y-117065180D02*
X123264551Y-116969942D01*
X123264551Y-116969942D02*
X123264551Y-116684228D01*
X123264551Y-116684228D02*
X123312170Y-116588990D01*
X123312170Y-116588990D02*
X123359789Y-116541371D01*
X123359789Y-116541371D02*
X123455027Y-116493752D01*
X123455027Y-116493752D02*
X123597884Y-116493752D01*
X123597884Y-116493752D02*
X123693122Y-116541371D01*
X123693122Y-116541371D02*
X123740741Y-116588990D01*
X123740741Y-116588990D02*
X123788360Y-116684228D01*
X123788360Y-116684228D02*
X123788360Y-116969942D01*
X123788360Y-116969942D02*
X123740741Y-117065180D01*
X123740741Y-117065180D02*
X123693122Y-117112800D01*
X123693122Y-117112800D02*
X123597884Y-117160419D01*
X123597884Y-117160419D02*
X123455027Y-117160419D01*
X124645503Y-116493752D02*
X124645503Y-117160419D01*
X124216932Y-116493752D02*
X124216932Y-117017561D01*
X124216932Y-117017561D02*
X124264551Y-117112800D01*
X124264551Y-117112800D02*
X124359789Y-117160419D01*
X124359789Y-117160419D02*
X124502646Y-117160419D01*
X124502646Y-117160419D02*
X124597884Y-117112800D01*
X124597884Y-117112800D02*
X124645503Y-117065180D01*
X124978837Y-116493752D02*
X125359789Y-116493752D01*
X125121694Y-116160419D02*
X125121694Y-117017561D01*
X125121694Y-117017561D02*
X125169313Y-117112800D01*
X125169313Y-117112800D02*
X125264551Y-117160419D01*
X125264551Y-117160419D02*
X125359789Y-117160419D01*
X120532533Y-109463884D02*
X120532533Y-110225789D01*
X120151580Y-109844836D02*
X120913485Y-109844836D01*
X120532533Y-111463884D02*
X120532533Y-112225789D01*
X128963884Y-79187466D02*
X129725789Y-79187466D01*
X129344836Y-79568419D02*
X129344836Y-78806514D01*
X130963884Y-79187466D02*
X131725789Y-79187466D01*
D11*
X135928741Y-116754956D02*
X135571598Y-116754956D01*
X135571598Y-116754956D02*
X135535884Y-117112099D01*
X135535884Y-117112099D02*
X135571598Y-117076384D01*
X135571598Y-117076384D02*
X135643027Y-117040670D01*
X135643027Y-117040670D02*
X135821598Y-117040670D01*
X135821598Y-117040670D02*
X135893027Y-117076384D01*
X135893027Y-117076384D02*
X135928741Y-117112099D01*
X135928741Y-117112099D02*
X135964455Y-117183527D01*
X135964455Y-117183527D02*
X135964455Y-117362099D01*
X135964455Y-117362099D02*
X135928741Y-117433527D01*
X135928741Y-117433527D02*
X135893027Y-117469242D01*
X135893027Y-117469242D02*
X135821598Y-117504956D01*
X135821598Y-117504956D02*
X135643027Y-117504956D01*
X135643027Y-117504956D02*
X135571598Y-117469242D01*
X135571598Y-117469242D02*
X135535884Y-117433527D01*
X136428741Y-116754956D02*
X136500170Y-116754956D01*
X136500170Y-116754956D02*
X136571598Y-116790670D01*
X136571598Y-116790670D02*
X136607313Y-116826384D01*
X136607313Y-116826384D02*
X136643027Y-116897813D01*
X136643027Y-116897813D02*
X136678741Y-117040670D01*
X136678741Y-117040670D02*
X136678741Y-117219242D01*
X136678741Y-117219242D02*
X136643027Y-117362099D01*
X136643027Y-117362099D02*
X136607313Y-117433527D01*
X136607313Y-117433527D02*
X136571598Y-117469242D01*
X136571598Y-117469242D02*
X136500170Y-117504956D01*
X136500170Y-117504956D02*
X136428741Y-117504956D01*
X136428741Y-117504956D02*
X136357313Y-117469242D01*
X136357313Y-117469242D02*
X136321598Y-117433527D01*
X136321598Y-117433527D02*
X136285884Y-117362099D01*
X136285884Y-117362099D02*
X136250170Y-117219242D01*
X136250170Y-117219242D02*
X136250170Y-117040670D01*
X136250170Y-117040670D02*
X136285884Y-116897813D01*
X136285884Y-116897813D02*
X136321598Y-116826384D01*
X136321598Y-116826384D02*
X136357313Y-116790670D01*
X136357313Y-116790670D02*
X136428741Y-116754956D01*
X137393027Y-117504956D02*
X136964456Y-117504956D01*
X137178741Y-117504956D02*
X137178741Y-116754956D01*
X137178741Y-116754956D02*
X137107313Y-116862099D01*
X137107313Y-116862099D02*
X137035884Y-116933527D01*
X137035884Y-116933527D02*
X136964456Y-116969242D01*
X137643027Y-116754956D02*
X138107313Y-116754956D01*
X138107313Y-116754956D02*
X137857313Y-117040670D01*
X137857313Y-117040670D02*
X137964456Y-117040670D01*
X137964456Y-117040670D02*
X138035885Y-117076384D01*
X138035885Y-117076384D02*
X138071599Y-117112099D01*
X138071599Y-117112099D02*
X138107313Y-117183527D01*
X138107313Y-117183527D02*
X138107313Y-117362099D01*
X138107313Y-117362099D02*
X138071599Y-117433527D01*
X138071599Y-117433527D02*
X138035885Y-117469242D01*
X138035885Y-117469242D02*
X137964456Y-117504956D01*
X137964456Y-117504956D02*
X137750170Y-117504956D01*
X137750170Y-117504956D02*
X137678742Y-117469242D01*
X137678742Y-117469242D02*
X137643027Y-117433527D01*
X138428742Y-117219242D02*
X139000171Y-117219242D01*
X139714456Y-116754956D02*
X139357313Y-116754956D01*
X139357313Y-116754956D02*
X139321599Y-117112099D01*
X139321599Y-117112099D02*
X139357313Y-117076384D01*
X139357313Y-117076384D02*
X139428742Y-117040670D01*
X139428742Y-117040670D02*
X139607313Y-117040670D01*
X139607313Y-117040670D02*
X139678742Y-117076384D01*
X139678742Y-117076384D02*
X139714456Y-117112099D01*
X139714456Y-117112099D02*
X139750170Y-117183527D01*
X139750170Y-117183527D02*
X139750170Y-117362099D01*
X139750170Y-117362099D02*
X139714456Y-117433527D01*
X139714456Y-117433527D02*
X139678742Y-117469242D01*
X139678742Y-117469242D02*
X139607313Y-117504956D01*
X139607313Y-117504956D02*
X139428742Y-117504956D01*
X139428742Y-117504956D02*
X139357313Y-117469242D01*
X139357313Y-117469242D02*
X139321599Y-117433527D01*
X140000170Y-117004956D02*
X140178742Y-117504956D01*
X140178742Y-117504956D02*
X140357313Y-117004956D01*
X141214457Y-117004956D02*
X141214457Y-117504956D01*
X141214457Y-117076384D02*
X141250171Y-117040670D01*
X141250171Y-117040670D02*
X141321600Y-117004956D01*
X141321600Y-117004956D02*
X141428743Y-117004956D01*
X141428743Y-117004956D02*
X141500171Y-117040670D01*
X141500171Y-117040670D02*
X141535886Y-117112099D01*
X141535886Y-117112099D02*
X141535886Y-117504956D01*
X142000171Y-117504956D02*
X141928742Y-117469242D01*
X141928742Y-117469242D02*
X141893028Y-117433527D01*
X141893028Y-117433527D02*
X141857314Y-117362099D01*
X141857314Y-117362099D02*
X141857314Y-117147813D01*
X141857314Y-117147813D02*
X141893028Y-117076384D01*
X141893028Y-117076384D02*
X141928742Y-117040670D01*
X141928742Y-117040670D02*
X142000171Y-117004956D01*
X142000171Y-117004956D02*
X142107314Y-117004956D01*
X142107314Y-117004956D02*
X142178742Y-117040670D01*
X142178742Y-117040670D02*
X142214457Y-117076384D01*
X142214457Y-117076384D02*
X142250171Y-117147813D01*
X142250171Y-117147813D02*
X142250171Y-117362099D01*
X142250171Y-117362099D02*
X142214457Y-117433527D01*
X142214457Y-117433527D02*
X142178742Y-117469242D01*
X142178742Y-117469242D02*
X142107314Y-117504956D01*
X142107314Y-117504956D02*
X142000171Y-117504956D01*
X142500170Y-117004956D02*
X142678742Y-117504956D01*
X142678742Y-117504956D02*
X142857313Y-117004956D01*
X143107314Y-116826384D02*
X143143028Y-116790670D01*
X143143028Y-116790670D02*
X143214457Y-116754956D01*
X143214457Y-116754956D02*
X143393028Y-116754956D01*
X143393028Y-116754956D02*
X143464457Y-116790670D01*
X143464457Y-116790670D02*
X143500171Y-116826384D01*
X143500171Y-116826384D02*
X143535885Y-116897813D01*
X143535885Y-116897813D02*
X143535885Y-116969242D01*
X143535885Y-116969242D02*
X143500171Y-117076384D01*
X143500171Y-117076384D02*
X143071599Y-117504956D01*
X143071599Y-117504956D02*
X143535885Y-117504956D01*
X144214457Y-116754956D02*
X143857314Y-116754956D01*
X143857314Y-116754956D02*
X143821600Y-117112099D01*
X143821600Y-117112099D02*
X143857314Y-117076384D01*
X143857314Y-117076384D02*
X143928743Y-117040670D01*
X143928743Y-117040670D02*
X144107314Y-117040670D01*
X144107314Y-117040670D02*
X144178743Y-117076384D01*
X144178743Y-117076384D02*
X144214457Y-117112099D01*
X144214457Y-117112099D02*
X144250171Y-117183527D01*
X144250171Y-117183527D02*
X144250171Y-117362099D01*
X144250171Y-117362099D02*
X144214457Y-117433527D01*
X144214457Y-117433527D02*
X144178743Y-117469242D01*
X144178743Y-117469242D02*
X144107314Y-117504956D01*
X144107314Y-117504956D02*
X143928743Y-117504956D01*
X143928743Y-117504956D02*
X143857314Y-117469242D01*
X143857314Y-117469242D02*
X143821600Y-117433527D01*
X145143029Y-117504956D02*
X145143029Y-117004956D01*
X145143029Y-117147813D02*
X145178743Y-117076384D01*
X145178743Y-117076384D02*
X145214458Y-117040670D01*
X145214458Y-117040670D02*
X145285886Y-117004956D01*
X145285886Y-117004956D02*
X145357315Y-117004956D01*
X145893029Y-117469242D02*
X145821601Y-117504956D01*
X145821601Y-117504956D02*
X145678744Y-117504956D01*
X145678744Y-117504956D02*
X145607315Y-117469242D01*
X145607315Y-117469242D02*
X145571601Y-117397813D01*
X145571601Y-117397813D02*
X145571601Y-117112099D01*
X145571601Y-117112099D02*
X145607315Y-117040670D01*
X145607315Y-117040670D02*
X145678744Y-117004956D01*
X145678744Y-117004956D02*
X145821601Y-117004956D01*
X145821601Y-117004956D02*
X145893029Y-117040670D01*
X145893029Y-117040670D02*
X145928744Y-117112099D01*
X145928744Y-117112099D02*
X145928744Y-117183527D01*
X145928744Y-117183527D02*
X145571601Y-117254956D01*
X146178743Y-117004956D02*
X146357315Y-117504956D01*
X146357315Y-117504956D02*
X146535886Y-117004956D01*
X147214458Y-117504956D02*
X146785887Y-117504956D01*
X147000172Y-117504956D02*
X147000172Y-116754956D01*
X147000172Y-116754956D02*
X146928744Y-116862099D01*
X146928744Y-116862099D02*
X146857315Y-116933527D01*
X146857315Y-116933527D02*
X146785887Y-116969242D01*
X141928745Y-117926700D02*
X141285888Y-118890985D01*
X142714459Y-117926700D02*
X142071602Y-118890985D01*
X142964459Y-118712414D02*
X142964459Y-117962414D01*
X143035888Y-118426700D02*
X143250173Y-118712414D01*
X143250173Y-118212414D02*
X142964459Y-118498128D01*
X143857316Y-118676700D02*
X143785888Y-118712414D01*
X143785888Y-118712414D02*
X143643031Y-118712414D01*
X143643031Y-118712414D02*
X143571602Y-118676700D01*
X143571602Y-118676700D02*
X143535888Y-118605271D01*
X143535888Y-118605271D02*
X143535888Y-118319557D01*
X143535888Y-118319557D02*
X143571602Y-118248128D01*
X143571602Y-118248128D02*
X143643031Y-118212414D01*
X143643031Y-118212414D02*
X143785888Y-118212414D01*
X143785888Y-118212414D02*
X143857316Y-118248128D01*
X143857316Y-118248128D02*
X143893031Y-118319557D01*
X143893031Y-118319557D02*
X143893031Y-118390985D01*
X143893031Y-118390985D02*
X143535888Y-118462414D01*
X144143030Y-118212414D02*
X144321602Y-118712414D01*
X144500173Y-118212414D02*
X144321602Y-118712414D01*
X144321602Y-118712414D02*
X144250173Y-118890985D01*
X144250173Y-118890985D02*
X144214459Y-118926700D01*
X144214459Y-118926700D02*
X144143030Y-118962414D01*
X145107317Y-118212414D02*
X145107317Y-118712414D01*
X144785888Y-118212414D02*
X144785888Y-118605271D01*
X144785888Y-118605271D02*
X144821602Y-118676700D01*
X144821602Y-118676700D02*
X144893031Y-118712414D01*
X144893031Y-118712414D02*
X145000174Y-118712414D01*
X145000174Y-118712414D02*
X145071602Y-118676700D01*
X145071602Y-118676700D02*
X145107317Y-118640985D01*
X145785888Y-118712414D02*
X145785888Y-117962414D01*
X145785888Y-118676700D02*
X145714459Y-118712414D01*
X145714459Y-118712414D02*
X145571602Y-118712414D01*
X145571602Y-118712414D02*
X145500173Y-118676700D01*
X145500173Y-118676700D02*
X145464459Y-118640985D01*
X145464459Y-118640985D02*
X145428745Y-118569557D01*
X145428745Y-118569557D02*
X145428745Y-118355271D01*
X145428745Y-118355271D02*
X145464459Y-118283842D01*
X145464459Y-118283842D02*
X145500173Y-118248128D01*
X145500173Y-118248128D02*
X145571602Y-118212414D01*
X145571602Y-118212414D02*
X145714459Y-118212414D01*
X145714459Y-118212414D02*
X145785888Y-118248128D01*
X146143030Y-118712414D02*
X146143030Y-118212414D01*
X146143030Y-117962414D02*
X146107316Y-117998128D01*
X146107316Y-117998128D02*
X146143030Y-118033842D01*
X146143030Y-118033842D02*
X146178744Y-117998128D01*
X146178744Y-117998128D02*
X146143030Y-117962414D01*
X146143030Y-117962414D02*
X146143030Y-118033842D01*
X146393030Y-118212414D02*
X146678744Y-118212414D01*
X146500173Y-117962414D02*
X146500173Y-118605271D01*
X146500173Y-118605271D02*
X146535887Y-118676700D01*
X146535887Y-118676700D02*
X146607316Y-118712414D01*
X146607316Y-118712414D02*
X146678744Y-118712414D01*
X146893030Y-118676700D02*
X146964458Y-118712414D01*
X146964458Y-118712414D02*
X147107315Y-118712414D01*
X147107315Y-118712414D02*
X147178744Y-118676700D01*
X147178744Y-118676700D02*
X147214458Y-118605271D01*
X147214458Y-118605271D02*
X147214458Y-118569557D01*
X147214458Y-118569557D02*
X147178744Y-118498128D01*
X147178744Y-118498128D02*
X147107315Y-118462414D01*
X147107315Y-118462414D02*
X147000173Y-118462414D01*
X147000173Y-118462414D02*
X146928744Y-118426700D01*
X146928744Y-118426700D02*
X146893030Y-118355271D01*
X146893030Y-118355271D02*
X146893030Y-118319557D01*
X146893030Y-118319557D02*
X146928744Y-118248128D01*
X146928744Y-118248128D02*
X147000173Y-118212414D01*
X147000173Y-118212414D02*
X147107315Y-118212414D01*
X147107315Y-118212414D02*
X147178744Y-118248128D01*
X125558819Y-94769238D02*
X125082628Y-95102571D01*
X125558819Y-95340666D02*
X124558819Y-95340666D01*
X124558819Y-95340666D02*
X124558819Y-94959714D01*
X124558819Y-94959714D02*
X124606438Y-94864476D01*
X124606438Y-94864476D02*
X124654057Y-94816857D01*
X124654057Y-94816857D02*
X124749295Y-94769238D01*
X124749295Y-94769238D02*
X124892152Y-94769238D01*
X124892152Y-94769238D02*
X124987390Y-94816857D01*
X124987390Y-94816857D02*
X125035009Y-94864476D01*
X125035009Y-94864476D02*
X125082628Y-94959714D01*
X125082628Y-94959714D02*
X125082628Y-95340666D01*
X125558819Y-94197809D02*
X125511200Y-94293047D01*
X125511200Y-94293047D02*
X125463580Y-94340666D01*
X125463580Y-94340666D02*
X125368342Y-94388285D01*
X125368342Y-94388285D02*
X125082628Y-94388285D01*
X125082628Y-94388285D02*
X124987390Y-94340666D01*
X124987390Y-94340666D02*
X124939771Y-94293047D01*
X124939771Y-94293047D02*
X124892152Y-94197809D01*
X124892152Y-94197809D02*
X124892152Y-94054952D01*
X124892152Y-94054952D02*
X124939771Y-93959714D01*
X124939771Y-93959714D02*
X124987390Y-93912095D01*
X124987390Y-93912095D02*
X125082628Y-93864476D01*
X125082628Y-93864476D02*
X125368342Y-93864476D01*
X125368342Y-93864476D02*
X125463580Y-93912095D01*
X125463580Y-93912095D02*
X125511200Y-93959714D01*
X125511200Y-93959714D02*
X125558819Y-94054952D01*
X125558819Y-94054952D02*
X125558819Y-94197809D01*
X124892152Y-93435904D02*
X125558819Y-93435904D01*
X124987390Y-93435904D02*
X124939771Y-93388285D01*
X124939771Y-93388285D02*
X124892152Y-93293047D01*
X124892152Y-93293047D02*
X124892152Y-93150190D01*
X124892152Y-93150190D02*
X124939771Y-93054952D01*
X124939771Y-93054952D02*
X125035009Y-93007333D01*
X125035009Y-93007333D02*
X125558819Y-93007333D01*
X128287047Y-114629080D02*
X128239428Y-114676700D01*
X128239428Y-114676700D02*
X128096571Y-114724319D01*
X128096571Y-114724319D02*
X128001333Y-114724319D01*
X128001333Y-114724319D02*
X127858476Y-114676700D01*
X127858476Y-114676700D02*
X127763238Y-114581461D01*
X127763238Y-114581461D02*
X127715619Y-114486223D01*
X127715619Y-114486223D02*
X127668000Y-114295747D01*
X127668000Y-114295747D02*
X127668000Y-114152890D01*
X127668000Y-114152890D02*
X127715619Y-113962414D01*
X127715619Y-113962414D02*
X127763238Y-113867176D01*
X127763238Y-113867176D02*
X127858476Y-113771938D01*
X127858476Y-113771938D02*
X128001333Y-113724319D01*
X128001333Y-113724319D02*
X128096571Y-113724319D01*
X128096571Y-113724319D02*
X128239428Y-113771938D01*
X128239428Y-113771938D02*
X128287047Y-113819557D01*
X128858476Y-114724319D02*
X128763238Y-114676700D01*
X128763238Y-114676700D02*
X128715619Y-114629080D01*
X128715619Y-114629080D02*
X128668000Y-114533842D01*
X128668000Y-114533842D02*
X128668000Y-114248128D01*
X128668000Y-114248128D02*
X128715619Y-114152890D01*
X128715619Y-114152890D02*
X128763238Y-114105271D01*
X128763238Y-114105271D02*
X128858476Y-114057652D01*
X128858476Y-114057652D02*
X129001333Y-114057652D01*
X129001333Y-114057652D02*
X129096571Y-114105271D01*
X129096571Y-114105271D02*
X129144190Y-114152890D01*
X129144190Y-114152890D02*
X129191809Y-114248128D01*
X129191809Y-114248128D02*
X129191809Y-114533842D01*
X129191809Y-114533842D02*
X129144190Y-114629080D01*
X129144190Y-114629080D02*
X129096571Y-114676700D01*
X129096571Y-114676700D02*
X129001333Y-114724319D01*
X129001333Y-114724319D02*
X128858476Y-114724319D01*
X130048952Y-114057652D02*
X130048952Y-114724319D01*
X129620381Y-114057652D02*
X129620381Y-114581461D01*
X129620381Y-114581461D02*
X129668000Y-114676700D01*
X129668000Y-114676700D02*
X129763238Y-114724319D01*
X129763238Y-114724319D02*
X129906095Y-114724319D01*
X129906095Y-114724319D02*
X130001333Y-114676700D01*
X130001333Y-114676700D02*
X130048952Y-114629080D01*
X130382286Y-114057652D02*
X130763238Y-114057652D01*
X130525143Y-113724319D02*
X130525143Y-114581461D01*
X130525143Y-114581461D02*
X130572762Y-114676700D01*
X130572762Y-114676700D02*
X130668000Y-114724319D01*
X130668000Y-114724319D02*
X130763238Y-114724319D01*
X132924819Y-107382000D02*
X132448628Y-107715333D01*
X132924819Y-107953428D02*
X131924819Y-107953428D01*
X131924819Y-107953428D02*
X131924819Y-107572476D01*
X131924819Y-107572476D02*
X131972438Y-107477238D01*
X131972438Y-107477238D02*
X132020057Y-107429619D01*
X132020057Y-107429619D02*
X132115295Y-107382000D01*
X132115295Y-107382000D02*
X132258152Y-107382000D01*
X132258152Y-107382000D02*
X132353390Y-107429619D01*
X132353390Y-107429619D02*
X132401009Y-107477238D01*
X132401009Y-107477238D02*
X132448628Y-107572476D01*
X132448628Y-107572476D02*
X132448628Y-107953428D01*
X132924819Y-106953428D02*
X132258152Y-106953428D01*
X132448628Y-106953428D02*
X132353390Y-106905809D01*
X132353390Y-106905809D02*
X132305771Y-106858190D01*
X132305771Y-106858190D02*
X132258152Y-106762952D01*
X132258152Y-106762952D02*
X132258152Y-106667714D01*
X121689952Y-97355309D02*
X122689952Y-97355309D01*
X121737571Y-97355309D02*
X121689952Y-97260071D01*
X121689952Y-97260071D02*
X121689952Y-97069595D01*
X121689952Y-97069595D02*
X121737571Y-96974357D01*
X121737571Y-96974357D02*
X121785190Y-96926738D01*
X121785190Y-96926738D02*
X121880428Y-96879119D01*
X121880428Y-96879119D02*
X122166142Y-96879119D01*
X122166142Y-96879119D02*
X122261380Y-96926738D01*
X122261380Y-96926738D02*
X122309000Y-96974357D01*
X122309000Y-96974357D02*
X122356619Y-97069595D01*
X122356619Y-97069595D02*
X122356619Y-97260071D01*
X122356619Y-97260071D02*
X122309000Y-97355309D01*
X121689952Y-96021976D02*
X122499476Y-96021976D01*
X122499476Y-96021976D02*
X122594714Y-96069595D01*
X122594714Y-96069595D02*
X122642333Y-96117214D01*
X122642333Y-96117214D02*
X122689952Y-96212452D01*
X122689952Y-96212452D02*
X122689952Y-96355309D01*
X122689952Y-96355309D02*
X122642333Y-96450547D01*
X122309000Y-96021976D02*
X122356619Y-96117214D01*
X122356619Y-96117214D02*
X122356619Y-96307690D01*
X122356619Y-96307690D02*
X122309000Y-96402928D01*
X122309000Y-96402928D02*
X122261380Y-96450547D01*
X122261380Y-96450547D02*
X122166142Y-96498166D01*
X122166142Y-96498166D02*
X121880428Y-96498166D01*
X121880428Y-96498166D02*
X121785190Y-96450547D01*
X121785190Y-96450547D02*
X121737571Y-96402928D01*
X121737571Y-96402928D02*
X121689952Y-96307690D01*
X121689952Y-96307690D02*
X121689952Y-96117214D01*
X121689952Y-96117214D02*
X121737571Y-96021976D01*
X122356619Y-95402928D02*
X122309000Y-95498166D01*
X122309000Y-95498166D02*
X122261380Y-95545785D01*
X122261380Y-95545785D02*
X122166142Y-95593404D01*
X122166142Y-95593404D02*
X121880428Y-95593404D01*
X121880428Y-95593404D02*
X121785190Y-95545785D01*
X121785190Y-95545785D02*
X121737571Y-95498166D01*
X121737571Y-95498166D02*
X121689952Y-95402928D01*
X121689952Y-95402928D02*
X121689952Y-95260071D01*
X121689952Y-95260071D02*
X121737571Y-95164833D01*
X121737571Y-95164833D02*
X121785190Y-95117214D01*
X121785190Y-95117214D02*
X121880428Y-95069595D01*
X121880428Y-95069595D02*
X122166142Y-95069595D01*
X122166142Y-95069595D02*
X122261380Y-95117214D01*
X122261380Y-95117214D02*
X122309000Y-95164833D01*
X122309000Y-95164833D02*
X122356619Y-95260071D01*
X122356619Y-95260071D02*
X122356619Y-95402928D01*
X122356619Y-94498166D02*
X122309000Y-94593404D01*
X122309000Y-94593404D02*
X122261380Y-94641023D01*
X122261380Y-94641023D02*
X122166142Y-94688642D01*
X122166142Y-94688642D02*
X121880428Y-94688642D01*
X121880428Y-94688642D02*
X121785190Y-94641023D01*
X121785190Y-94641023D02*
X121737571Y-94593404D01*
X121737571Y-94593404D02*
X121689952Y-94498166D01*
X121689952Y-94498166D02*
X121689952Y-94355309D01*
X121689952Y-94355309D02*
X121737571Y-94260071D01*
X121737571Y-94260071D02*
X121785190Y-94212452D01*
X121785190Y-94212452D02*
X121880428Y-94164833D01*
X121880428Y-94164833D02*
X122166142Y-94164833D01*
X122166142Y-94164833D02*
X122261380Y-94212452D01*
X122261380Y-94212452D02*
X122309000Y-94260071D01*
X122309000Y-94260071D02*
X122356619Y-94355309D01*
X122356619Y-94355309D02*
X122356619Y-94498166D01*
X122356619Y-93307690D02*
X121356619Y-93307690D01*
X122309000Y-93307690D02*
X122356619Y-93402928D01*
X122356619Y-93402928D02*
X122356619Y-93593404D01*
X122356619Y-93593404D02*
X122309000Y-93688642D01*
X122309000Y-93688642D02*
X122261380Y-93736261D01*
X122261380Y-93736261D02*
X122166142Y-93783880D01*
X122166142Y-93783880D02*
X121880428Y-93783880D01*
X121880428Y-93783880D02*
X121785190Y-93736261D01*
X121785190Y-93736261D02*
X121737571Y-93688642D01*
X121737571Y-93688642D02*
X121689952Y-93593404D01*
X121689952Y-93593404D02*
X121689952Y-93402928D01*
X121689952Y-93402928D02*
X121737571Y-93307690D01*
X141719580Y-80116666D02*
X141767200Y-80164285D01*
X141767200Y-80164285D02*
X141814819Y-80307142D01*
X141814819Y-80307142D02*
X141814819Y-80402380D01*
X141814819Y-80402380D02*
X141767200Y-80545237D01*
X141767200Y-80545237D02*
X141671961Y-80640475D01*
X141671961Y-80640475D02*
X141576723Y-80688094D01*
X141576723Y-80688094D02*
X141386247Y-80735713D01*
X141386247Y-80735713D02*
X141243390Y-80735713D01*
X141243390Y-80735713D02*
X141052914Y-80688094D01*
X141052914Y-80688094D02*
X140957676Y-80640475D01*
X140957676Y-80640475D02*
X140862438Y-80545237D01*
X140862438Y-80545237D02*
X140814819Y-80402380D01*
X140814819Y-80402380D02*
X140814819Y-80307142D01*
X140814819Y-80307142D02*
X140862438Y-80164285D01*
X140862438Y-80164285D02*
X140910057Y-80116666D01*
X141814819Y-79640475D02*
X141814819Y-79449999D01*
X141814819Y-79449999D02*
X141767200Y-79354761D01*
X141767200Y-79354761D02*
X141719580Y-79307142D01*
X141719580Y-79307142D02*
X141576723Y-79211904D01*
X141576723Y-79211904D02*
X141386247Y-79164285D01*
X141386247Y-79164285D02*
X141005295Y-79164285D01*
X141005295Y-79164285D02*
X140910057Y-79211904D01*
X140910057Y-79211904D02*
X140862438Y-79259523D01*
X140862438Y-79259523D02*
X140814819Y-79354761D01*
X140814819Y-79354761D02*
X140814819Y-79545237D01*
X140814819Y-79545237D02*
X140862438Y-79640475D01*
X140862438Y-79640475D02*
X140910057Y-79688094D01*
X140910057Y-79688094D02*
X141005295Y-79735713D01*
X141005295Y-79735713D02*
X141243390Y-79735713D01*
X141243390Y-79735713D02*
X141338628Y-79688094D01*
X141338628Y-79688094D02*
X141386247Y-79640475D01*
X141386247Y-79640475D02*
X141433866Y-79545237D01*
X141433866Y-79545237D02*
X141433866Y-79354761D01*
X141433866Y-79354761D02*
X141386247Y-79259523D01*
X141386247Y-79259523D02*
X141338628Y-79211904D01*
X141338628Y-79211904D02*
X141243390Y-79164285D01*
D12*
X128902286Y-76848178D02*
X129402286Y-78348178D01*
X129402286Y-78348178D02*
X129902286Y-76848178D01*
X130402285Y-78348178D02*
X130402285Y-77348178D01*
X130402285Y-76848178D02*
X130330857Y-76919607D01*
X130330857Y-76919607D02*
X130402285Y-76991035D01*
X130402285Y-76991035D02*
X130473714Y-76919607D01*
X130473714Y-76919607D02*
X130402285Y-76848178D01*
X130402285Y-76848178D02*
X130402285Y-76991035D01*
X131116571Y-77348178D02*
X131116571Y-78348178D01*
X131116571Y-77491035D02*
X131188000Y-77419607D01*
X131188000Y-77419607D02*
X131330857Y-77348178D01*
X131330857Y-77348178D02*
X131545143Y-77348178D01*
X131545143Y-77348178D02*
X131688000Y-77419607D01*
X131688000Y-77419607D02*
X131759429Y-77562464D01*
X131759429Y-77562464D02*
X131759429Y-78348178D01*
X118192178Y-112969713D02*
X119692178Y-112469713D01*
X119692178Y-112469713D02*
X118192178Y-111969713D01*
X119692178Y-111255428D02*
X119620750Y-111398285D01*
X119620750Y-111398285D02*
X119549321Y-111469714D01*
X119549321Y-111469714D02*
X119406464Y-111541142D01*
X119406464Y-111541142D02*
X118977892Y-111541142D01*
X118977892Y-111541142D02*
X118835035Y-111469714D01*
X118835035Y-111469714D02*
X118763607Y-111398285D01*
X118763607Y-111398285D02*
X118692178Y-111255428D01*
X118692178Y-111255428D02*
X118692178Y-111041142D01*
X118692178Y-111041142D02*
X118763607Y-110898285D01*
X118763607Y-110898285D02*
X118835035Y-110826857D01*
X118835035Y-110826857D02*
X118977892Y-110755428D01*
X118977892Y-110755428D02*
X119406464Y-110755428D01*
X119406464Y-110755428D02*
X119549321Y-110826857D01*
X119549321Y-110826857D02*
X119620750Y-110898285D01*
X119620750Y-110898285D02*
X119692178Y-111041142D01*
X119692178Y-111041142D02*
X119692178Y-111255428D01*
X118692178Y-109469714D02*
X119692178Y-109469714D01*
X118692178Y-110112571D02*
X119477892Y-110112571D01*
X119477892Y-110112571D02*
X119620750Y-110041142D01*
X119620750Y-110041142D02*
X119692178Y-109898285D01*
X119692178Y-109898285D02*
X119692178Y-109683999D01*
X119692178Y-109683999D02*
X119620750Y-109541142D01*
X119620750Y-109541142D02*
X119549321Y-109469714D01*
X118692178Y-108969713D02*
X118692178Y-108398285D01*
X118192178Y-108755428D02*
X119477892Y-108755428D01*
X119477892Y-108755428D02*
X119620750Y-108683999D01*
X119620750Y-108683999D02*
X119692178Y-108541142D01*
X119692178Y-108541142D02*
X119692178Y-108398285D01*
D13*
X137262618Y-89174318D02*
X137262618Y-87904318D01*
X137262618Y-87904318D02*
X137564999Y-87904318D01*
X137564999Y-87904318D02*
X137746428Y-87964794D01*
X137746428Y-87964794D02*
X137867380Y-88085746D01*
X137867380Y-88085746D02*
X137927857Y-88206699D01*
X137927857Y-88206699D02*
X137988333Y-88448603D01*
X137988333Y-88448603D02*
X137988333Y-88630032D01*
X137988333Y-88630032D02*
X137927857Y-88871937D01*
X137927857Y-88871937D02*
X137867380Y-88992889D01*
X137867380Y-88992889D02*
X137746428Y-89113842D01*
X137746428Y-89113842D02*
X137564999Y-89174318D01*
X137564999Y-89174318D02*
X137262618Y-89174318D01*
X139197857Y-89174318D02*
X138472142Y-89174318D01*
X138834999Y-89174318D02*
X138834999Y-87904318D01*
X138834999Y-87904318D02*
X138714047Y-88085746D01*
X138714047Y-88085746D02*
X138593095Y-88206699D01*
X138593095Y-88206699D02*
X138472142Y-88267175D01*
D11*
X128115080Y-88458952D02*
X128162700Y-88506571D01*
X128162700Y-88506571D02*
X128210319Y-88649428D01*
X128210319Y-88649428D02*
X128210319Y-88744666D01*
X128210319Y-88744666D02*
X128162700Y-88887523D01*
X128162700Y-88887523D02*
X128067461Y-88982761D01*
X128067461Y-88982761D02*
X127972223Y-89030380D01*
X127972223Y-89030380D02*
X127781747Y-89077999D01*
X127781747Y-89077999D02*
X127638890Y-89077999D01*
X127638890Y-89077999D02*
X127448414Y-89030380D01*
X127448414Y-89030380D02*
X127353176Y-88982761D01*
X127353176Y-88982761D02*
X127257938Y-88887523D01*
X127257938Y-88887523D02*
X127210319Y-88744666D01*
X127210319Y-88744666D02*
X127210319Y-88649428D01*
X127210319Y-88649428D02*
X127257938Y-88506571D01*
X127257938Y-88506571D02*
X127305557Y-88458952D01*
X128210319Y-88030380D02*
X127543652Y-88030380D01*
X127210319Y-88030380D02*
X127257938Y-88077999D01*
X127257938Y-88077999D02*
X127305557Y-88030380D01*
X127305557Y-88030380D02*
X127257938Y-87982761D01*
X127257938Y-87982761D02*
X127210319Y-88030380D01*
X127210319Y-88030380D02*
X127305557Y-88030380D01*
X127543652Y-87554190D02*
X128210319Y-87554190D01*
X127638890Y-87554190D02*
X127591271Y-87506571D01*
X127591271Y-87506571D02*
X127543652Y-87411333D01*
X127543652Y-87411333D02*
X127543652Y-87268476D01*
X127543652Y-87268476D02*
X127591271Y-87173238D01*
X127591271Y-87173238D02*
X127686509Y-87125619D01*
X127686509Y-87125619D02*
X128210319Y-87125619D01*
X146894819Y-91292666D02*
X146418628Y-91625999D01*
X146894819Y-91864094D02*
X145894819Y-91864094D01*
X145894819Y-91864094D02*
X145894819Y-91483142D01*
X145894819Y-91483142D02*
X145942438Y-91387904D01*
X145942438Y-91387904D02*
X145990057Y-91340285D01*
X145990057Y-91340285D02*
X146085295Y-91292666D01*
X146085295Y-91292666D02*
X146228152Y-91292666D01*
X146228152Y-91292666D02*
X146323390Y-91340285D01*
X146323390Y-91340285D02*
X146371009Y-91387904D01*
X146371009Y-91387904D02*
X146418628Y-91483142D01*
X146418628Y-91483142D02*
X146418628Y-91864094D01*
X145894819Y-90435523D02*
X145894819Y-90625999D01*
X145894819Y-90625999D02*
X145942438Y-90721237D01*
X145942438Y-90721237D02*
X145990057Y-90768856D01*
X145990057Y-90768856D02*
X146132914Y-90864094D01*
X146132914Y-90864094D02*
X146323390Y-90911713D01*
X146323390Y-90911713D02*
X146704342Y-90911713D01*
X146704342Y-90911713D02*
X146799580Y-90864094D01*
X146799580Y-90864094D02*
X146847200Y-90816475D01*
X146847200Y-90816475D02*
X146894819Y-90721237D01*
X146894819Y-90721237D02*
X146894819Y-90530761D01*
X146894819Y-90530761D02*
X146847200Y-90435523D01*
X146847200Y-90435523D02*
X146799580Y-90387904D01*
X146799580Y-90387904D02*
X146704342Y-90340285D01*
X146704342Y-90340285D02*
X146466247Y-90340285D01*
X146466247Y-90340285D02*
X146371009Y-90387904D01*
X146371009Y-90387904D02*
X146323390Y-90435523D01*
X146323390Y-90435523D02*
X146275771Y-90530761D01*
X146275771Y-90530761D02*
X146275771Y-90721237D01*
X146275771Y-90721237D02*
X146323390Y-90816475D01*
X146323390Y-90816475D02*
X146371009Y-90864094D01*
X146371009Y-90864094D02*
X146466247Y-90911713D01*
X125353819Y-99118952D02*
X124877628Y-99452285D01*
X125353819Y-99690380D02*
X124353819Y-99690380D01*
X124353819Y-99690380D02*
X124353819Y-99309428D01*
X124353819Y-99309428D02*
X124401438Y-99214190D01*
X124401438Y-99214190D02*
X124449057Y-99166571D01*
X124449057Y-99166571D02*
X124544295Y-99118952D01*
X124544295Y-99118952D02*
X124687152Y-99118952D01*
X124687152Y-99118952D02*
X124782390Y-99166571D01*
X124782390Y-99166571D02*
X124830009Y-99214190D01*
X124830009Y-99214190D02*
X124877628Y-99309428D01*
X124877628Y-99309428D02*
X124877628Y-99690380D01*
X124687152Y-98833237D02*
X124687152Y-98452285D01*
X125353819Y-98690380D02*
X124496676Y-98690380D01*
X124496676Y-98690380D02*
X124401438Y-98642761D01*
X124401438Y-98642761D02*
X124353819Y-98547523D01*
X124353819Y-98547523D02*
X124353819Y-98452285D01*
X125353819Y-98118951D02*
X124353819Y-98118951D01*
X124734771Y-98118951D02*
X124687152Y-98023713D01*
X124687152Y-98023713D02*
X124687152Y-97833237D01*
X124687152Y-97833237D02*
X124734771Y-97737999D01*
X124734771Y-97737999D02*
X124782390Y-97690380D01*
X124782390Y-97690380D02*
X124877628Y-97642761D01*
X124877628Y-97642761D02*
X125163342Y-97642761D01*
X125163342Y-97642761D02*
X125258580Y-97690380D01*
X125258580Y-97690380D02*
X125306200Y-97737999D01*
X125306200Y-97737999D02*
X125353819Y-97833237D01*
X125353819Y-97833237D02*
X125353819Y-98023713D01*
X125353819Y-98023713D02*
X125306200Y-98118951D01*
X125353819Y-97214189D02*
X124353819Y-97214189D01*
X124734771Y-97214189D02*
X124687152Y-97118951D01*
X124687152Y-97118951D02*
X124687152Y-96928475D01*
X124687152Y-96928475D02*
X124734771Y-96833237D01*
X124734771Y-96833237D02*
X124782390Y-96785618D01*
X124782390Y-96785618D02*
X124877628Y-96737999D01*
X124877628Y-96737999D02*
X125163342Y-96737999D01*
X125163342Y-96737999D02*
X125258580Y-96785618D01*
X125258580Y-96785618D02*
X125306200Y-96833237D01*
X125306200Y-96833237D02*
X125353819Y-96928475D01*
X125353819Y-96928475D02*
X125353819Y-97118951D01*
X125353819Y-97118951D02*
X125306200Y-97214189D01*
X124701580Y-105671500D02*
X124749200Y-105719119D01*
X124749200Y-105719119D02*
X124796819Y-105861976D01*
X124796819Y-105861976D02*
X124796819Y-105957214D01*
X124796819Y-105957214D02*
X124749200Y-106100071D01*
X124749200Y-106100071D02*
X124653961Y-106195309D01*
X124653961Y-106195309D02*
X124558723Y-106242928D01*
X124558723Y-106242928D02*
X124368247Y-106290547D01*
X124368247Y-106290547D02*
X124225390Y-106290547D01*
X124225390Y-106290547D02*
X124034914Y-106242928D01*
X124034914Y-106242928D02*
X123939676Y-106195309D01*
X123939676Y-106195309D02*
X123844438Y-106100071D01*
X123844438Y-106100071D02*
X123796819Y-105957214D01*
X123796819Y-105957214D02*
X123796819Y-105861976D01*
X123796819Y-105861976D02*
X123844438Y-105719119D01*
X123844438Y-105719119D02*
X123892057Y-105671500D01*
X124796819Y-105242928D02*
X124130152Y-105242928D01*
X124320628Y-105242928D02*
X124225390Y-105195309D01*
X124225390Y-105195309D02*
X124177771Y-105147690D01*
X124177771Y-105147690D02*
X124130152Y-105052452D01*
X124130152Y-105052452D02*
X124130152Y-104957214D01*
X124796819Y-103016286D02*
X124320628Y-103349619D01*
X124796819Y-103587714D02*
X123796819Y-103587714D01*
X123796819Y-103587714D02*
X123796819Y-103206762D01*
X123796819Y-103206762D02*
X123844438Y-103111524D01*
X123844438Y-103111524D02*
X123892057Y-103063905D01*
X123892057Y-103063905D02*
X123987295Y-103016286D01*
X123987295Y-103016286D02*
X124130152Y-103016286D01*
X124130152Y-103016286D02*
X124225390Y-103063905D01*
X124225390Y-103063905D02*
X124273009Y-103111524D01*
X124273009Y-103111524D02*
X124320628Y-103206762D01*
X124320628Y-103206762D02*
X124320628Y-103587714D01*
X124130152Y-102730571D02*
X124130152Y-102349619D01*
X124796819Y-102587714D02*
X123939676Y-102587714D01*
X123939676Y-102587714D02*
X123844438Y-102540095D01*
X123844438Y-102540095D02*
X123796819Y-102444857D01*
X123796819Y-102444857D02*
X123796819Y-102349619D01*
X124796819Y-102016285D02*
X123796819Y-102016285D01*
X124177771Y-102016285D02*
X124130152Y-101921047D01*
X124130152Y-101921047D02*
X124130152Y-101730571D01*
X124130152Y-101730571D02*
X124177771Y-101635333D01*
X124177771Y-101635333D02*
X124225390Y-101587714D01*
X124225390Y-101587714D02*
X124320628Y-101540095D01*
X124320628Y-101540095D02*
X124606342Y-101540095D01*
X124606342Y-101540095D02*
X124701580Y-101587714D01*
X124701580Y-101587714D02*
X124749200Y-101635333D01*
X124749200Y-101635333D02*
X124796819Y-101730571D01*
X124796819Y-101730571D02*
X124796819Y-101921047D01*
X124796819Y-101921047D02*
X124749200Y-102016285D01*
X124130152Y-101254380D02*
X124130152Y-100873428D01*
X123796819Y-101111523D02*
X124653961Y-101111523D01*
X124653961Y-101111523D02*
X124749200Y-101063904D01*
X124749200Y-101063904D02*
X124796819Y-100968666D01*
X124796819Y-100968666D02*
X124796819Y-100873428D01*
X131099200Y-104984762D02*
X131146819Y-105080000D01*
X131146819Y-105080000D02*
X131146819Y-105270476D01*
X131146819Y-105270476D02*
X131099200Y-105365714D01*
X131099200Y-105365714D02*
X131051580Y-105413333D01*
X131051580Y-105413333D02*
X130956342Y-105460952D01*
X130956342Y-105460952D02*
X130670628Y-105460952D01*
X130670628Y-105460952D02*
X130575390Y-105413333D01*
X130575390Y-105413333D02*
X130527771Y-105365714D01*
X130527771Y-105365714D02*
X130480152Y-105270476D01*
X130480152Y-105270476D02*
X130480152Y-105080000D01*
X130480152Y-105080000D02*
X130527771Y-104984762D01*
X131146819Y-104556190D02*
X130146819Y-104556190D01*
X130527771Y-104556190D02*
X130480152Y-104460952D01*
X130480152Y-104460952D02*
X130480152Y-104270476D01*
X130480152Y-104270476D02*
X130527771Y-104175238D01*
X130527771Y-104175238D02*
X130575390Y-104127619D01*
X130575390Y-104127619D02*
X130670628Y-104080000D01*
X130670628Y-104080000D02*
X130956342Y-104080000D01*
X130956342Y-104080000D02*
X131051580Y-104127619D01*
X131051580Y-104127619D02*
X131099200Y-104175238D01*
X131099200Y-104175238D02*
X131146819Y-104270476D01*
X131146819Y-104270476D02*
X131146819Y-104460952D01*
X131146819Y-104460952D02*
X131099200Y-104556190D01*
X131099200Y-103699047D02*
X131146819Y-103603809D01*
X131146819Y-103603809D02*
X131146819Y-103413333D01*
X131146819Y-103413333D02*
X131099200Y-103318095D01*
X131099200Y-103318095D02*
X131003961Y-103270476D01*
X131003961Y-103270476D02*
X130956342Y-103270476D01*
X130956342Y-103270476D02*
X130861104Y-103318095D01*
X130861104Y-103318095D02*
X130813485Y-103413333D01*
X130813485Y-103413333D02*
X130813485Y-103556190D01*
X130813485Y-103556190D02*
X130765866Y-103651428D01*
X130765866Y-103651428D02*
X130670628Y-103699047D01*
X130670628Y-103699047D02*
X130623009Y-103699047D01*
X130623009Y-103699047D02*
X130527771Y-103651428D01*
X130527771Y-103651428D02*
X130480152Y-103556190D01*
X130480152Y-103556190D02*
X130480152Y-103413333D01*
X130480152Y-103413333D02*
X130527771Y-103318095D01*
X130480152Y-102984761D02*
X130480152Y-102603809D01*
X130146819Y-102841904D02*
X131003961Y-102841904D01*
X131003961Y-102841904D02*
X131099200Y-102794285D01*
X131099200Y-102794285D02*
X131146819Y-102699047D01*
X131146819Y-102699047D02*
X131146819Y-102603809D01*
D13*
X141068918Y-106099166D02*
X141068918Y-106703928D01*
X141068918Y-106703928D02*
X139798918Y-106703928D01*
X141068918Y-105010594D02*
X141068918Y-105736309D01*
X141068918Y-105373452D02*
X139798918Y-105373452D01*
X139798918Y-105373452D02*
X139980346Y-105494404D01*
X139980346Y-105494404D02*
X140101299Y-105615356D01*
X140101299Y-105615356D02*
X140161775Y-105736309D01*
D11*
X120756419Y-97199966D02*
X120280228Y-97533299D01*
X120756419Y-97771394D02*
X119756419Y-97771394D01*
X119756419Y-97771394D02*
X119756419Y-97390442D01*
X119756419Y-97390442D02*
X119804038Y-97295204D01*
X119804038Y-97295204D02*
X119851657Y-97247585D01*
X119851657Y-97247585D02*
X119946895Y-97199966D01*
X119946895Y-97199966D02*
X120089752Y-97199966D01*
X120089752Y-97199966D02*
X120184990Y-97247585D01*
X120184990Y-97247585D02*
X120232609Y-97295204D01*
X120232609Y-97295204D02*
X120280228Y-97390442D01*
X120280228Y-97390442D02*
X120280228Y-97771394D01*
X119756419Y-96295204D02*
X119756419Y-96771394D01*
X119756419Y-96771394D02*
X120232609Y-96819013D01*
X120232609Y-96819013D02*
X120184990Y-96771394D01*
X120184990Y-96771394D02*
X120137371Y-96676156D01*
X120137371Y-96676156D02*
X120137371Y-96438061D01*
X120137371Y-96438061D02*
X120184990Y-96342823D01*
X120184990Y-96342823D02*
X120232609Y-96295204D01*
X120232609Y-96295204D02*
X120327847Y-96247585D01*
X120327847Y-96247585D02*
X120565942Y-96247585D01*
X120565942Y-96247585D02*
X120661180Y-96295204D01*
X120661180Y-96295204D02*
X120708800Y-96342823D01*
X120708800Y-96342823D02*
X120756419Y-96438061D01*
X120756419Y-96438061D02*
X120756419Y-96676156D01*
X120756419Y-96676156D02*
X120708800Y-96771394D01*
X120708800Y-96771394D02*
X120661180Y-96819013D01*
X129829200Y-103198857D02*
X129876819Y-103294095D01*
X129876819Y-103294095D02*
X129876819Y-103484571D01*
X129876819Y-103484571D02*
X129829200Y-103579809D01*
X129829200Y-103579809D02*
X129781580Y-103627428D01*
X129781580Y-103627428D02*
X129686342Y-103675047D01*
X129686342Y-103675047D02*
X129400628Y-103675047D01*
X129400628Y-103675047D02*
X129305390Y-103627428D01*
X129305390Y-103627428D02*
X129257771Y-103579809D01*
X129257771Y-103579809D02*
X129210152Y-103484571D01*
X129210152Y-103484571D02*
X129210152Y-103294095D01*
X129210152Y-103294095D02*
X129257771Y-103198857D01*
X129876819Y-102341714D02*
X129353009Y-102341714D01*
X129353009Y-102341714D02*
X129257771Y-102389333D01*
X129257771Y-102389333D02*
X129210152Y-102484571D01*
X129210152Y-102484571D02*
X129210152Y-102675047D01*
X129210152Y-102675047D02*
X129257771Y-102770285D01*
X129829200Y-102341714D02*
X129876819Y-102436952D01*
X129876819Y-102436952D02*
X129876819Y-102675047D01*
X129876819Y-102675047D02*
X129829200Y-102770285D01*
X129829200Y-102770285D02*
X129733961Y-102817904D01*
X129733961Y-102817904D02*
X129638723Y-102817904D01*
X129638723Y-102817904D02*
X129543485Y-102770285D01*
X129543485Y-102770285D02*
X129495866Y-102675047D01*
X129495866Y-102675047D02*
X129495866Y-102436952D01*
X129495866Y-102436952D02*
X129448247Y-102341714D01*
X129829200Y-101436952D02*
X129876819Y-101532190D01*
X129876819Y-101532190D02*
X129876819Y-101722666D01*
X129876819Y-101722666D02*
X129829200Y-101817904D01*
X129829200Y-101817904D02*
X129781580Y-101865523D01*
X129781580Y-101865523D02*
X129686342Y-101913142D01*
X129686342Y-101913142D02*
X129400628Y-101913142D01*
X129400628Y-101913142D02*
X129305390Y-101865523D01*
X129305390Y-101865523D02*
X129257771Y-101817904D01*
X129257771Y-101817904D02*
X129210152Y-101722666D01*
X129210152Y-101722666D02*
X129210152Y-101532190D01*
X129210152Y-101532190D02*
X129257771Y-101436952D01*
X135623580Y-80116666D02*
X135671200Y-80164285D01*
X135671200Y-80164285D02*
X135718819Y-80307142D01*
X135718819Y-80307142D02*
X135718819Y-80402380D01*
X135718819Y-80402380D02*
X135671200Y-80545237D01*
X135671200Y-80545237D02*
X135575961Y-80640475D01*
X135575961Y-80640475D02*
X135480723Y-80688094D01*
X135480723Y-80688094D02*
X135290247Y-80735713D01*
X135290247Y-80735713D02*
X135147390Y-80735713D01*
X135147390Y-80735713D02*
X134956914Y-80688094D01*
X134956914Y-80688094D02*
X134861676Y-80640475D01*
X134861676Y-80640475D02*
X134766438Y-80545237D01*
X134766438Y-80545237D02*
X134718819Y-80402380D01*
X134718819Y-80402380D02*
X134718819Y-80307142D01*
X134718819Y-80307142D02*
X134766438Y-80164285D01*
X134766438Y-80164285D02*
X134814057Y-80116666D01*
X135147390Y-79545237D02*
X135099771Y-79640475D01*
X135099771Y-79640475D02*
X135052152Y-79688094D01*
X135052152Y-79688094D02*
X134956914Y-79735713D01*
X134956914Y-79735713D02*
X134909295Y-79735713D01*
X134909295Y-79735713D02*
X134814057Y-79688094D01*
X134814057Y-79688094D02*
X134766438Y-79640475D01*
X134766438Y-79640475D02*
X134718819Y-79545237D01*
X134718819Y-79545237D02*
X134718819Y-79354761D01*
X134718819Y-79354761D02*
X134766438Y-79259523D01*
X134766438Y-79259523D02*
X134814057Y-79211904D01*
X134814057Y-79211904D02*
X134909295Y-79164285D01*
X134909295Y-79164285D02*
X134956914Y-79164285D01*
X134956914Y-79164285D02*
X135052152Y-79211904D01*
X135052152Y-79211904D02*
X135099771Y-79259523D01*
X135099771Y-79259523D02*
X135147390Y-79354761D01*
X135147390Y-79354761D02*
X135147390Y-79545237D01*
X135147390Y-79545237D02*
X135195009Y-79640475D01*
X135195009Y-79640475D02*
X135242628Y-79688094D01*
X135242628Y-79688094D02*
X135337866Y-79735713D01*
X135337866Y-79735713D02*
X135528342Y-79735713D01*
X135528342Y-79735713D02*
X135623580Y-79688094D01*
X135623580Y-79688094D02*
X135671200Y-79640475D01*
X135671200Y-79640475D02*
X135718819Y-79545237D01*
X135718819Y-79545237D02*
X135718819Y-79354761D01*
X135718819Y-79354761D02*
X135671200Y-79259523D01*
X135671200Y-79259523D02*
X135623580Y-79211904D01*
X135623580Y-79211904D02*
X135528342Y-79164285D01*
X135528342Y-79164285D02*
X135337866Y-79164285D01*
X135337866Y-79164285D02*
X135242628Y-79211904D01*
X135242628Y-79211904D02*
X135195009Y-79259523D01*
X135195009Y-79259523D02*
X135147390Y-79354761D01*
D14*
%TO.C,G\u002A\u002A\u002A*%
G36*
X135744292Y-126545434D02*
G01*
X135971930Y-126580685D01*
X136602680Y-126637818D01*
X137663073Y-126686002D01*
X139042361Y-126722232D01*
X140629793Y-126743505D01*
X142119270Y-126747445D01*
X144019041Y-126753705D01*
X146018713Y-126779188D01*
X147941877Y-126820407D01*
X149612128Y-126873873D01*
X150454637Y-126912250D01*
X151844465Y-126993567D01*
X152363679Y-127073351D01*
X152363679Y-127169981D01*
X152363679Y-127301836D01*
X152863679Y-127487298D01*
X152764743Y-127606610D01*
X152363679Y-127956498D01*
X152363679Y-127933765D01*
X152423736Y-127886927D01*
X151293355Y-127846154D01*
X149907067Y-127815103D01*
X148820374Y-127800976D01*
X147105129Y-127792915D01*
X145850756Y-127809270D01*
X144978017Y-127856113D01*
X144407669Y-127939512D01*
X144060473Y-128065538D01*
X143913182Y-128176904D01*
X143646008Y-128611595D01*
X143722510Y-129185083D01*
X143783399Y-129356285D01*
X143943606Y-129844569D01*
X143871773Y-129905607D01*
X143725030Y-129775636D01*
X143452036Y-129258326D01*
X143348029Y-128694785D01*
X143270765Y-128220787D01*
X142988775Y-127987670D01*
X142347406Y-127885654D01*
X142190912Y-127873408D01*
X141497453Y-127782274D01*
X141101163Y-127652736D01*
X141065274Y-127603195D01*
X140813256Y-127536366D01*
X140127767Y-127494878D01*
X139115322Y-127482268D01*
X137957828Y-127499984D01*
X136625340Y-127531918D01*
X135741148Y-127532011D01*
X135213384Y-127485266D01*
X134950180Y-127376685D01*
X134859668Y-127191268D01*
X134849850Y-126992577D01*
X134900549Y-126628004D01*
X135150013Y-126496827D01*
X135744292Y-126545434D01*
G37*
G36*
X116782775Y-122074486D02*
G01*
X117764399Y-122120681D01*
X119130906Y-122169858D01*
X120812175Y-122220659D01*
X122738086Y-122271728D01*
X124838521Y-122321711D01*
X127043357Y-122369249D01*
X129282476Y-122412987D01*
X131485758Y-122451570D01*
X133583082Y-122483640D01*
X135504329Y-122507841D01*
X137179378Y-122522817D01*
X138538109Y-122527213D01*
X139510403Y-122519671D01*
X140026139Y-122498836D01*
X140067235Y-122493166D01*
X140567297Y-122451426D01*
X140763049Y-122686805D01*
X140794531Y-123222805D01*
X140794531Y-124091475D01*
X139105701Y-123917800D01*
X138209080Y-123836376D01*
X137768139Y-123838894D01*
X137702545Y-123940369D01*
X137912996Y-124140720D01*
X138664390Y-124417632D01*
X139297260Y-124393189D01*
X140056096Y-124386326D01*
X140396875Y-124591237D01*
X140421926Y-124802902D01*
X140050593Y-124813790D01*
X139722747Y-124756290D01*
X139154101Y-124668699D01*
X139020172Y-124756243D01*
X139173392Y-124984323D01*
X139347746Y-125309520D01*
X139273893Y-125388466D01*
X138825197Y-125241070D01*
X138222559Y-124889265D01*
X137655457Y-124464661D01*
X137313369Y-124098870D01*
X137281765Y-124004746D01*
X137065564Y-123824287D01*
X136390319Y-123808256D01*
X135930701Y-123852937D01*
X135132630Y-123931829D01*
X134729930Y-123882768D01*
X134582074Y-123647590D01*
X134552702Y-123282597D01*
X134524173Y-122787229D01*
X134459970Y-122810213D01*
X134345376Y-123195938D01*
X134164984Y-123839633D01*
X128630289Y-123824485D01*
X126752560Y-123825123D01*
X125374442Y-123840347D01*
X124455259Y-123872547D01*
X123954334Y-123924110D01*
X123830993Y-123997425D01*
X124041339Y-124093915D01*
X124559595Y-124304811D01*
X124675096Y-124477740D01*
X124618466Y-124511467D01*
X124495205Y-124714815D01*
X124813137Y-125114388D01*
X125023785Y-125301456D01*
X125491187Y-125709307D01*
X125555663Y-125820708D01*
X125231352Y-125682889D01*
X125122190Y-125630115D01*
X124490188Y-125255159D01*
X123713661Y-124707794D01*
X123445825Y-124499772D01*
X123005318Y-124167343D01*
X122583886Y-123935792D01*
X122067261Y-123780275D01*
X121341171Y-123675945D01*
X120291349Y-123597955D01*
X118987314Y-123530333D01*
X116863679Y-123362881D01*
X116445516Y-122634095D01*
X116363679Y-122146684D01*
X116363679Y-122041175D01*
X116782775Y-122074486D01*
G37*
G36*
X116363679Y-122041175D02*
G01*
X116256154Y-122032629D01*
X116363679Y-121983460D01*
X116363679Y-122041175D01*
G37*
G36*
X132302451Y-120944634D02*
G01*
X132165678Y-121296987D01*
X131752747Y-121711962D01*
X131577303Y-121832733D01*
X131101941Y-122035366D01*
X130756974Y-121830504D01*
X130645370Y-121691814D01*
X130298742Y-121101987D01*
X130380794Y-120819724D01*
X130526446Y-120795860D01*
X130759495Y-121017425D01*
X130796658Y-121243058D01*
X130835278Y-121539778D01*
X131043256Y-121458628D01*
X131290807Y-121243058D01*
X131789960Y-120895315D01*
X132092965Y-120795860D01*
X132302451Y-120944634D01*
G37*
G36*
X123195156Y-124794675D02*
G01*
X123230701Y-124849051D01*
X123469399Y-125344130D01*
X123429727Y-125580428D01*
X123230701Y-125524583D01*
X122995588Y-125138960D01*
X122964626Y-124900657D01*
X123008355Y-124598255D01*
X123195156Y-124794675D01*
G37*
G36*
X117816062Y-121003586D02*
G01*
X117826446Y-121082019D01*
X117660903Y-121243400D01*
X117556233Y-121201179D01*
X117298454Y-120958364D01*
X117286020Y-120915019D01*
X117495081Y-120798958D01*
X117556233Y-120795860D01*
X117816062Y-121003586D01*
G37*
G36*
X144239743Y-122646244D02*
G01*
X145481302Y-122687549D01*
X146501339Y-122727259D01*
X147192869Y-122760805D01*
X147448729Y-122783278D01*
X147543978Y-123037625D01*
X147665522Y-123417592D01*
X147725572Y-123663444D01*
X147671488Y-123828609D01*
X147419985Y-123927223D01*
X146887781Y-123973422D01*
X145991594Y-123981344D01*
X144648140Y-123965124D01*
X144456536Y-123962280D01*
X141064743Y-123911832D01*
X141064743Y-123230110D01*
X141064743Y-122548388D01*
X144239743Y-122646244D01*
G37*
G36*
X119900651Y-124522563D02*
G01*
X120110111Y-124731754D01*
X120425930Y-124551896D01*
X120693873Y-124384239D01*
X120652384Y-124644144D01*
X120623946Y-124720052D01*
X120566254Y-125055334D01*
X120752866Y-125012537D01*
X121043888Y-124898194D01*
X120989518Y-125089854D01*
X120623824Y-125508725D01*
X120477622Y-125649163D01*
X119886244Y-126200115D01*
X120815388Y-126234492D01*
X122988786Y-126323628D01*
X124677241Y-126415586D01*
X125936218Y-126517392D01*
X126821181Y-126636073D01*
X127387597Y-126778655D01*
X127690930Y-126952164D01*
X127781259Y-127116949D01*
X127763708Y-127475283D01*
X127417656Y-127500575D01*
X127243594Y-127458405D01*
X126790325Y-127407416D01*
X125887113Y-127362183D01*
X124624431Y-127325170D01*
X123092752Y-127298843D01*
X121382547Y-127285665D01*
X120866339Y-127284656D01*
X118966668Y-127281517D01*
X117539848Y-127270608D01*
X116518308Y-127245526D01*
X115834475Y-127199865D01*
X115420776Y-127127225D01*
X115209640Y-127021201D01*
X115133494Y-126875390D01*
X115124318Y-126740540D01*
X115168170Y-126474711D01*
X115371129Y-126313773D01*
X115840297Y-126231793D01*
X116682777Y-126202837D01*
X117356128Y-126200115D01*
X118488787Y-126183219D01*
X119205057Y-126115572D01*
X119628383Y-125971733D01*
X119882207Y-125726261D01*
X119917615Y-125672216D01*
X120091170Y-125168538D01*
X119982614Y-124980737D01*
X119744079Y-124593050D01*
X119739268Y-124495338D01*
X119809970Y-124349151D01*
X119900651Y-124522563D01*
G37*
G36*
X132622886Y-126475317D02*
G01*
X133566211Y-126499757D01*
X134145364Y-126557851D01*
X134448457Y-126663803D01*
X134563606Y-126831818D01*
X134579637Y-127010753D01*
X134547566Y-127239811D01*
X134391363Y-127393064D01*
X134021045Y-127485655D01*
X133346629Y-127532730D01*
X132278132Y-127549433D01*
X131368599Y-127551179D01*
X130002163Y-127544888D01*
X129082021Y-127515907D01*
X128514095Y-127449069D01*
X128204307Y-127329207D01*
X128058577Y-127141155D01*
X128016237Y-127010753D01*
X127983807Y-126786133D01*
X128081755Y-126634271D01*
X128394468Y-126540965D01*
X129006332Y-126492013D01*
X130001732Y-126473211D01*
X131227275Y-126470328D01*
X132622886Y-126475317D01*
G37*
G36*
X132259537Y-128072274D02*
G01*
X132555646Y-128454820D01*
X132954525Y-129124858D01*
X133356193Y-129892319D01*
X133660668Y-130567133D01*
X133768999Y-130941840D01*
X133655972Y-131052139D01*
X133361887Y-130765984D01*
X132954237Y-130166801D01*
X132547903Y-129432528D01*
X132099373Y-128509762D01*
X131911805Y-128008949D01*
X131975490Y-127884287D01*
X132259537Y-128072274D01*
G37*
G36*
X134777260Y-128770197D02*
G01*
X135525382Y-129027590D01*
X136336020Y-129398775D01*
X135374368Y-129420722D01*
X134566056Y-129325867D01*
X133915873Y-129065926D01*
X133888198Y-129045943D01*
X133542243Y-128753260D01*
X133665741Y-128659242D01*
X134039212Y-128652811D01*
X134777260Y-128770197D01*
G37*
G36*
X143400764Y-120914854D02*
G01*
X143382408Y-121032327D01*
X143533423Y-121149329D01*
X144080670Y-121185637D01*
X144514865Y-121164070D01*
X145229399Y-121126948D01*
X145448806Y-121180576D01*
X145253041Y-121313929D01*
X144589016Y-121504889D01*
X143850371Y-121587506D01*
X143201102Y-121677858D01*
X142825685Y-121869783D01*
X142821126Y-121876711D01*
X142511463Y-122118000D01*
X142213903Y-122094295D01*
X142153811Y-121944264D01*
X142283335Y-121565192D01*
X142437451Y-121268732D01*
X142848086Y-120875725D01*
X143120713Y-120795860D01*
X143400764Y-120914854D01*
G37*
G36*
X142835101Y-128266921D02*
G01*
X142879093Y-128413763D01*
X142835236Y-128964630D01*
X142578540Y-129629720D01*
X142300753Y-130088356D01*
X142187059Y-130085953D01*
X142173541Y-129847987D01*
X142286507Y-129182104D01*
X142474094Y-128632030D01*
X142699652Y-128209877D01*
X142835101Y-128266921D01*
G37*
G36*
X151923218Y-124992419D02*
G01*
X152073559Y-125128115D01*
X152317862Y-125593443D01*
X152041809Y-126076439D01*
X151363679Y-126529319D01*
X150986533Y-126704168D01*
X151013766Y-126576555D01*
X151123339Y-126437951D01*
X151291933Y-125893299D01*
X151195030Y-125650627D01*
X150958945Y-125148248D01*
X151028219Y-124953015D01*
X151338480Y-125116795D01*
X151594613Y-125515687D01*
X151566942Y-125732056D01*
X151567306Y-125884597D01*
X151693223Y-125827892D01*
X151865311Y-125457185D01*
X151818644Y-125187015D01*
X151733641Y-124884912D01*
X151923218Y-124992419D01*
G37*
G36*
X124262968Y-65176364D02*
G01*
X124535962Y-65693674D01*
X124639969Y-66257215D01*
X124717233Y-66731213D01*
X124999223Y-66964330D01*
X125640592Y-67066346D01*
X125797086Y-67078592D01*
X126490545Y-67169726D01*
X126886835Y-67299264D01*
X126922724Y-67348805D01*
X127174742Y-67415634D01*
X127860231Y-67457122D01*
X128872676Y-67469732D01*
X130030170Y-67452016D01*
X131362658Y-67420082D01*
X132246850Y-67419989D01*
X132774614Y-67466734D01*
X133037818Y-67575315D01*
X133128330Y-67760732D01*
X133138148Y-67959423D01*
X133087449Y-68323996D01*
X132837985Y-68455173D01*
X132243706Y-68406566D01*
X132016068Y-68371315D01*
X131385318Y-68314182D01*
X130324925Y-68265998D01*
X128945637Y-68229768D01*
X127358205Y-68208495D01*
X125868728Y-68204555D01*
X123968957Y-68198295D01*
X121969285Y-68172812D01*
X120046121Y-68131593D01*
X118375870Y-68078127D01*
X117533361Y-68039750D01*
X116143533Y-67958433D01*
X115624319Y-67878649D01*
X115624319Y-67782019D01*
X115624319Y-67650164D01*
X115124319Y-67464702D01*
X115223255Y-67345390D01*
X115624319Y-66995502D01*
X115624319Y-67018235D01*
X115564262Y-67065073D01*
X116694643Y-67105846D01*
X118080931Y-67136897D01*
X119167624Y-67151024D01*
X120882869Y-67159085D01*
X122137242Y-67142730D01*
X123009981Y-67095887D01*
X123580329Y-67012488D01*
X123927525Y-66886462D01*
X124074816Y-66775096D01*
X124341990Y-66340405D01*
X124265488Y-65766917D01*
X124204599Y-65595715D01*
X124044392Y-65107431D01*
X124116225Y-65046393D01*
X124262968Y-65176364D01*
G37*
G36*
X151731844Y-72919371D02*
G01*
X151624319Y-72968540D01*
X151624319Y-72910824D01*
X151731844Y-72919371D01*
G37*
G36*
X142756646Y-69269111D02*
G01*
X142865808Y-69321885D01*
X143497810Y-69696841D01*
X144274337Y-70244206D01*
X144542173Y-70452228D01*
X144982680Y-70784657D01*
X145404112Y-71016208D01*
X145920737Y-71171725D01*
X146646827Y-71276055D01*
X147696649Y-71354045D01*
X149000684Y-71421667D01*
X151124319Y-71589119D01*
X151542482Y-72317905D01*
X151624319Y-72805316D01*
X151624319Y-72910824D01*
X151205223Y-72877514D01*
X150223599Y-72831319D01*
X148857092Y-72782142D01*
X147175823Y-72731341D01*
X145249912Y-72680272D01*
X143149477Y-72630289D01*
X140944641Y-72582751D01*
X138705522Y-72539013D01*
X136502240Y-72500430D01*
X134404916Y-72468360D01*
X132483669Y-72444159D01*
X130808620Y-72429183D01*
X129449889Y-72424787D01*
X128477595Y-72432329D01*
X127961859Y-72453164D01*
X127920763Y-72458834D01*
X127420701Y-72500574D01*
X127224949Y-72265195D01*
X127193467Y-71729195D01*
X127193467Y-70860525D01*
X128882297Y-71034200D01*
X129778918Y-71115624D01*
X130219859Y-71113106D01*
X130285453Y-71011631D01*
X130075002Y-70811280D01*
X129323608Y-70534368D01*
X128690738Y-70558811D01*
X127931902Y-70565674D01*
X127591123Y-70360763D01*
X127566072Y-70149098D01*
X127937405Y-70138210D01*
X128265251Y-70195710D01*
X128833897Y-70283301D01*
X128967826Y-70195757D01*
X128814606Y-69967677D01*
X128640252Y-69642480D01*
X128714105Y-69563534D01*
X129162801Y-69710930D01*
X129765439Y-70062735D01*
X130332541Y-70487339D01*
X130674629Y-70853130D01*
X130706233Y-70947254D01*
X130922434Y-71127713D01*
X131597679Y-71143744D01*
X132057297Y-71099063D01*
X132855368Y-71020171D01*
X133258068Y-71069232D01*
X133405924Y-71304410D01*
X133435296Y-71669403D01*
X133463825Y-72164771D01*
X133528028Y-72141787D01*
X133642622Y-71756062D01*
X133823014Y-71112367D01*
X139357709Y-71127515D01*
X141235438Y-71126877D01*
X142613556Y-71111653D01*
X143532739Y-71079453D01*
X144033664Y-71027890D01*
X144157005Y-70954575D01*
X143946659Y-70858085D01*
X143428403Y-70647189D01*
X143312902Y-70474260D01*
X143369532Y-70440533D01*
X143492793Y-70237185D01*
X143174861Y-69837612D01*
X142964213Y-69650544D01*
X142496811Y-69242693D01*
X142432335Y-69131292D01*
X142756646Y-69269111D01*
G37*
G36*
X137231024Y-73121496D02*
G01*
X137342628Y-73260186D01*
X137689256Y-73850013D01*
X137607204Y-74132276D01*
X137461552Y-74156140D01*
X137228503Y-73934575D01*
X137191340Y-73708942D01*
X137152720Y-73412222D01*
X136944742Y-73493372D01*
X136697191Y-73708942D01*
X136198038Y-74056685D01*
X135895033Y-74156140D01*
X135685547Y-74007366D01*
X135822320Y-73655013D01*
X136235251Y-73240038D01*
X136410695Y-73119267D01*
X136886057Y-72916634D01*
X137231024Y-73121496D01*
G37*
G36*
X144757297Y-69427417D02*
G01*
X144992410Y-69813040D01*
X145023372Y-70051343D01*
X144979643Y-70353745D01*
X144792842Y-70157325D01*
X144757297Y-70102949D01*
X144518599Y-69607870D01*
X144558271Y-69371572D01*
X144757297Y-69427417D01*
G37*
G36*
X150431765Y-73750821D02*
G01*
X150689544Y-73993636D01*
X150701978Y-74036981D01*
X150492917Y-74153042D01*
X150431765Y-74156140D01*
X150171936Y-73948414D01*
X150161552Y-73869981D01*
X150327095Y-73708600D01*
X150431765Y-73750821D01*
G37*
G36*
X123339858Y-70986876D02*
G01*
X123531462Y-70989720D01*
X126923255Y-71040168D01*
X126923255Y-71721890D01*
X126923255Y-72403612D01*
X123748255Y-72305756D01*
X122506696Y-72264451D01*
X121486659Y-72224741D01*
X120795129Y-72191195D01*
X120539269Y-72168722D01*
X120444020Y-71914375D01*
X120322476Y-71534408D01*
X120262426Y-71288556D01*
X120316510Y-71123391D01*
X120568013Y-71024777D01*
X121100217Y-70978578D01*
X121996404Y-70970656D01*
X123339858Y-70986876D01*
G37*
G36*
X140744404Y-67493595D02*
G01*
X141197673Y-67544584D01*
X142100885Y-67589817D01*
X143363567Y-67626830D01*
X144895246Y-67653157D01*
X146605451Y-67666335D01*
X147121659Y-67667344D01*
X149021330Y-67670483D01*
X150448150Y-67681392D01*
X151469690Y-67706474D01*
X152153523Y-67752135D01*
X152567222Y-67824775D01*
X152778358Y-67930799D01*
X152854504Y-68076610D01*
X152863680Y-68211460D01*
X152819828Y-68477289D01*
X152616869Y-68638227D01*
X152147701Y-68720207D01*
X151305221Y-68749163D01*
X150631870Y-68751885D01*
X149499211Y-68768781D01*
X148782941Y-68836428D01*
X148359615Y-68980267D01*
X148105791Y-69225739D01*
X148070383Y-69279784D01*
X147896828Y-69783462D01*
X148005384Y-69971263D01*
X148243919Y-70358950D01*
X148248730Y-70456662D01*
X148178028Y-70602849D01*
X148087347Y-70429437D01*
X147877887Y-70220246D01*
X147562068Y-70400104D01*
X147294125Y-70567761D01*
X147335614Y-70307856D01*
X147364052Y-70231948D01*
X147421744Y-69896666D01*
X147235132Y-69939463D01*
X146944110Y-70053806D01*
X146998480Y-69862146D01*
X147364174Y-69443275D01*
X147510376Y-69302837D01*
X148101754Y-68751885D01*
X147172610Y-68717508D01*
X144999212Y-68628372D01*
X143310757Y-68536414D01*
X142051780Y-68434608D01*
X141166817Y-68315927D01*
X140600401Y-68173345D01*
X140297068Y-67999836D01*
X140206739Y-67835051D01*
X140224290Y-67476717D01*
X140570342Y-67451425D01*
X140744404Y-67493595D01*
G37*
G36*
X137985835Y-67407112D02*
G01*
X138905977Y-67436093D01*
X139473903Y-67502931D01*
X139783691Y-67622793D01*
X139929421Y-67810845D01*
X139971761Y-67941247D01*
X140004191Y-68165867D01*
X139906243Y-68317729D01*
X139593530Y-68411035D01*
X138981666Y-68459987D01*
X137986266Y-68478789D01*
X136760723Y-68481672D01*
X135365112Y-68476683D01*
X134421787Y-68452243D01*
X133842634Y-68394149D01*
X133539541Y-68288197D01*
X133424392Y-68120182D01*
X133408361Y-67941247D01*
X133440432Y-67712189D01*
X133596635Y-67558936D01*
X133966953Y-67466345D01*
X134641369Y-67419270D01*
X135709866Y-67402567D01*
X136619399Y-67400821D01*
X137985835Y-67407112D01*
G37*
G36*
X134626111Y-64186016D02*
G01*
X135033761Y-64785199D01*
X135440095Y-65519472D01*
X135888625Y-66442238D01*
X136076193Y-66943051D01*
X136012508Y-67067713D01*
X135728461Y-66879726D01*
X135432352Y-66497180D01*
X135033473Y-65827142D01*
X134631805Y-65059681D01*
X134327330Y-64384867D01*
X134218999Y-64010160D01*
X134332026Y-63899861D01*
X134626111Y-64186016D01*
G37*
G36*
X133421942Y-65626133D02*
G01*
X134072125Y-65886074D01*
X134099800Y-65906057D01*
X134445755Y-66198740D01*
X134322257Y-66292758D01*
X133948786Y-66299189D01*
X133210738Y-66181803D01*
X132462616Y-65924410D01*
X131651978Y-65553225D01*
X132613630Y-65531278D01*
X133421942Y-65626133D01*
G37*
G36*
X125774095Y-72857705D02*
G01*
X125834187Y-73007736D01*
X125704663Y-73386808D01*
X125550547Y-73683268D01*
X125139912Y-74076275D01*
X124867285Y-74156140D01*
X124587234Y-74037146D01*
X124605590Y-73919673D01*
X124454575Y-73802671D01*
X123907328Y-73766363D01*
X123473133Y-73787930D01*
X122758599Y-73825052D01*
X122539192Y-73771424D01*
X122734957Y-73638071D01*
X123398982Y-73447111D01*
X124137627Y-73364494D01*
X124786896Y-73274142D01*
X125162313Y-73082217D01*
X125166872Y-73075289D01*
X125476535Y-72834000D01*
X125774095Y-72857705D01*
G37*
G36*
X125800939Y-64866047D02*
G01*
X125814457Y-65104013D01*
X125701491Y-65769896D01*
X125513904Y-66319970D01*
X125288346Y-66742123D01*
X125152897Y-66685079D01*
X125108905Y-66538237D01*
X125152762Y-65987370D01*
X125409458Y-65322280D01*
X125687245Y-64863644D01*
X125800939Y-64866047D01*
G37*
G36*
X116974232Y-68375445D02*
G01*
X116864659Y-68514049D01*
X116696065Y-69058701D01*
X116792968Y-69301373D01*
X117029053Y-69803752D01*
X116959779Y-69998985D01*
X116649518Y-69835205D01*
X116393385Y-69436313D01*
X116421056Y-69219944D01*
X116420692Y-69067403D01*
X116294775Y-69124108D01*
X116122687Y-69494815D01*
X116169354Y-69764985D01*
X116254357Y-70067088D01*
X116064780Y-69959581D01*
X115914439Y-69823885D01*
X115670136Y-69358557D01*
X115946189Y-68875561D01*
X116624319Y-68422681D01*
X117001465Y-68247832D01*
X116974232Y-68375445D01*
G37*
D15*
%TO.C,IC1*%
X133099000Y-92612500D02*
X133099000Y-94137500D01*
D16*
%TO.C,Ron*%
X125900500Y-93832776D02*
X125900500Y-94342224D01*
X126945500Y-93832776D02*
X126945500Y-94342224D01*
%TO.C,Cout*%
X129705000Y-110256248D02*
X129705000Y-111678752D01*
X132425000Y-110256248D02*
X132425000Y-111678752D01*
%TO.C,Rr*%
X131996500Y-104432776D02*
X131996500Y-104942224D01*
X133041500Y-104432776D02*
X133041500Y-104942224D01*
%TO.C,pgood*%
X121166800Y-98962500D02*
X121166800Y-101422500D01*
X121166800Y-101422500D02*
X122636800Y-101422500D01*
X122636800Y-101422500D02*
X122636800Y-98962500D01*
%TO.C,C9*%
X142401000Y-83110388D02*
X140861000Y-83110388D01*
X142401000Y-83150388D02*
X140861000Y-83150388D01*
X142401000Y-83190388D02*
X140862000Y-83190388D01*
X142401000Y-83230388D02*
X140864000Y-83230388D01*
X142401000Y-83270388D02*
X140866000Y-83270388D01*
X142401000Y-83310388D02*
X140869000Y-83310388D01*
X142401000Y-83350388D02*
X140872000Y-83350388D01*
X142401000Y-83390388D02*
X140876000Y-83390388D01*
X142401000Y-83430388D02*
X140881000Y-83430388D01*
X142401000Y-83470388D02*
X140886000Y-83470388D01*
X142401000Y-83510388D02*
X140892000Y-83510388D01*
X142401000Y-83550388D02*
X140898000Y-83550388D01*
X142401000Y-83590388D02*
X140905000Y-83590388D01*
X142401000Y-83630388D02*
X140913000Y-83630388D01*
X142401000Y-83670388D02*
X140922000Y-83670388D01*
X142401000Y-83710388D02*
X140931000Y-83710388D01*
X142401000Y-83750388D02*
X140940000Y-83750388D01*
X142401000Y-83790388D02*
X140951000Y-83790388D01*
X142401000Y-83830388D02*
X140962000Y-83830388D01*
X142401000Y-83870388D02*
X140974000Y-83870388D01*
X142401000Y-83910388D02*
X140986000Y-83910388D01*
X142401000Y-83950388D02*
X140999000Y-83950388D01*
X142401000Y-83990388D02*
X141013000Y-83990388D01*
X142401000Y-84030388D02*
X141028000Y-84030388D01*
X142401000Y-84070388D02*
X141043000Y-84070388D01*
X142401000Y-84110388D02*
X141059000Y-84110388D01*
X142401000Y-84150388D02*
X141076000Y-84150388D01*
X142401000Y-84190388D02*
X141094000Y-84190388D01*
X142401000Y-84230388D02*
X141112000Y-84230388D01*
X142401000Y-84270388D02*
X141132000Y-84270388D01*
X142401000Y-84310388D02*
X141152000Y-84310388D01*
X142401000Y-84350388D02*
X141173000Y-84350388D01*
X142401000Y-84390388D02*
X141195000Y-84390388D01*
X142401000Y-84430388D02*
X141218000Y-84430388D01*
X142401000Y-84470388D02*
X141242000Y-84470388D01*
X142401000Y-84510388D02*
X141266000Y-84510388D01*
X142401000Y-84550388D02*
X141292000Y-84550388D01*
X142401000Y-84590388D02*
X141319000Y-84590388D01*
X142401000Y-84630388D02*
X141347000Y-84630388D01*
X142401000Y-84670388D02*
X141376000Y-84670388D01*
X142401000Y-84710388D02*
X141406000Y-84710388D01*
X142401000Y-84750388D02*
X141438000Y-84750388D01*
X142401000Y-84790388D02*
X141471000Y-84790388D01*
X142401000Y-84830388D02*
X141505000Y-84830388D01*
X142401000Y-84870388D02*
X141540000Y-84870388D01*
X142401000Y-84910388D02*
X141577000Y-84910388D01*
X142401000Y-84950388D02*
X141616000Y-84950388D01*
X142401000Y-84990388D02*
X141656000Y-84990388D01*
X142401000Y-85030388D02*
X141698000Y-85030388D01*
X142401000Y-85070388D02*
X141742000Y-85070388D01*
X142401000Y-85110388D02*
X141789000Y-85110388D01*
X143724000Y-85710388D02*
X143158000Y-85710388D01*
X143958000Y-85670388D02*
X142924000Y-85670388D01*
X144118000Y-85630388D02*
X142764000Y-85630388D01*
X144246000Y-85590388D02*
X142636000Y-85590388D01*
X144355000Y-85550388D02*
X142527000Y-85550388D01*
X144452000Y-85510388D02*
X142430000Y-85510388D01*
X144539000Y-85470388D02*
X142343000Y-85470388D01*
X144618000Y-85430388D02*
X142264000Y-85430388D01*
X144692000Y-85390388D02*
X142190000Y-85390388D01*
X144760000Y-85350388D02*
X142122000Y-85350388D01*
X144824000Y-85310388D02*
X142058000Y-85310388D01*
X144884000Y-85270388D02*
X141998000Y-85270388D01*
X144916000Y-80305613D02*
X144916000Y-80805613D01*
X144940000Y-85230388D02*
X141942000Y-85230388D01*
X144994000Y-85190388D02*
X141888000Y-85190388D01*
X145045000Y-85150388D02*
X141837000Y-85150388D01*
X145093000Y-85110388D02*
X144481000Y-85110388D01*
X145140000Y-85070388D02*
X144481000Y-85070388D01*
X145166000Y-80555613D02*
X144666000Y-80555613D01*
X145184000Y-85030388D02*
X144481000Y-85030388D01*
X145226000Y-84990388D02*
X144481000Y-84990388D01*
X145266000Y-84950388D02*
X144481000Y-84950388D01*
X145305000Y-84910388D02*
X144481000Y-84910388D01*
X145342000Y-84870388D02*
X144481000Y-84870388D01*
X145377000Y-84830388D02*
X144481000Y-84830388D01*
X145411000Y-84790388D02*
X144481000Y-84790388D01*
X145444000Y-84750388D02*
X144481000Y-84750388D01*
X145476000Y-84710388D02*
X144481000Y-84710388D01*
X145506000Y-84670388D02*
X144481000Y-84670388D01*
X145535000Y-84630388D02*
X144481000Y-84630388D01*
X145563000Y-84590388D02*
X144481000Y-84590388D01*
X145590000Y-84550388D02*
X144481000Y-84550388D01*
X145616000Y-84510388D02*
X144481000Y-84510388D01*
X145640000Y-84470388D02*
X144481000Y-84470388D01*
X145664000Y-84430388D02*
X144481000Y-84430388D01*
X145687000Y-84390388D02*
X144481000Y-84390388D01*
X145709000Y-84350388D02*
X144481000Y-84350388D01*
X145730000Y-84310388D02*
X144481000Y-84310388D01*
X145750000Y-84270388D02*
X144481000Y-84270388D01*
X145770000Y-84230388D02*
X144481000Y-84230388D01*
X145788000Y-84190388D02*
X144481000Y-84190388D01*
X145806000Y-84150388D02*
X144481000Y-84150388D01*
X145823000Y-84110388D02*
X144481000Y-84110388D01*
X145839000Y-84070388D02*
X144481000Y-84070388D01*
X145854000Y-84030388D02*
X144481000Y-84030388D01*
X145869000Y-83990388D02*
X144481000Y-83990388D01*
X145883000Y-83950388D02*
X144481000Y-83950388D01*
X145896000Y-83910388D02*
X144481000Y-83910388D01*
X145908000Y-83870388D02*
X144481000Y-83870388D01*
X145920000Y-83830388D02*
X144481000Y-83830388D01*
X145931000Y-83790388D02*
X144481000Y-83790388D01*
X145942000Y-83750388D02*
X144481000Y-83750388D01*
X145951000Y-83710388D02*
X144481000Y-83710388D01*
X145960000Y-83670388D02*
X144481000Y-83670388D01*
X145969000Y-83630388D02*
X144481000Y-83630388D01*
X145977000Y-83590388D02*
X144481000Y-83590388D01*
X145984000Y-83550388D02*
X144481000Y-83550388D01*
X145990000Y-83510388D02*
X144481000Y-83510388D01*
X145996000Y-83470388D02*
X144481000Y-83470388D01*
X146001000Y-83430388D02*
X144481000Y-83430388D01*
X146006000Y-83390388D02*
X144481000Y-83390388D01*
X146010000Y-83350388D02*
X144481000Y-83350388D01*
X146013000Y-83310388D02*
X144481000Y-83310388D01*
X146016000Y-83270388D02*
X144481000Y-83270388D01*
X146018000Y-83230388D02*
X144481000Y-83230388D01*
X146020000Y-83190388D02*
X144481000Y-83190388D01*
X146021000Y-83110388D02*
X144481000Y-83110388D01*
X146021000Y-83150388D02*
X144481000Y-83150388D01*
X146061000Y-83110388D02*
G75*
G02*
X140821000Y-83110388I-2620000J0D01*
G01*
X140821000Y-83110388D02*
G75*
G02*
X146061000Y-83110388I2620000J0D01*
G01*
%TO.C,Vin*%
X127832000Y-83137500D02*
X127832000Y-81757500D01*
X129212000Y-83137500D02*
X127832000Y-83137500D01*
X130482000Y-80377500D02*
X133132000Y-80377500D01*
X130482000Y-83137500D02*
X130482000Y-80377500D01*
X130482000Y-83137500D02*
X133132000Y-83137500D01*
X133132000Y-83137500D02*
X133132000Y-80377500D01*
%TO.C,Vout*%
X121487000Y-110713500D02*
X121487000Y-108063500D01*
X124247000Y-108063500D02*
X121487000Y-108063500D01*
X124247000Y-110713500D02*
X121487000Y-110713500D01*
X124247000Y-110713500D02*
X124247000Y-108063500D01*
X124247000Y-111983500D02*
X124247000Y-113363500D01*
X124247000Y-113363500D02*
X122867000Y-113363500D01*
D15*
%TO.C,D1*%
X135019000Y-90405500D02*
X141219000Y-90405500D01*
X135019000Y-91205500D02*
X135019000Y-90405500D01*
D10*
X135829000Y-87105500D02*
X135829000Y-87105500D01*
X135829000Y-87205500D02*
X135829000Y-87205500D01*
D15*
X141219000Y-90405500D02*
X141219000Y-91205500D01*
D10*
X135829000Y-87105500D02*
G75*
G02*
X135829000Y-87205500I0J-50000D01*
G01*
X135829000Y-87205500D02*
G75*
G02*
X135829000Y-87105500I0J50000D01*
G01*
D16*
%TO.C,Cin*%
X130283748Y-88779500D02*
X131706252Y-88779500D01*
X130283748Y-91499500D02*
X131706252Y-91499500D01*
%TO.C,R6*%
X142690000Y-91977064D02*
X142690000Y-90522936D01*
X144510000Y-91977064D02*
X144510000Y-90522936D01*
%TO.C,Cout*%
X126079000Y-110256248D02*
X126079000Y-111678752D01*
X128799000Y-110256248D02*
X128799000Y-111678752D01*
%TO.C,Rfbb*%
X125900500Y-98306224D02*
X125900500Y-97796776D01*
X126945500Y-98306224D02*
X126945500Y-97796776D01*
%TO.C,Cin*%
X130283748Y-84842500D02*
X131706252Y-84842500D01*
X130283748Y-87562500D02*
X131706252Y-87562500D01*
%TO.C,Cr*%
X127170752Y-104936500D02*
X126648248Y-104936500D01*
X127170752Y-106406500D02*
X126648248Y-106406500D01*
%TO.C,Rfbt*%
X125138500Y-102520724D02*
X125138500Y-102011276D01*
X126183500Y-102520724D02*
X126183500Y-102011276D01*
%TO.C,cbst*%
X132170652Y-100732900D02*
X131648148Y-100732900D01*
X132170652Y-102202900D02*
X131648148Y-102202900D01*
D15*
%TO.C,L1*%
X134494600Y-99887500D02*
X134494600Y-111887500D01*
X146494600Y-111887500D02*
X146494600Y-99887500D01*
D16*
%TO.C,R5*%
X119677500Y-99545276D02*
X119677500Y-100054724D01*
X120722500Y-99545276D02*
X120722500Y-100054724D01*
%TO.C,cac*%
X127212000Y-102503752D02*
X127212000Y-101981248D01*
X128682000Y-102503752D02*
X128682000Y-101981248D01*
%TO.C,C8*%
X136305000Y-83110387D02*
X134765000Y-83110387D01*
X136305000Y-83150387D02*
X134765000Y-83150387D01*
X136305000Y-83190387D02*
X134766000Y-83190387D01*
X136305000Y-83230387D02*
X134768000Y-83230387D01*
X136305000Y-83270387D02*
X134770000Y-83270387D01*
X136305000Y-83310387D02*
X134773000Y-83310387D01*
X136305000Y-83350387D02*
X134776000Y-83350387D01*
X136305000Y-83390387D02*
X134780000Y-83390387D01*
X136305000Y-83430387D02*
X134785000Y-83430387D01*
X136305000Y-83470387D02*
X134790000Y-83470387D01*
X136305000Y-83510387D02*
X134796000Y-83510387D01*
X136305000Y-83550387D02*
X134802000Y-83550387D01*
X136305000Y-83590387D02*
X134809000Y-83590387D01*
X136305000Y-83630387D02*
X134817000Y-83630387D01*
X136305000Y-83670387D02*
X134826000Y-83670387D01*
X136305000Y-83710387D02*
X134835000Y-83710387D01*
X136305000Y-83750387D02*
X134844000Y-83750387D01*
X136305000Y-83790387D02*
X134855000Y-83790387D01*
X136305000Y-83830387D02*
X134866000Y-83830387D01*
X136305000Y-83870387D02*
X134878000Y-83870387D01*
X136305000Y-83910387D02*
X134890000Y-83910387D01*
X136305000Y-83950387D02*
X134903000Y-83950387D01*
X136305000Y-83990387D02*
X134917000Y-83990387D01*
X136305000Y-84030387D02*
X134932000Y-84030387D01*
X136305000Y-84070387D02*
X134947000Y-84070387D01*
X136305000Y-84110387D02*
X134963000Y-84110387D01*
X136305000Y-84150387D02*
X134980000Y-84150387D01*
X136305000Y-84190387D02*
X134998000Y-84190387D01*
X136305000Y-84230387D02*
X135016000Y-84230387D01*
X136305000Y-84270387D02*
X135036000Y-84270387D01*
X136305000Y-84310387D02*
X135056000Y-84310387D01*
X136305000Y-84350387D02*
X135077000Y-84350387D01*
X136305000Y-84390387D02*
X135099000Y-84390387D01*
X136305000Y-84430387D02*
X135122000Y-84430387D01*
X136305000Y-84470387D02*
X135146000Y-84470387D01*
X136305000Y-84510387D02*
X135170000Y-84510387D01*
X136305000Y-84550387D02*
X135196000Y-84550387D01*
X136305000Y-84590387D02*
X135223000Y-84590387D01*
X136305000Y-84630387D02*
X135251000Y-84630387D01*
X136305000Y-84670387D02*
X135280000Y-84670387D01*
X136305000Y-84710387D02*
X135310000Y-84710387D01*
X136305000Y-84750387D02*
X135342000Y-84750387D01*
X136305000Y-84790387D02*
X135375000Y-84790387D01*
X136305000Y-84830387D02*
X135409000Y-84830387D01*
X136305000Y-84870387D02*
X135444000Y-84870387D01*
X136305000Y-84910387D02*
X135481000Y-84910387D01*
X136305000Y-84950387D02*
X135520000Y-84950387D01*
X136305000Y-84990387D02*
X135560000Y-84990387D01*
X136305000Y-85030387D02*
X135602000Y-85030387D01*
X136305000Y-85070387D02*
X135646000Y-85070387D01*
X136305000Y-85110387D02*
X135693000Y-85110387D01*
X137628000Y-85710387D02*
X137062000Y-85710387D01*
X137862000Y-85670387D02*
X136828000Y-85670387D01*
X138022000Y-85630387D02*
X136668000Y-85630387D01*
X138150000Y-85590387D02*
X136540000Y-85590387D01*
X138259000Y-85550387D02*
X136431000Y-85550387D01*
X138356000Y-85510387D02*
X136334000Y-85510387D01*
X138443000Y-85470387D02*
X136247000Y-85470387D01*
X138522000Y-85430387D02*
X136168000Y-85430387D01*
X138596000Y-85390387D02*
X136094000Y-85390387D01*
X138664000Y-85350387D02*
X136026000Y-85350387D01*
X138728000Y-85310387D02*
X135962000Y-85310387D01*
X138788000Y-85270387D02*
X135902000Y-85270387D01*
X138820000Y-80305612D02*
X138820000Y-80805612D01*
X138844000Y-85230387D02*
X135846000Y-85230387D01*
X138898000Y-85190387D02*
X135792000Y-85190387D01*
X138949000Y-85150387D02*
X135741000Y-85150387D01*
X138997000Y-85110387D02*
X138385000Y-85110387D01*
X139044000Y-85070387D02*
X138385000Y-85070387D01*
X139070000Y-80555612D02*
X138570000Y-80555612D01*
X139088000Y-85030387D02*
X138385000Y-85030387D01*
X139130000Y-84990387D02*
X138385000Y-84990387D01*
X139170000Y-84950387D02*
X138385000Y-84950387D01*
X139209000Y-84910387D02*
X138385000Y-84910387D01*
X139246000Y-84870387D02*
X138385000Y-84870387D01*
X139281000Y-84830387D02*
X138385000Y-84830387D01*
X139315000Y-84790387D02*
X138385000Y-84790387D01*
X139348000Y-84750387D02*
X138385000Y-84750387D01*
X139380000Y-84710387D02*
X138385000Y-84710387D01*
X139410000Y-84670387D02*
X138385000Y-84670387D01*
X139439000Y-84630387D02*
X138385000Y-84630387D01*
X139467000Y-84590387D02*
X138385000Y-84590387D01*
X139494000Y-84550387D02*
X138385000Y-84550387D01*
X139520000Y-84510387D02*
X138385000Y-84510387D01*
X139544000Y-84470387D02*
X138385000Y-84470387D01*
X139568000Y-84430387D02*
X138385000Y-84430387D01*
X139591000Y-84390387D02*
X138385000Y-84390387D01*
X139613000Y-84350387D02*
X138385000Y-84350387D01*
X139634000Y-84310387D02*
X138385000Y-84310387D01*
X139654000Y-84270387D02*
X138385000Y-84270387D01*
X139674000Y-84230387D02*
X138385000Y-84230387D01*
X139692000Y-84190387D02*
X138385000Y-84190387D01*
X139710000Y-84150387D02*
X138385000Y-84150387D01*
X139727000Y-84110387D02*
X138385000Y-84110387D01*
X139743000Y-84070387D02*
X138385000Y-84070387D01*
X139758000Y-84030387D02*
X138385000Y-84030387D01*
X139773000Y-83990387D02*
X138385000Y-83990387D01*
X139787000Y-83950387D02*
X138385000Y-83950387D01*
X139800000Y-83910387D02*
X138385000Y-83910387D01*
X139812000Y-83870387D02*
X138385000Y-83870387D01*
X139824000Y-83830387D02*
X138385000Y-83830387D01*
X139835000Y-83790387D02*
X138385000Y-83790387D01*
X139846000Y-83750387D02*
X138385000Y-83750387D01*
X139855000Y-83710387D02*
X138385000Y-83710387D01*
X139864000Y-83670387D02*
X138385000Y-83670387D01*
X139873000Y-83630387D02*
X138385000Y-83630387D01*
X139881000Y-83590387D02*
X138385000Y-83590387D01*
X139888000Y-83550387D02*
X138385000Y-83550387D01*
X139894000Y-83510387D02*
X138385000Y-83510387D01*
X139900000Y-83470387D02*
X138385000Y-83470387D01*
X139905000Y-83430387D02*
X138385000Y-83430387D01*
X139910000Y-83390387D02*
X138385000Y-83390387D01*
X139914000Y-83350387D02*
X138385000Y-83350387D01*
X139917000Y-83310387D02*
X138385000Y-83310387D01*
X139920000Y-83270387D02*
X138385000Y-83270387D01*
X139922000Y-83230387D02*
X138385000Y-83230387D01*
X139924000Y-83190387D02*
X138385000Y-83190387D01*
X139925000Y-83110387D02*
X138385000Y-83110387D01*
X139925000Y-83150387D02*
X138385000Y-83150387D01*
X139965000Y-83110387D02*
G75*
G02*
X134725000Y-83110387I-2620000J0D01*
G01*
X134725000Y-83110387D02*
G75*
G02*
X139965000Y-83110387I2620000J0D01*
G01*
%TD*%
M02*
