%TF.GenerationSoftware,KiCad,Pcbnew,9.0.6*%
%TF.CreationDate,2025-11-23T20:43:57-05:00*%
%TF.ProjectId,5013-5v,35303133-2d35-4762-9e6b-696361645f70,rev?*%
%TF.SameCoordinates,Original*%
%TF.FileFunction,Soldermask,Top*%
%TF.FilePolarity,Negative*%
%FSLAX46Y46*%
G04 Gerber Fmt 4.6, Leading zero omitted, Abs format (unit mm)*
G04 Created by KiCad (PCBNEW 9.0.6) date 2025-11-23 20:43:57*
%MOMM*%
%LPD*%
G01*
G04 APERTURE LIST*
G04 Aperture macros list*
%AMRoundRect*
0 Rectangle with rounded corners*
0 $1 Rounding radius*
0 $2 $3 $4 $5 $6 $7 $8 $9 X,Y pos of 4 corners*
0 Add a 4 corners polygon primitive as box body*
4,1,4,$2,$3,$4,$5,$6,$7,$8,$9,$2,$3,0*
0 Add four circle primitives for the rounded corners*
1,1,$1+$1,$2,$3*
1,1,$1+$1,$4,$5*
1,1,$1+$1,$6,$7*
1,1,$1+$1,$8,$9*
0 Add four rect primitives between the rounded corners*
20,1,$1+$1,$2,$3,$4,$5,0*
20,1,$1+$1,$4,$5,$6,$7,0*
20,1,$1+$1,$6,$7,$8,$9,0*
20,1,$1+$1,$8,$9,$2,$3,0*%
G04 Aperture macros list end*
%ADD10R,0.650000X1.525000*%
%ADD11R,3.400000X2.710000*%
%ADD12RoundRect,0.237500X-0.237500X0.250000X-0.237500X-0.250000X0.237500X-0.250000X0.237500X0.250000X0*%
%ADD13RoundRect,0.250000X-1.100000X0.412500X-1.100000X-0.412500X1.100000X-0.412500X1.100000X0.412500X0*%
%ADD14RoundRect,0.237500X0.237500X-0.287500X0.237500X0.287500X-0.237500X0.287500X-0.237500X-0.287500X0*%
%ADD15RoundRect,0.250000X-0.550000X0.550000X-0.550000X-0.550000X0.550000X-0.550000X0.550000X0.550000X0*%
%ADD16C,1.600000*%
%ADD17R,1.700000X1.700000*%
%ADD18C,1.700000*%
%ADD19R,5.970000X6.100000*%
%ADD20R,1.400000X1.900000*%
%ADD21RoundRect,0.250000X-0.412500X-1.100000X0.412500X-1.100000X0.412500X1.100000X-0.412500X1.100000X0*%
%ADD22RoundRect,0.250000X0.625000X-0.400000X0.625000X0.400000X-0.625000X0.400000X-0.625000X-0.400000X0*%
%ADD23RoundRect,0.237500X0.237500X-0.250000X0.237500X0.250000X-0.237500X0.250000X-0.237500X-0.250000X0*%
%ADD24RoundRect,0.250000X0.337500X0.475000X-0.337500X0.475000X-0.337500X-0.475000X0.337500X-0.475000X0*%
%ADD25R,5.100000X3.650000*%
%ADD26RoundRect,0.250000X0.475000X-0.337500X0.475000X0.337500X-0.475000X0.337500X-0.475000X-0.337500X0*%
G04 APERTURE END LIST*
D10*
%TO.C,IC1*%
X132424000Y-93375500D03*
X131154000Y-93375500D03*
X129884000Y-93375500D03*
X128614000Y-93375500D03*
X128614000Y-98799500D03*
X129884000Y-98799500D03*
X131154000Y-98799500D03*
X132424000Y-98799500D03*
D11*
X130519000Y-96087500D03*
%TD*%
D12*
%TO.C,Ron*%
X126423000Y-93175000D03*
X126423000Y-95000000D03*
%TD*%
D13*
%TO.C,Cout*%
X131065000Y-109405000D03*
X131065000Y-112530000D03*
%TD*%
D12*
%TO.C,Rr*%
X132519000Y-103775000D03*
X132519000Y-105600000D03*
%TD*%
D14*
%TO.C,pgood*%
X121901800Y-100637500D03*
X121901800Y-98887500D03*
%TD*%
D15*
%TO.C,C9*%
X143441000Y-82110388D03*
D16*
X143441000Y-84110388D03*
%TD*%
D17*
%TO.C,Vin*%
X129212000Y-81757500D03*
D18*
X131752000Y-81757500D03*
%TD*%
D17*
%TO.C,Vout*%
X122867000Y-111983500D03*
D18*
X122867000Y-109443500D03*
%TD*%
D19*
%TO.C,D1*%
X138119000Y-94495500D03*
D20*
X140409000Y-88630500D03*
X135829000Y-88630500D03*
%TD*%
D21*
%TO.C,Cin*%
X129432500Y-90139500D03*
X132557500Y-90139500D03*
%TD*%
D22*
%TO.C,R6*%
X143600000Y-92800000D03*
X143600000Y-89700000D03*
%TD*%
D13*
%TO.C,Cout*%
X127439000Y-109405000D03*
X127439000Y-112530000D03*
%TD*%
D23*
%TO.C,Rfbb*%
X126423000Y-98964000D03*
X126423000Y-97139000D03*
%TD*%
D21*
%TO.C,Cin*%
X129432500Y-86202500D03*
X132557500Y-86202500D03*
%TD*%
D24*
%TO.C,Cr*%
X127947000Y-105671500D03*
X125872000Y-105671500D03*
%TD*%
D23*
%TO.C,Rfbt*%
X125661000Y-103178500D03*
X125661000Y-101353500D03*
%TD*%
D24*
%TO.C,cbst*%
X132946900Y-101467900D03*
X130871900Y-101467900D03*
%TD*%
D25*
%TO.C,L1*%
X140494600Y-101037500D03*
X140494600Y-110737500D03*
%TD*%
D12*
%TO.C,R5*%
X120200000Y-98887500D03*
X120200000Y-100712500D03*
%TD*%
D26*
%TO.C,cac*%
X127947000Y-103280000D03*
X127947000Y-101205000D03*
%TD*%
D15*
%TO.C,C8*%
X137345000Y-82110387D03*
D16*
X137345000Y-84110387D03*
%TD*%
M02*
