G04 #@! TF.GenerationSoftware,KiCad,Pcbnew,(6.0.9-0)*
G04 #@! TF.CreationDate,2023-02-01T16:38:20-05:00*
G04 #@! TF.ProjectId,LM5116-05,4c4d3531-3136-42d3-9035-2e6b69636164,rev?*
G04 #@! TF.SameCoordinates,Original*
G04 #@! TF.FileFunction,Soldermask,Top*
G04 #@! TF.FilePolarity,Negative*
%FSLAX46Y46*%
G04 Gerber Fmt 4.6, Leading zero omitted, Abs format (unit mm)*
G04 Created by KiCad (PCBNEW (6.0.9-0)) date 2023-02-01 16:38:20*
%MOMM*%
%LPD*%
G01*
G04 APERTURE LIST*
G04 Aperture macros list*
%AMRoundRect*
0 Rectangle with rounded corners*
0 $1 Rounding radius*
0 $2 $3 $4 $5 $6 $7 $8 $9 X,Y pos of 4 corners*
0 Add a 4 corners polygon primitive as box body*
4,1,4,$2,$3,$4,$5,$6,$7,$8,$9,$2,$3,0*
0 Add four circle primitives for the rounded corners*
1,1,$1+$1,$2,$3*
1,1,$1+$1,$4,$5*
1,1,$1+$1,$6,$7*
1,1,$1+$1,$8,$9*
0 Add four rect primitives between the rounded corners*
20,1,$1+$1,$2,$3,$4,$5,0*
20,1,$1+$1,$4,$5,$6,$7,0*
20,1,$1+$1,$6,$7,$8,$9,0*
20,1,$1+$1,$8,$9,$2,$3,0*%
%AMFreePoly0*
4,1,17,2.675000,1.605000,1.875000,1.605000,1.875000,0.935000,2.675000,0.935000,2.675000,0.335000,1.875000,0.335000,1.875000,-0.335000,2.675000,-0.335000,2.675000,-0.935000,1.875000,-0.935000,1.875000,-1.605000,2.675000,-1.605000,2.675000,-2.205000,-1.875000,-2.205000,-1.875000,2.205000,2.675000,2.205000,2.675000,1.605000,2.675000,1.605000,$1*%
G04 Aperture macros list end*
%ADD10C,3.000000*%
%ADD11R,0.845000X1.000000*%
%ADD12R,1.000000X0.845000*%
%ADD13R,1.060000X0.650000*%
%ADD14R,0.900000X0.800000*%
%ADD15R,1.550000X0.600000*%
%ADD16O,1.700000X1.700000*%
%ADD17R,1.700000X1.700000*%
%ADD18RoundRect,0.250000X-0.325000X-1.100000X0.325000X-1.100000X0.325000X1.100000X-0.325000X1.100000X0*%
%ADD19RoundRect,0.250000X0.475000X-0.250000X0.475000X0.250000X-0.475000X0.250000X-0.475000X-0.250000X0*%
%ADD20R,0.700000X0.600000*%
%ADD21RoundRect,0.243750X-0.243750X-0.456250X0.243750X-0.456250X0.243750X0.456250X-0.243750X0.456250X0*%
%ADD22R,3.000000X3.000000*%
%ADD23RoundRect,0.250000X-0.262500X-0.450000X0.262500X-0.450000X0.262500X0.450000X-0.262500X0.450000X0*%
%ADD24RoundRect,0.250000X0.375000X0.625000X-0.375000X0.625000X-0.375000X-0.625000X0.375000X-0.625000X0*%
%ADD25RoundRect,0.250000X0.250000X0.475000X-0.250000X0.475000X-0.250000X-0.475000X0.250000X-0.475000X0*%
%ADD26RoundRect,0.147500X-0.172500X0.147500X-0.172500X-0.147500X0.172500X-0.147500X0.172500X0.147500X0*%
%ADD27R,1.450000X0.450000*%
%ADD28R,3.150000X4.350000*%
%ADD29R,4.000000X2.000000*%
%ADD30RoundRect,0.147500X-0.147500X-0.172500X0.147500X-0.172500X0.147500X0.172500X-0.147500X0.172500X0*%
%ADD31RoundRect,0.250000X0.650000X-0.325000X0.650000X0.325000X-0.650000X0.325000X-0.650000X-0.325000X0*%
%ADD32RoundRect,0.147500X0.147500X0.172500X-0.147500X0.172500X-0.147500X-0.172500X0.147500X-0.172500X0*%
%ADD33RoundRect,0.250000X-0.250000X-0.475000X0.250000X-0.475000X0.250000X0.475000X-0.250000X0.475000X0*%
%ADD34RoundRect,0.147500X0.172500X-0.147500X0.172500X0.147500X-0.172500X0.147500X-0.172500X-0.147500X0*%
%ADD35O,2.500000X17.500000*%
%ADD36FreePoly0,270.000000*%
%ADD37R,0.500000X0.850000*%
%ADD38R,0.970000X4.070000*%
%ADD39R,8.770000X8.920000*%
%ADD40C,1.524000*%
%ADD41C,1.600000*%
G04 APERTURE END LIST*
D10*
X82040000Y-64310000D03*
X140040000Y-64330000D03*
X82040000Y-113320000D03*
X140030000Y-113310000D03*
D11*
X91637500Y-68400000D03*
X93562500Y-68400000D03*
X91737500Y-76500000D03*
X93662500Y-76500000D03*
X119137500Y-74000000D03*
X121062500Y-74000000D03*
D12*
X86900000Y-75637500D03*
X86900000Y-77562500D03*
X89200000Y-75637500D03*
X89200000Y-77562500D03*
D11*
X113437500Y-71400000D03*
X115362500Y-71400000D03*
X113437500Y-69700000D03*
X115362500Y-69700000D03*
D13*
X86950000Y-72150000D03*
X86950000Y-73100000D03*
X86950000Y-74050000D03*
X89150000Y-74050000D03*
X89150000Y-73100000D03*
X89150000Y-72150000D03*
D14*
X88600000Y-70419000D03*
X88600000Y-68519000D03*
X86600000Y-69469000D03*
D15*
X122800000Y-72005000D03*
X122800000Y-70735000D03*
X122800000Y-69465000D03*
X122800000Y-68195000D03*
X117400000Y-68195000D03*
X117400000Y-69465000D03*
X117400000Y-70735000D03*
X117400000Y-72005000D03*
D16*
X91440000Y-71120000D03*
X93980000Y-71120000D03*
X91440000Y-73660000D03*
D17*
X93980000Y-73660000D03*
D11*
X113437500Y-68100000D03*
X115362500Y-68100000D03*
D18*
X91030000Y-102362000D03*
X93980000Y-102362000D03*
D19*
X103378000Y-92710000D03*
X103378000Y-90810000D03*
D20*
X103632000Y-95758000D03*
X103632000Y-94358000D03*
D21*
X104472500Y-68580000D03*
X106347500Y-68580000D03*
D22*
X99314000Y-108458000D03*
D10*
X94234000Y-108458000D03*
D23*
X99417500Y-68580000D03*
X101242500Y-68580000D03*
D24*
X99060000Y-100838000D03*
X96260000Y-100838000D03*
D23*
X116435500Y-99314000D03*
X118260500Y-99314000D03*
X116463000Y-101600000D03*
X118288000Y-101600000D03*
D25*
X112456000Y-99314000D03*
X110556000Y-99314000D03*
D26*
X103632000Y-97028000D03*
X103632000Y-97998000D03*
D27*
X112276000Y-97413000D03*
X112276000Y-96763000D03*
X112276000Y-96113000D03*
X112276000Y-95463000D03*
X112276000Y-94813000D03*
X112276000Y-94163000D03*
X112276000Y-93513000D03*
X112276000Y-92863000D03*
X112276000Y-92213000D03*
X112276000Y-91563000D03*
X106426000Y-91563000D03*
X106426000Y-92213000D03*
X106426000Y-92863000D03*
X106426000Y-93513000D03*
X106426000Y-94163000D03*
X106426000Y-94813000D03*
X106426000Y-95463000D03*
X106426000Y-96113000D03*
X106426000Y-96763000D03*
X106426000Y-97413000D03*
D28*
X109351000Y-94488000D03*
D29*
X87630000Y-87376000D03*
X87757000Y-80391000D03*
D23*
X117710000Y-87884000D03*
X119535000Y-87884000D03*
D17*
X113700000Y-74295000D03*
D16*
X116240000Y-74295000D03*
D30*
X116863000Y-97028000D03*
X117833000Y-97028000D03*
D31*
X100584000Y-79961000D03*
X100584000Y-77011000D03*
D32*
X117410000Y-91694000D03*
X116440000Y-91694000D03*
X117456000Y-89916000D03*
X116486000Y-89916000D03*
D33*
X116186000Y-93980000D03*
X118086000Y-93980000D03*
D30*
X116209000Y-95758000D03*
X117179000Y-95758000D03*
X113923000Y-87122000D03*
X114893000Y-87122000D03*
X116209000Y-103886000D03*
X117179000Y-103886000D03*
D34*
X115170000Y-91186000D03*
X115170000Y-90216000D03*
D35*
X123571000Y-105156000D03*
D36*
X88138000Y-95138000D03*
D37*
X90043000Y-91588000D03*
X88773000Y-91588000D03*
X87503000Y-91588000D03*
X86233000Y-91588000D03*
D38*
X94234000Y-97172000D03*
D39*
X96774000Y-87082000D03*
D38*
X99314000Y-97172000D03*
D40*
X103378000Y-83820000D03*
X125984000Y-91694000D03*
X117202000Y-107188000D03*
X117348000Y-82296000D03*
D41*
X128504000Y-94488000D03*
X126004000Y-94488000D03*
D40*
X110490000Y-82296000D03*
D17*
X86920000Y-65590000D03*
D16*
X86920000Y-63050000D03*
X89460000Y-65590000D03*
X89460000Y-63050000D03*
X92000000Y-65590000D03*
X92000000Y-63050000D03*
X94540000Y-65590000D03*
X94540000Y-63050000D03*
X97080000Y-65590000D03*
X97080000Y-63050000D03*
X99620000Y-65590000D03*
X99620000Y-63050000D03*
X102160000Y-65590000D03*
X102160000Y-63050000D03*
X104700000Y-65590000D03*
X104700000Y-63050000D03*
X107240000Y-65590000D03*
X107240000Y-63050000D03*
X109780000Y-65590000D03*
X109780000Y-63050000D03*
X112320000Y-65590000D03*
X112320000Y-63050000D03*
X114860000Y-65590000D03*
X114860000Y-63050000D03*
X117400000Y-65590000D03*
X117400000Y-63050000D03*
X119940000Y-65590000D03*
X119940000Y-63050000D03*
X122480000Y-65590000D03*
X122480000Y-63050000D03*
X125020000Y-65590000D03*
X125020000Y-63050000D03*
X127560000Y-65590000D03*
X127560000Y-63050000D03*
X130100000Y-65590000D03*
X130100000Y-63050000D03*
X132640000Y-65590000D03*
X132640000Y-63050000D03*
X135180000Y-65590000D03*
X135180000Y-63050000D03*
M02*
