<?xml version="1.0" encoding="UTF-8"?>
<!DOCTYPE svg PUBLIC "-//W3C//DTD SVG 1.1//EN" "http://www.w3.org/Graphics/SVG/1.1/DTD/svg11.dtd">

<svg xmlns="http://www.w3.org/2000/svg" xmlns:xlink="http://www.w3.org/1999/xlink" width="247px" height="284.4px" viewbox="0 0 247 284.4" version="1.1">
  <title>LM5116_MXA20A_A_CU1_top: null</title>
  <desc>LM5116_MXA20A_A_CU1 WebTHERM&amp;reg; Board Layout file</desc>
<defs>
<g id="0603">
  <g id="Mask" style="display:none;">
  	<rect style="display:inline;" width="6.4" height="3.2"/>
  	<rect x="1.6" style="display:inline;" width="3.2" height="3.2"/>
  </g>
  <g id="Outline" style="display:none;">
  	<g style="display:inline;">
  		<path d="M6.15,0.25v2.7h-5.9v-2.7H6.15 M6.4,0H0v3.2h6.4V0L6.4,0z"/>
  	</g>
  	<g style="display:inline;">
  		<path d="M4.55,0.25v2.7h-2.7v-2.7H4.55 M4.8,0H1.6v3.2h3.2V0L4.8,0z"/>
  	</g>
  </g>
  <g id="Color">
  	<rect style="fill:#B3B3B3;" width="6.4" height="3.2"/>
  	<rect x="1.6" style="fill:#1A1A1A;" width="3.2" height="3.2"/>
  </g>
</g>
<g id="0402">
  <g id="MASK" display="none">
  	<g display="inline">
  		<rect x="0.125" y="0.125" width="3.752" height="1.757"/>
  		<path d="M3.752,0.25v1.507H0.25V0.25H3.752 M4.002,0H0v2.007h4.002V0L4.002,0z"/>
  	</g>
  </g>
  <g id="COLOR">
  	<rect fill="#CBCBCB" width="4.002" height="2.007"/>
  	<rect x="1.008" fill="#363636" width="1.986" height="2.007"/>
  </g>
  <g id="OUTLINE">
  	<g>
  		<path d="M3.752,0.25v1.507H0.25V0.25H3.752 M4.002,0H0v2.007h4.002V0L4.002,0z"/>
  	</g>
  	<g>
  		<path d="M2.744,0.25v1.507H1.258V0.25H2.744 M2.994,0H1.008v2.007h1.986V0L2.994,0z"/>
  	</g>
  </g>
</g>
<g id="1210_250">
  <g id="MASK" style="display:none;">
  	<rect style="display:inline;" width="9.071" height="7.087"/>
  	<rect x="1.701" style="display:inline;" width="5.669" height="7.087"/>
  </g>
  <g id="OUTLINE" style="display:none;">
  	<g style="display:inline;">
  		<path d="M8.571,0.5v6.087H0.5V0.5H8.571 M9.071,0H0v7.087h9.071V0L9.071,0z"/>
  	</g>
  	<g style="display:inline;">
  		<path d="M6.87,0.5v6.087H2.201V0.5H6.87 M7.37,0H1.701v7.087H7.37V0L7.37,0z"/>
  	</g>
  </g>
  <g id="COLOR">
  	<rect style="fill:#CBCBCB;" width="9.071" height="7.087"/>
  	<rect x="1.701" style="fill:#363636;" width="5.669" height="7.087"/>
  </g>
</g>
<g id="0805">
  <g id="MASK" style="display:none;">
  	<g style="display:inline;">
  		<rect x="0.279" y="0.279" width="7.442" height="4.442"/>
  		<path d="M7.442,0.558v3.884H0.558V0.558H7.442 M8,0H0v5h8V0L8,0z"/>
  	</g>
  </g>
  <g id="COLOR">
  	<rect style="fill:#CBCBCB;" width="8" height="5"/>
  	<rect x="1.75" style="fill:#363636;" width="4.5" height="5"/>
  </g>
  <g id="OUTLINE" style="display:none;">
  	<g style="display:inline;">
  		<path d="M7.442,0.558v3.884H0.558V0.558H7.442 M8,0H0v5h8V0L8,0z"/>
  	</g>
  	<g style="display:inline;">
  		<path d="M5.656,0.594v3.812H2.344V0.594H5.656 M6.25,0h-4.5v5h4.5V0L6.25,0z"/>
  	</g>
  </g>
</g>
<g id="1206_180">
  <g id="Mask" style="display:none;">
  	<g style="display:inline;">
  		<g>
  			<rect x="0.25" y="0.25" width="12.3" height="5.899"/>
  			<path d="M12.3,0.5v5.399H0.5V0.5H12.3 M12.8,0H0v6.399h12.8V0L12.8,0z"/>
  		</g>
  		<g>
  			<rect x="0.25" y="0.25" width="2.453" height="5.899"/>
  			<path d="M2.454,0.5v5.399H0.5V0.5H2.454 M2.954,0H0v6.399h2.954V0L2.954,0z"/>
  		</g>
  		<g>
  			<rect x="10.096" y="0.252" width="2.454" height="5.899"/>
  			<path d="M12.3,0.501V5.9h-1.954V0.501H12.3 M12.8,0.001H9.846V6.4H12.8V0.001L12.8,0.001z"/>
  		</g>
  	</g>
  </g>
  <g id="Outline" style="display:none;">
  	<g style="display:inline;">
  		<g>
  			<path d="M12.55,0.25v5.899H0.25V0.25H12.55 M12.8,0H0v6.399h12.8V0L12.8,0z"/>
  		</g>
  		<g>
  			<path d="M2.704,0.25v5.899H0.25V0.25H2.704 M2.954,0H0v6.399h2.954V0L2.954,0z"/>
  		</g>
  		<g>
  			<path d="M12.55,0.251V6.15h-2.454V0.251H12.55 M12.8,0.001H9.846V6.4H12.8V0.001L12.8,0.001z"/>
  		</g>
  	</g>
  </g>
  <g id="Color">
  	<g>
  		<g>
  			<rect x="0.25" y="0.25" style="fill:#5B5B5B;" width="12.3" height="5.899"/>
  			<path d="M12.3,0.5v5.399H0.5V0.5H12.3 M12.8,0H0v6.399h12.8V0L12.8,0z"/>
  		</g>
  		<g>
  			<rect x="0.25" y="0.25" style="fill:#C6C6C6;" width="2.453" height="5.899"/>
  			<path d="M2.454,0.5v5.399H0.5V0.5H2.454 M2.954,0H0v6.399h2.954V0L2.954,0z"/>
  		</g>
  		<g>
  			<rect x="10.096" y="0.252" style="fill:#C6C6C6;" width="2.454" height="5.899"/>
  			<path d="M12.3,0.501V5.9h-1.954V0.501H12.3 M12.8,0.001H9.846V6.4H12.8V0.001L12.8,0.001z"/>
  		</g>
  	</g>
  </g>
</g>
<g id="SOD-523">
  <g id="Mask" display="none">
  	<rect x="0.8" y="0.5" display="inline" stroke="#000000" width="4.4" height="2.8"/>
  	<line display="inline" stroke="#000000" stroke-width="0.5695" x1="0.2" y1="1.4" x2="0.2" y2="2.4"/>
  	<line display="inline" stroke="#000000" stroke-width="0.5695" x1="5.8" y1="1.4" x2="5.8" y2="2.4"/>
  </g>
  <g id="Color">
  	<rect x="0.8" y="0.5" fill="#4D4D4D" stroke="#000000" width="4.4" height="2.8"/>
  	<line fill="none" stroke="#000000" stroke-width="0.5695" x1="0.2" y1="1.4" x2="0.2" y2="2.4"/>
  	<line fill="none" stroke="#000000" stroke-width="0.5695" x1="5.8" y1="1.4" x2="5.8" y2="2.4"/>
  </g>
  <g id="Outline" display="none">
  	<rect x="0.8" y="0.5" display="inline" fill="none" stroke="#000000" width="4.4" height="2.8"/>
  	<line display="inline" fill="none" stroke="#000000" stroke-width="0.5695" x1="0.2" y1="1.4" x2="0.2" y2="2.4"/>
  	<line display="inline" fill="none" stroke="#000000" stroke-width="0.5695" x1="5.8" y1="1.4" x2="5.8" y2="2.4"/>
  </g>
</g>
<g id="SMA">
  <g id="Mask" display="none">
  	<rect x="2.533" y="0.5" display="inline" stroke="#000000" width="18.295" height="11.68"/>
  	<rect x="0.5" y="3.42" display="inline" stroke="#000000" width="2.033" height="5.84"/>
  	<rect x="20.828" y="3.42" display="inline" stroke="#000000" width="2.032" height="5.84"/>
  	<rect x="5.582" y="0.5" display="inline" stroke="#000000" width="3.049" height="11.68"/>
  </g>
  <g id="Color">
  	<rect x="2.533" y="0.5" fill="#5B5B5B" stroke="#000000" width="18.295" height="11.68"/>
  	<rect x="0.5" y="3.42" fill="#C6C6C6" stroke="#000000" width="2.033" height="5.84"/>
  	<rect x="20.828" y="3.42" fill="#C6C6C6" stroke="#000000" width="2.032" height="5.84"/>
  	<rect x="5.582" y="0.5" stroke="#000000" width="3.049" height="11.68"/>
  </g>
  <g id="Outline" display="none">
  	<rect x="2.533" y="0.5" display="inline" fill="#FFFFFF" stroke="#000000" width="18.295" height="11.68"/>
  	<rect x="0.5" y="3.42" display="inline" fill="#FFFFFF" stroke="#000000" width="2.033" height="5.84"/>
  	<rect x="20.828" y="3.42" display="inline" fill="#FFFFFF" stroke="#000000" width="2.032" height="5.84"/>
  	<rect x="5.582" y="0.5" display="inline" fill="#FFFFFF" stroke="#000000" width="3.049" height="11.68"/>
  </g>
</g>
<g id="SMB">
  <rect x="0.5" y="3.908" fill="#CCCCCC" width="20.73" height="7.156"/>
  <rect x="1.977" y="0.557" fill="#666666" width="17.89" height="14.938"/>
  <rect x="5.044" y="0.387" width="2.953" height="15.164"/>
  <polygon fill="none" stroke="#000000" points="1.562,0.5 20.226,0.5 20.226,3.34 21.343,3.34 21.343,11.405 20.226,11.405 
  	20.226,15.38 1.618,15.38 1.618,11.576 0.5,11.576 0.5,3.624 1.618,3.624 "/>
</g>
<g id="TRANS_NexFET_Q5A">
  <g id="Mask" display="none">
  	<rect x="0.5" y="0.5" display="inline" stroke="#000000" width="24" height="20"/>
  </g>
  <g id="Color">
  	<rect x="0.5" y="0.5" fill="#404040" stroke="#000000" width="24" height="20"/>
  	<circle fill="none" stroke="#000000" cx="3.903" cy="3.514" r="0.5"/>
  </g>
  <g id="Outline" display="none">
  	<rect x="0.5" y="0.5" display="inline" fill="none" stroke="#000000" width="24" height="20"/>
  	<circle display="inline" fill="none" stroke="#000000" cx="3.903" cy="3.514" r="0.5"/>
  </g>
</g>
<g id="1206">
  <g>
  	<rect x="0.5" y="0.5" fill="#5B5B5B" stroke="#000000" width="13" height="7"/>
  	<rect x="0.5" y="0.5" fill="#C6C6C6" stroke="#000000" width="3" height="7"/>
  	<rect x="10.5" y="0.501" fill="#C6C6C6" stroke="#000000" width="3" height="6.999"/>
  </g>
</g>
<g id="MXA20A">
  <g id="Mask" display="none">
  	
  		<rect x="0.5" y="1.311" display="inline" stroke="#000000" stroke-linecap="square" stroke-miterlimit="10" width="25.681" height="0.979"/>
  	
  		<rect x="0.5" y="3.91" display="inline" stroke="#000000" stroke-linecap="square" stroke-miterlimit="10" width="25.681" height="0.98"/>
  	
  		<rect x="0.5" y="6.51" display="inline" stroke="#000000" stroke-linecap="square" stroke-miterlimit="10" width="25.681" height="0.98"/>
  	
  		<rect x="0.5" y="9.11" display="inline" stroke="#000000" stroke-linecap="square" stroke-miterlimit="10" width="25.681" height="0.979"/>
  	
  		<rect x="0.5" y="11.711" display="inline" stroke="#000000" stroke-linecap="square" stroke-miterlimit="10" width="25.681" height="0.979"/>
  	
  		<rect x="0.5" y="14.311" display="inline" stroke="#000000" stroke-linecap="square" stroke-miterlimit="10" width="25.681" height="0.979"/>
  	
  		<rect x="0.5" y="16.91" display="inline" stroke="#000000" stroke-linecap="square" stroke-miterlimit="10" width="25.681" height="0.98"/>
  	
  		<rect x="0.5" y="19.51" display="inline" stroke="#000000" stroke-linecap="square" stroke-miterlimit="10" width="25.681" height="0.98"/>
  	
  		<rect x="0.5" y="22.11" display="inline" stroke="#000000" stroke-linecap="square" stroke-miterlimit="10" width="25.681" height="0.979"/>
  	
  		<rect x="0.5" y="24.711" display="inline" stroke="#000000" stroke-linecap="square" stroke-miterlimit="10" width="25.681" height="0.979"/>
  	<path display="inline" stroke="#000000" stroke-linecap="square" stroke-miterlimit="10" d="M22.14,25.7V1.3l0,0
  		c0-0.442-0.358-0.8-0.8-0.8h-16l0,0c-0.441,0-0.8,0.358-0.8,0.8v24.4l0,0c0,0.442,0.358,0.8,0.8,0.8h16l0,0
  		C21.782,26.5,22.14,26.143,22.14,25.7z"/>
  	<polyline display="inline" stroke="#000000" stroke-linecap="square" stroke-miterlimit="10" points="21.878,25.826 21.871,25.844 
  		21.863,25.861 21.854,25.879 21.845,25.896 21.836,25.913 21.826,25.93 21.815,25.945 21.805,25.962 21.794,25.979 21.783,25.993 
  		21.771,26.009 21.758,26.023 21.746,26.038 21.733,26.053 21.72,26.066 21.706,26.08 21.692,26.094 21.678,26.105 21.664,26.119 
  		21.648,26.131 21.633,26.143 21.618,26.154 21.602,26.165 21.586,26.176 21.57,26.186 21.553,26.195 21.536,26.205 21.519,26.215 
  		21.501,26.223 21.484,26.23 21.466,26.238 21.448,26.246 21.43,26.253 21.412,26.26 21.393,26.266 21.374,26.271 21.355,26.275 
  		21.336,26.28 21.316,26.285 21.297,26.288 21.277,26.291 21.258,26.294 21.238,26.297 21.218,26.298 21.198,26.299 21.178,26.3 
  		21.158,26.301 5.522,26.301 5.503,26.3 5.482,26.299 5.463,26.298 5.442,26.297 5.423,26.294 5.403,26.291 5.384,26.288 
  		5.364,26.285 5.345,26.28 5.326,26.275 5.307,26.271 5.288,26.266 5.27,26.26 5.251,26.253 5.232,26.246 5.215,26.238 5.196,26.23 
  		5.179,26.223 5.161,26.215 5.145,26.205 5.128,26.195 5.111,26.186 5.095,26.176 5.078,26.165 5.062,26.154 5.047,26.143 
  		5.032,26.131 5.018,26.119 5.003,26.105 4.988,26.094 4.975,26.08 4.961,26.066 4.947,26.053 4.935,26.038 4.922,26.023 
  		4.91,26.009 4.898,25.993 4.887,25.979 4.876,25.962 4.865,25.945 4.854,25.93 4.845,25.913 4.835,25.896 4.826,25.879 
  		4.818,25.861 4.81,25.844 4.802,25.826 4.795,25.809 4.788,25.79 4.781,25.771 4.775,25.753 4.77,25.734 4.765,25.715 4.76,25.695 
  		4.756,25.676 4.752,25.656 4.749,25.637 4.746,25.617 4.744,25.598 4.742,25.578 4.741,25.559 4.74,25.537 4.74,25.518 4.74,1.483 
  		4.74,1.462 4.741,1.442 4.742,1.423 4.744,1.403 4.746,1.383 4.749,1.363 4.752,1.344 4.756,1.324 4.76,1.305 4.765,1.286 
  		4.77,1.267 4.775,1.248 4.781,1.229 4.788,1.21 4.795,1.192 4.802,1.174 4.81,1.156 4.818,1.139 4.826,1.122 4.835,1.104 
  		4.845,1.087 4.854,1.071 4.865,1.055 4.876,1.039 4.887,1.022 4.898,1.007 4.91,0.992 4.922,0.977 4.935,0.962 4.947,0.948 
  		4.961,0.934 4.975,0.921 4.988,0.908 5.003,0.895 5.018,0.882 5.032,0.87 5.047,0.858 5.062,0.847 5.078,0.835 5.095,0.825 
  		5.111,0.814 5.128,0.805 5.145,0.795 5.161,0.787 5.179,0.778 5.196,0.77 5.215,0.762 5.232,0.754 5.251,0.748 5.27,0.741 
  		5.288,0.735 5.307,0.73 5.326,0.725 5.345,0.72 5.364,0.716 5.384,0.712 5.403,0.709 5.423,0.707 5.442,0.704 5.463,0.703 
  		5.482,0.701 5.503,0.701 5.522,0.7 21.158,0.7 21.178,0.701 21.198,0.701 21.218,0.703 21.238,0.704 21.258,0.707 21.277,0.709 
  		21.297,0.712 21.316,0.716 21.336,0.72 21.355,0.725 21.374,0.73 21.393,0.735 21.412,0.741 21.43,0.748 21.448,0.754 
  		21.466,0.762 21.484,0.77 21.501,0.778 21.519,0.787 21.536,0.795 21.553,0.805 21.57,0.814 21.586,0.825 21.602,0.835 
  		21.618,0.847 21.633,0.858 21.648,0.87 21.664,0.882 21.678,0.895 21.692,0.908 21.706,0.921 21.72,0.934 21.733,0.948 
  		21.746,0.962 21.758,0.977 21.771,0.992 21.783,1.007 21.794,1.022 21.805,1.039 21.815,1.055 21.826,1.071 21.836,1.087 
  		21.845,1.104 21.854,1.122 21.863,1.139 21.871,1.156 21.878,1.174 21.886,1.192 21.893,1.21 21.899,1.229 21.905,1.248 
  		21.911,1.267 21.916,1.286 21.92,1.305 21.925,1.324 21.928,1.344 21.932,1.363 21.934,1.383 21.937,1.403 21.938,1.423 
  		21.939,1.442 21.94,1.462 21.94,1.483 21.94,25.518 21.94,25.537 21.939,25.559 21.938,25.578 21.937,25.598 21.934,25.617 
  		21.932,25.637 21.928,25.656 21.925,25.676 21.92,25.695 21.916,25.715 21.911,25.734 21.905,25.753 21.899,25.771 21.893,25.79 
  		21.886,25.809 21.878,25.826 	"/>
  	<path display="inline" stroke="#000000" stroke-linecap="square" stroke-miterlimit="10" d="M8.54,6.1L8.54,6.1
  		c0.884,0,1.601-0.716,1.601-1.6c0-0.884-0.717-1.6-1.601-1.6s-1.6,0.716-1.6,1.6C6.94,5.384,7.656,6.1,8.54,6.1"/>
  </g>
  <g id="Color">
  	
  		<rect x="0.5" y="1.311" fill="#FFFFFF" stroke="#000000" stroke-linecap="square" stroke-miterlimit="10" width="25.681" height="0.979"/>
  	
  		<rect x="0.5" y="3.91" fill="#FFFFFF" stroke="#000000" stroke-linecap="square" stroke-miterlimit="10" width="25.681" height="0.98"/>
  	
  		<rect x="0.5" y="6.51" fill="#FFFFFF" stroke="#000000" stroke-linecap="square" stroke-miterlimit="10" width="25.681" height="0.98"/>
  	
  		<rect x="0.5" y="9.11" fill="#FFFFFF" stroke="#000000" stroke-linecap="square" stroke-miterlimit="10" width="25.681" height="0.979"/>
  	
  		<rect x="0.5" y="11.711" fill="#FFFFFF" stroke="#000000" stroke-linecap="square" stroke-miterlimit="10" width="25.681" height="0.979"/>
  	
  		<rect x="0.5" y="14.311" fill="#FFFFFF" stroke="#000000" stroke-linecap="square" stroke-miterlimit="10" width="25.681" height="0.979"/>
  	
  		<rect x="0.5" y="16.91" fill="#FFFFFF" stroke="#000000" stroke-linecap="square" stroke-miterlimit="10" width="25.681" height="0.98"/>
  	
  		<rect x="0.5" y="19.51" fill="#FFFFFF" stroke="#000000" stroke-linecap="square" stroke-miterlimit="10" width="25.681" height="0.98"/>
  	
  		<rect x="0.5" y="22.11" fill="#FFFFFF" stroke="#000000" stroke-linecap="square" stroke-miterlimit="10" width="25.681" height="0.979"/>
  	
  		<rect x="0.5" y="24.711" fill="#FFFFFF" stroke="#000000" stroke-linecap="square" stroke-miterlimit="10" width="25.681" height="0.979"/>
  	<path fill="#FFFFFF" stroke="#000000" stroke-linecap="square" stroke-miterlimit="10" d="M22.14,25.7V1.3l0,0
  		c0-0.442-0.358-0.8-0.8-0.8h-16l0,0c-0.441,0-0.8,0.358-0.8,0.8v24.4l0,0c0,0.442,0.358,0.8,0.8,0.8h16l0,0
  		C21.782,26.5,22.14,26.143,22.14,25.7z"/>
  	<polyline fill="#666666" stroke="#000000" stroke-linecap="square" stroke-miterlimit="10" points="21.878,25.826 21.871,25.844 
  		21.863,25.861 21.854,25.879 21.845,25.896 21.836,25.913 21.826,25.93 21.815,25.945 21.805,25.962 21.794,25.979 21.783,25.993 
  		21.771,26.009 21.758,26.023 21.746,26.038 21.733,26.053 21.72,26.066 21.706,26.08 21.692,26.094 21.678,26.105 21.664,26.119 
  		21.648,26.131 21.633,26.143 21.618,26.154 21.602,26.165 21.586,26.176 21.57,26.186 21.553,26.195 21.536,26.205 21.519,26.215 
  		21.501,26.223 21.484,26.23 21.466,26.238 21.448,26.246 21.43,26.253 21.412,26.26 21.393,26.266 21.374,26.271 21.355,26.275 
  		21.336,26.28 21.316,26.285 21.297,26.288 21.277,26.291 21.258,26.294 21.238,26.297 21.218,26.298 21.198,26.299 21.178,26.3 
  		21.158,26.301 5.522,26.301 5.503,26.3 5.482,26.299 5.463,26.298 5.442,26.297 5.423,26.294 5.403,26.291 5.384,26.288 
  		5.364,26.285 5.345,26.28 5.326,26.275 5.307,26.271 5.288,26.266 5.27,26.26 5.251,26.253 5.232,26.246 5.215,26.238 5.196,26.23 
  		5.179,26.223 5.161,26.215 5.145,26.205 5.128,26.195 5.111,26.186 5.095,26.176 5.078,26.165 5.062,26.154 5.047,26.143 
  		5.032,26.131 5.018,26.119 5.003,26.105 4.988,26.094 4.975,26.08 4.961,26.066 4.947,26.053 4.935,26.038 4.922,26.023 
  		4.91,26.009 4.898,25.993 4.887,25.979 4.876,25.962 4.865,25.945 4.854,25.93 4.845,25.913 4.835,25.896 4.826,25.879 
  		4.818,25.861 4.81,25.844 4.802,25.826 4.795,25.809 4.788,25.79 4.781,25.771 4.775,25.753 4.77,25.734 4.765,25.715 4.76,25.695 
  		4.756,25.676 4.752,25.656 4.749,25.637 4.746,25.617 4.744,25.598 4.742,25.578 4.741,25.559 4.74,25.537 4.74,25.518 4.74,1.483 
  		4.74,1.462 4.741,1.442 4.742,1.423 4.744,1.403 4.746,1.383 4.749,1.363 4.752,1.344 4.756,1.324 4.76,1.305 4.765,1.286 
  		4.77,1.267 4.775,1.248 4.781,1.229 4.788,1.21 4.795,1.192 4.802,1.174 4.81,1.156 4.818,1.139 4.826,1.122 4.835,1.104 
  		4.845,1.087 4.854,1.071 4.865,1.055 4.876,1.039 4.887,1.022 4.898,1.007 4.91,0.992 4.922,0.977 4.935,0.962 4.947,0.948 
  		4.961,0.934 4.975,0.921 4.988,0.908 5.003,0.895 5.018,0.882 5.032,0.87 5.047,0.858 5.062,0.847 5.078,0.835 5.095,0.825 
  		5.111,0.814 5.128,0.805 5.145,0.795 5.161,0.787 5.179,0.778 5.196,0.77 5.215,0.762 5.232,0.754 5.251,0.748 5.27,0.741 
  		5.288,0.735 5.307,0.73 5.326,0.725 5.345,0.72 5.364,0.716 5.384,0.712 5.403,0.709 5.423,0.707 5.442,0.704 5.463,0.703 
  		5.482,0.701 5.503,0.701 5.522,0.7 21.158,0.7 21.178,0.701 21.198,0.701 21.218,0.703 21.238,0.704 21.258,0.707 21.277,0.709 
  		21.297,0.712 21.316,0.716 21.336,0.72 21.355,0.725 21.374,0.73 21.393,0.735 21.412,0.741 21.43,0.748 21.448,0.754 
  		21.466,0.762 21.484,0.77 21.501,0.778 21.519,0.787 21.536,0.795 21.553,0.805 21.57,0.814 21.586,0.825 21.602,0.835 
  		21.618,0.847 21.633,0.858 21.648,0.87 21.664,0.882 21.678,0.895 21.692,0.908 21.706,0.921 21.72,0.934 21.733,0.948 
  		21.746,0.962 21.758,0.977 21.771,0.992 21.783,1.007 21.794,1.022 21.805,1.039 21.815,1.055 21.826,1.071 21.836,1.087 
  		21.845,1.104 21.854,1.122 21.863,1.139 21.871,1.156 21.878,1.174 21.886,1.192 21.893,1.21 21.899,1.229 21.905,1.248 
  		21.911,1.267 21.916,1.286 21.92,1.305 21.925,1.324 21.928,1.344 21.932,1.363 21.934,1.383 21.937,1.403 21.938,1.423 
  		21.939,1.442 21.94,1.462 21.94,1.483 21.94,25.518 21.94,25.537 21.939,25.559 21.938,25.578 21.937,25.598 21.934,25.617 
  		21.932,25.637 21.928,25.656 21.925,25.676 21.92,25.695 21.916,25.715 21.911,25.734 21.905,25.753 21.899,25.771 21.893,25.79 
  		21.886,25.809 21.878,25.826 	"/>
  	<path fill="#666666" stroke="#000000" stroke-linecap="square" stroke-miterlimit="10" d="M8.54,6.1L8.54,6.1
  		c0.884,0,1.601-0.716,1.601-1.6c0-0.884-0.717-1.6-1.601-1.6s-1.6,0.716-1.6,1.6C6.94,5.384,7.656,6.1,8.54,6.1"/>
  </g>
  <g id="Outline" display="none">
  	<path display="inline" fill="none" stroke="#000000" stroke-linecap="square" stroke-miterlimit="10" d="M26.181,2.29V1.311h-3.888
  		c0,0.328,0,0.654,0,0.979H26.181z"/>
  	<path display="inline" fill="none" stroke="#000000" stroke-linecap="square" stroke-miterlimit="10" d="M4.293,1.311H0.5V2.29
  		h3.793C4.293,1.964,4.293,1.639,4.293,1.311z"/>
  	<path display="inline" fill="none" stroke="#000000" stroke-linecap="square" stroke-miterlimit="10" d="M4.293,3.91H0.5v0.98
  		h3.793C4.293,4.563,4.293,4.239,4.293,3.91z"/>
  	<path display="inline" fill="none" stroke="#000000" stroke-linecap="square" stroke-miterlimit="10" d="M26.181,4.89V3.91h-3.888
  		c0,0.329,0,0.653,0,0.98H26.181z"/>
  	<path display="inline" fill="none" stroke="#000000" stroke-linecap="square" stroke-miterlimit="10" d="M26.181,7.49V6.51h-3.888
  		c0,0.328,0,0.654,0,0.98H26.181z"/>
  	<path display="inline" fill="none" stroke="#000000" stroke-linecap="square" stroke-miterlimit="10" d="M4.293,6.51H0.5v0.98
  		h3.793C4.293,7.164,4.293,6.838,4.293,6.51z"/>
  	<path display="inline" fill="none" stroke="#000000" stroke-linecap="square" stroke-miterlimit="10" d="M26.181,10.09V9.11h-3.888
  		c0,0.326,0,0.655,0,0.979H26.181z"/>
  	<path display="inline" fill="none" stroke="#000000" stroke-linecap="square" stroke-miterlimit="10" d="M4.293,9.11H0.5v0.979
  		h3.793C4.293,9.766,4.293,9.437,4.293,9.11z"/>
  	<path display="inline" fill="none" stroke="#000000" stroke-linecap="square" stroke-miterlimit="10" d="M26.181,12.69v-0.979
  		h-3.888c0,0.326,0,0.653,0,0.979H26.181z"/>
  	<path display="inline" fill="none" stroke="#000000" stroke-linecap="square" stroke-miterlimit="10" d="M4.293,11.711H0.5v0.979
  		h3.793C4.293,12.364,4.293,12.037,4.293,11.711z"/>
  	<path display="inline" fill="none" stroke="#000000" stroke-linecap="square" stroke-miterlimit="10" d="M26.181,15.29v-0.979
  		h-3.888c0,0.326,0,0.652,0,0.979H26.181z"/>
  	<path display="inline" fill="none" stroke="#000000" stroke-linecap="square" stroke-miterlimit="10" d="M4.293,14.311H0.5v0.979
  		h3.793C4.293,14.963,4.293,14.637,4.293,14.311z"/>
  	<path display="inline" fill="none" stroke="#000000" stroke-linecap="square" stroke-miterlimit="10" d="M26.181,17.891v-0.98
  		h-3.888c0,0.325,0,0.654,0,0.98H26.181z"/>
  	<path display="inline" fill="none" stroke="#000000" stroke-linecap="square" stroke-miterlimit="10" d="M4.293,16.91H0.5v0.98
  		h3.793C4.293,17.564,4.293,17.235,4.293,16.91z"/>
  	<path display="inline" fill="none" stroke="#000000" stroke-linecap="square" stroke-miterlimit="10" d="M26.181,20.49v-0.98
  		h-3.888c0,0.325,0,0.654,0,0.98H26.181z"/>
  	<path display="inline" fill="none" stroke="#000000" stroke-linecap="square" stroke-miterlimit="10" d="M4.293,19.51H0.5v0.98
  		h3.793C4.293,20.164,4.293,19.835,4.293,19.51z"/>
  	<path display="inline" fill="none" stroke="#000000" stroke-linecap="square" stroke-miterlimit="10" d="M4.293,22.11H0.5v0.979
  		h3.793C4.293,22.762,4.293,22.438,4.293,22.11z"/>
  	<path display="inline" fill="none" stroke="#000000" stroke-linecap="square" stroke-miterlimit="10" d="M26.181,23.09V22.11
  		h-3.888c0,0.327,0,0.651,0,0.979H26.181z"/>
  	<path display="inline" fill="none" stroke="#000000" stroke-linecap="square" stroke-miterlimit="10" d="M26.181,25.69v-0.979
  		h-3.888c0,0.326,0,0.65,0,0.979H26.181z"/>
  	<path display="inline" fill="none" stroke="#000000" stroke-linecap="square" stroke-miterlimit="10" d="M4.293,24.711H0.5v0.979
  		h3.793C4.293,25.361,4.293,25.037,4.293,24.711z"/>
  	<path display="inline" fill="none" stroke="#000000" stroke-linecap="square" stroke-miterlimit="10" d="M22.14,25.7V1.3l0,0
  		c0-0.442-0.358-0.8-0.8-0.8h-16l0,0c-0.441,0-0.8,0.358-0.8,0.8v24.4l0,0c0,0.442,0.358,0.8,0.8,0.8h16l0,0
  		C21.782,26.5,22.14,26.143,22.14,25.7z"/>
  	<polyline display="inline" fill="none" stroke="#000000" stroke-linecap="square" stroke-miterlimit="10" points="21.878,25.826 
  		21.871,25.844 21.863,25.861 21.854,25.879 21.845,25.896 21.836,25.913 21.826,25.93 21.815,25.945 21.805,25.962 21.794,25.979 
  		21.783,25.993 21.771,26.009 21.758,26.023 21.746,26.038 21.733,26.053 21.72,26.066 21.706,26.08 21.692,26.094 21.678,26.105 
  		21.664,26.119 21.648,26.131 21.633,26.143 21.618,26.154 21.602,26.165 21.586,26.176 21.57,26.186 21.553,26.195 21.536,26.205 
  		21.519,26.215 21.501,26.223 21.484,26.23 21.466,26.238 21.448,26.246 21.43,26.253 21.412,26.26 21.393,26.266 21.374,26.271 
  		21.355,26.275 21.336,26.28 21.316,26.285 21.297,26.288 21.277,26.291 21.258,26.294 21.238,26.297 21.218,26.298 21.198,26.299 
  		21.178,26.3 21.158,26.301 5.522,26.301 5.503,26.3 5.482,26.299 5.463,26.298 5.442,26.297 5.423,26.294 5.403,26.291 
  		5.384,26.288 5.364,26.285 5.345,26.28 5.326,26.275 5.307,26.271 5.288,26.266 5.27,26.26 5.251,26.253 5.232,26.246 
  		5.215,26.238 5.196,26.23 5.179,26.223 5.161,26.215 5.145,26.205 5.128,26.195 5.111,26.186 5.095,26.176 5.078,26.165 
  		5.062,26.154 5.047,26.143 5.032,26.131 5.018,26.119 5.003,26.105 4.988,26.094 4.975,26.08 4.961,26.066 4.947,26.053 
  		4.935,26.038 4.922,26.023 4.91,26.009 4.898,25.993 4.887,25.979 4.876,25.962 4.865,25.945 4.854,25.93 4.845,25.913 
  		4.835,25.896 4.826,25.879 4.818,25.861 4.81,25.844 4.802,25.826 4.795,25.809 4.788,25.79 4.781,25.771 4.775,25.753 
  		4.77,25.734 4.765,25.715 4.76,25.695 4.756,25.676 4.752,25.656 4.749,25.637 4.746,25.617 4.744,25.598 4.742,25.578 
  		4.741,25.559 4.74,25.537 4.74,25.518 4.74,1.483 4.74,1.462 4.741,1.442 4.742,1.423 4.744,1.403 4.746,1.383 4.749,1.363 
  		4.752,1.344 4.756,1.324 4.76,1.305 4.765,1.286 4.77,1.267 4.775,1.248 4.781,1.229 4.788,1.21 4.795,1.192 4.802,1.174 
  		4.81,1.156 4.818,1.139 4.826,1.122 4.835,1.104 4.845,1.087 4.854,1.071 4.865,1.055 4.876,1.039 4.887,1.022 4.898,1.007 
  		4.91,0.992 4.922,0.977 4.935,0.962 4.947,0.948 4.961,0.934 4.975,0.921 4.988,0.908 5.003,0.895 5.018,0.882 5.032,0.87 
  		5.047,0.858 5.062,0.847 5.078,0.835 5.095,0.825 5.111,0.814 5.128,0.805 5.145,0.795 5.161,0.787 5.179,0.778 5.196,0.77 
  		5.215,0.762 5.232,0.754 5.251,0.748 5.27,0.741 5.288,0.735 5.307,0.73 5.326,0.725 5.345,0.72 5.364,0.716 5.384,0.712 
  		5.403,0.709 5.423,0.707 5.442,0.704 5.463,0.703 5.482,0.701 5.503,0.701 5.522,0.7 21.158,0.7 21.178,0.701 21.198,0.701 
  		21.218,0.703 21.238,0.704 21.258,0.707 21.277,0.709 21.297,0.712 21.316,0.716 21.336,0.72 21.355,0.725 21.374,0.73 
  		21.393,0.735 21.412,0.741 21.43,0.748 21.448,0.754 21.466,0.762 21.484,0.77 21.501,0.778 21.519,0.787 21.536,0.795 
  		21.553,0.805 21.57,0.814 21.586,0.825 21.602,0.835 21.618,0.847 21.633,0.858 21.648,0.87 21.664,0.882 21.678,0.895 
  		21.692,0.908 21.706,0.921 21.72,0.934 21.733,0.948 21.746,0.962 21.758,0.977 21.771,0.992 21.783,1.007 21.794,1.022 
  		21.805,1.039 21.815,1.055 21.826,1.071 21.836,1.087 21.845,1.104 21.854,1.122 21.863,1.139 21.871,1.156 21.878,1.174 
  		21.886,1.192 21.893,1.21 21.899,1.229 21.905,1.248 21.911,1.267 21.916,1.286 21.92,1.305 21.925,1.324 21.928,1.344 
  		21.932,1.363 21.934,1.383 21.937,1.403 21.938,1.423 21.939,1.442 21.94,1.462 21.94,1.483 21.94,25.518 21.94,25.537 
  		21.939,25.559 21.938,25.578 21.937,25.598 21.934,25.617 21.932,25.637 21.928,25.656 21.925,25.676 21.92,25.695 21.916,25.715 
  		21.911,25.734 21.905,25.753 21.899,25.771 21.893,25.79 21.886,25.809 21.878,25.826 	"/>
  	<path display="inline" fill="none" stroke="#000000" stroke-linecap="square" stroke-miterlimit="10" d="M8.54,6.1L8.54,6.1
  		c0.884,0,1.601-0.716,1.601-1.6c0-0.884-0.717-1.6-1.601-1.6s-1.6,0.716-1.6,1.6C6.94,5.384,7.656,6.1,8.54,6.1"/>
  </g>
</g>
<g id="DDPAK">
  <g id="MASK" display="none">
  	<rect x="0.5" y="2.095" display="inline" stroke="#000000" width="4.77" height="38.678"/>
  	<rect x="46.733" y="3.822" display="inline" stroke="#000000" width="18.181" height="6.248"/>
  	<rect x="47.021" y="18.443" display="inline" stroke="#000000" width="8.608" height="6.38"/>
  	<rect x="47.031" y="32.797" display="inline" stroke="#000000" width="17.597" height="6.513"/>
  	<rect x="64.914" y="3.822" display="inline" stroke="#000000" width="3.586" height="6.248"/>
  	<rect x="64.628" y="32.797" display="inline" stroke="#000000" width="3.872" height="6.516"/>
  	<rect x="5.414" y="0.5" display="inline" stroke="#000000" width="41.466" height="42"/>
  </g>
  <g id="COLOR">
  	<rect x="0.5" y="2.095" fill="#C9CDD3" stroke="#231F20" width="4.77" height="38.678"/>
  	<rect x="46.733" y="3.822" fill="#C9CDD3" stroke="#231F20" width="18.181" height="6.248"/>
  	<rect x="47.021" y="18.443" fill="#C9CDD3" stroke="#231F20" width="8.608" height="6.38"/>
  	<rect x="46.939" y="32.797" fill="#C9CDD3" stroke="#231F20" width="17.688" height="6.513"/>
  	<rect x="64.914" y="3.822" fill="#C9CDD3" stroke="#231F20" width="3.586" height="6.248"/>
  	<rect x="64.628" y="32.797" fill="#C9CDD3" stroke="#231F20" width="3.872" height="6.516"/>
  	<rect x="5.414" y="0.5" fill="#737A7F" stroke="#231F20" width="41.466" height="42"/>
  </g>
  <g id="OUTLINE" display="none">
  	<rect x="0.5" y="2.095" display="inline" fill="none" stroke="#231F20" width="4.77" height="38.678"/>
  	<rect x="46.919" y="3.822" display="inline" fill="none" stroke="#231F20" width="17.995" height="6.248"/>
  	<rect x="47.021" y="18.443" display="inline" fill="none" stroke="#231F20" width="8.608" height="6.38"/>
  	<rect x="47.031" y="32.797" display="inline" fill="none" stroke="#231F20" width="17.597" height="6.513"/>
  	<rect x="64.914" y="3.822" display="inline" fill="none" stroke="#231F20" width="3.586" height="6.248"/>
  	<rect x="64.628" y="32.797" display="inline" fill="none" stroke="#231F20" width="3.872" height="6.516"/>
  	<rect x="5.414" y="0.5" display="inline" fill="none" stroke="#231F20" width="41.466" height="42"/>
  </g>
</g>
<g id="SRP6540">
  <g id="Mask" display="none">
  	<rect x="1.796" y="0.286" display="inline" stroke="#000000" width="26.967" height="26.8"/>
  	<rect x="28.445" y="9.666" display="inline" stroke="#000000" width="1.768" height="8.04"/>
  	<rect x="0.415" y="9.666" display="inline" stroke="#000000" width="1.862" height="8.04"/>
  </g>
  <g id="Color">
  	<rect x="1.796" y="0.286" fill="#404040" stroke="#000000" stroke-width="0.5714" width="26.967" height="26.8"/>
  	<rect x="28.658" y="9.666" fill="#E6E6E6" stroke="#000000" width="1.768" height="8.04"/>
  	<rect x="0.213" y="9.666" fill="#E6E6E6" stroke="#000000" width="1.766" height="8.04"/>
  </g>
  <g id="Outline" display="none">
  	<rect x="1.796" y="0.286" display="inline" fill="none" stroke="#000000" stroke-width="0.5714" width="26.967" height="26.8"/>
  	<rect x="28.658" y="9.666" display="inline" fill="none" stroke="#000000" stroke-width="0.4259" width="1.768" height="8.04"/>
  	<rect x="0.213" y="9.666" display="inline" fill="none" stroke="#000000" stroke-width="0.4259" width="1.766" height="8.04"/>
  </g>
</g>
</defs>
<g id="boardComps">
  <g id="topview_images">
    <use x="32.0" y="82.0" width="6.0" height="3.0" name="51_C1_0603" xlink:href="#0603" />
    <use x="91.0" y="119.0" width="4.0" height="2.0" transform="rotate(-90.0 93.0 120.0)" name="32_Cboot_0402" xlink:href="#0402" />
    <use x="55.0" y="183.0" width="4.0" height="2.0" transform="rotate(-180.0 57.0 184.0)" name="30_Ccomp_0402" xlink:href="#0402" />
    <use x="33.0" y="159.0" width="4.0" height="2.0" transform="rotate(-180.0 35.0 160.0)" name="31_Ccomp2_0402" xlink:href="#0402" />
    <use x="172.0" y="67.0" width="9.0" height="7.0" transform="rotate(-180.0 176.0 71.0)" name="29_Cin_1210_250" xlink:href="#1210_250" />
    <use x="69.0" y="101.0" width="8.0" height="5.0" name="28_Cinx_0805" xlink:href="#0805" />
    <use x="70.0" y="216.0" width="12.0" height="6.0" transform="rotate(-180.0 77.0 219.0)" name="27_Cout_1206_180" xlink:href="#1206_180" />
    <use x="34.0" y="121.0" width="4.0" height="2.0" transform="rotate(-180.0 36.0 122.0)" name="26_Cramp_0402" xlink:href="#0402" />
    <use x="125.0" y="138.0" width="8.0" height="5.0" transform="rotate(-270.0 129.0 141.0)" name="25_Csnub_0805" xlink:href="#0805" />
    <use x="31.0" y="145.0" width="8.0" height="5.0" transform="rotate(-180.0 35.0 148.0)" name="24_Css_0805" xlink:href="#0805" />
    <use x="30.0" y="181.0" width="8.0" height="5.0" transform="rotate(-180.0 34.0 183.0)" name="50_Csync_0805" xlink:href="#0805" />
    <use x="89.0" y="138.0" width="8.0" height="5.0" transform="rotate(-270.0 93.0 141.0)" name="23_Cvcc_0805" xlink:href="#0805" />
    <use x="101.0" y="138.0" width="8.0" height="5.0" transform="rotate(-270.0 105.0 141.0)" name="33_Cvccx_0805" xlink:href="#0805" />
    <use x="105.0" y="116.0" width="6.0" height="3.0" transform="rotate(-270.0 108.0 118.0)" name="22_D1_SOD-523" xlink:href="#SOD-523" />
    <use x="40.0" y="83.0" width="23.0" height="12.0" transform="rotate(-90.0 52.0 90.0)" name="21_D2_SMA" xlink:href="#SMA" />
    <use x="117.0" y="103.0" width="21.0" height="15.0" transform="rotate(-270.0 128.0 111.0)" name="37_D3_SMB" xlink:href="#SMB" />
    <rect x="28.0" y="42.0" width="6.0" height="6.0" transform="rotate(-180.0 31.0 45.0)" name="9_EN_TP-1502" style="fill:white;stroke:black;stroke-width:1;" />
    <rect x="124.0" y="13.0" width="6.0" height="6.0" transform="rotate(-270.0 127.0 16.0)" name="7_GND_TP-1502" style="fill:white;stroke:black;stroke-width:1;" />
    <rect x="27.0" y="265.0" width="6.0" height="6.0" transform="rotate(-180.0 30.0 268.0)" name="6_GND1_TP-1502" style="fill:white;stroke:black;stroke-width:1;" />
    <use x="184.0" y="101.0" width="25.0" height="21.0" transform="rotate(-90.0 197.0 111.0)" name="1_M1_TRANS_NexFET_Q5A" xlink:href="#TRANS_NexFET_Q5A" />
    <rect x="124.0" y="69.0" width="9.0" height="3.0" transform="rotate(-270.0 128.0 71.0)" name="38_NT1_NET_TIED" style="fill:white;stroke:black;stroke-width:1;" />
    <use x="56.0" y="170.0" width="4.0" height="2.0" name="20_Rcomp_0402" xlink:href="#0402" />
    <use x="75.0" y="158.0" width="8.0" height="5.0" transform="rotate(-90.0 79.0 160.0)" name="19_Rdemb_0805" xlink:href="#0805" />
    <use x="33.0" y="59.0" width="4.0" height="2.0" transform="rotate(-180.0 35.0 60.0)" name="18_Renable_0402" xlink:href="#0402" />
    <use x="31.0" y="168.0" width="8.0" height="5.0" transform="rotate(-180.0 35.0 171.0)" name="17_Rfbb_0805" xlink:href="#0805" />
    <use x="55.0" y="195.0" width="4.0" height="2.0" transform="rotate(-180.0 57.0 196.0)" name="16_Rfbt_0402" xlink:href="#0402" />
    <use x="31.0" y="130.0" width="8.0" height="5.0" transform="rotate(-180.0 35.0 133.0)" name="3_Rramp_0805" xlink:href="#0805" />
    <use x="120.0" y="71.0" width="14.0" height="8.0" transform="rotate(-90.0 127.0 75.0)" name="14_Rsense_1206" xlink:href="#1206" />
    <use x="114.0" y="138.0" width="8.0" height="5.0" transform="rotate(-90.0 118.0 141.0)" name="15_Rsnub_0805" xlink:href="#0805" />
    <use x="33.0" y="107.0" width="4.0" height="2.0" transform="rotate(-180.0 35.0 108.0)" name="13_Rt_0402" xlink:href="#0402" />
    <use x="31.0" y="93.0" width="8.0" height="5.0" transform="rotate(-180.0 35.0 96.0)" name="12_Ruv1_0805" xlink:href="#0805" />
    <use x="31.0" y="70.0" width="8.0" height="5.0" transform="rotate(-180.0 35.0 72.0)" name="11_Ruv2_0805" xlink:href="#0805" />
    <rect x="26.0" y="200.0" width="6.0" height="6.0" transform="rotate(-180.0 30.0 204.0)" name="49_Sync_TP-1502" style="fill:white;stroke:black;stroke-width:1;" />
    <use x="54.0" y="121.0" width="26.0" height="27.0" name="4_U1_MXA20A" xlink:href="#MXA20A" />
    <rect x="120.0" y="200.0" width="6.0" height="6.0" name="2_VCCX_TP-1502" style="fill:white;stroke:black;stroke-width:1;" />
    <rect x="222.0" y="13.0" width="6.0" height="6.0" transform="rotate(-180.0 225.0 16.0)" name="10_VIN_TP-1502" style="fill:white;stroke:black;stroke-width:1;" />
    <rect x="118.0" y="265.0" width="6.0" height="6.0" name="5_VOUT_TP-1502" style="fill:white;stroke:black;stroke-width:1;" />
    <use x="124.0" y="90.0" width="69.0" height="43.0" transform="rotate(-90.0 158.0 112.0)" name="39_M2_DDPAK" xlink:href="#DDPAK" />
    <use x="179.0" y="166.0" width="30.0" height="27.0" transform="rotate(-270.0 194.0 180.0)" name="40_L1_SRP6540" xlink:href="#SRP6540" />
  </g>
</g>
</svg>
