<?xml version="1.0" encoding="UTF-8"?>
<!DOCTYPE svg PUBLIC "-//W3C//DTD SVG 1.1//EN" "http://www.w3.org/Graphics/SVG/1.1/DTD/svg11.dtd">

<svg xmlns="http://www.w3.org/2000/svg" xmlns:xlink="http://www.w3.org/1999/xlink" width="247px" height="284.4px" viewbox="0 0 247 284.4" version="1.1">
  <title>LM5116_MXA20A_A_CU1_bottom: null</title>
  <desc>LM5116_MXA20A_A_CU1 WebTHERM&amp;reg; Board Layout file</desc>
  <g id="board" fill-opacity="1" transform="scale(0.1016,-0.1016) translate(0,-2800.0)">
    <rect x="0" y="0" width="2440" height="2800" stroke="#006600" stroke-width="0" fill="#006600" type="Fill" layer="PCB" />
    <polygon net="6" points="2420,1530 1752,1530 1752,1845 2420,1845" stroke-width="0.0" stroke="#ff9900" fill="#ff9900" stroke-linecap="round" stroke-linejoin="round" opacity="1.0" layer="BOTTOM" />
    <polygon net="1" points="1740,1530 1061,1530 1060,1531 1060,1845 1740,1845" stroke-width="0.0" stroke="#ff9900" fill="#ff9900" stroke-linecap="round" stroke-linejoin="round" opacity="1.0" layer="BOTTOM" />
    <polygon net="8" points="2420,1857 1750,1857 1745,1856 1745,1856 1744,1856 1740,1857 1630,1857 1623,1864 1624,1870 1623,1879 1617,1887 1609,1893 1600,1894 1590,1893 1589,1892 1380,1892 1379,1893 1370,1894 1360,1893 1359,1892 1142,1892 1139,1901 1273,2035 1279,2036 1287,2042 1293,2050 1294,2060 1293,2069 1287,2077 1279,2083 1270,2084 1260,2083 1252,2077 1247,2077 1239,2083 1230,2084 1220,2083 1212,2077 1206,2069 1205,2063 1080,1938 1004,1938 997,1936 991,1932 746,1687 742,1681 740,1674 740,1430 742,1422 746,1416 814,1347 815,1342 809,1334 575,1334 361,1548 364,1557 460,1557 465,1554 465,1544 457,1539 451,1531 450,1522 451,1512 457,1504 465,1498 475,1497 484,1498 490,1502 497,1502 504,1504 510,1508 532,1530 536,1536 538,1544 538,2138 536,2145 532,2151 359,2324 364,2335 365,2350 364,2364 358,2377 349,2389 337,2398 324,2404 310,2405 295,2404 282,2398 270,2389 261,2377 255,2364 254,2350 255,2335 261,2322 270,2310 282,2301 295,2295 310,2294 324,2295 330,2298 499,2129 499,1601 490,1596 485,1600 476,1601 466,1600 460,1596 308,1596 300,1594 294,1590 281,1577 277,1571 275,1564 275,1563 275,1563 275,1006 277,998 281,992 347,925 348,920 354,912 362,906 372,905 381,906 389,912 395,920 396,930 395,939 389,947 381,953 373,954 314,1014 314,1521 323,1526 323,1525 329,1524 546,1308 545,1298 543,1296 537,1288 533,1279 532,1270 533,1260 537,1251 543,1243 551,1237 560,1233 570,1232 574,1233 1177,630 1177,237 1168,235 1154,227 1142,217 1132,205 1124,191 1120,175 1118,160 1120,144 1124,128 1132,114 1142,102 1154,92 1168,84 1184,80 1200,78 1215,80 1231,84 1245,92 1257,102 1267,114 1275,128 1279,144 1281,160 1279,175 1275,191 1267,205 1257,217 1245,227 1231,235 1222,237 1222,640 1220,648 1215,655 606,1265 607,1270 606,1279 602,1287 608,1295 935,1295 942,1297 948,1301 993,1346 997,1352 999,1360 999,1434 1003,1440 1004,1450 1003,1459 999,1465 999,1515 1008,1519 1039,1489 1046,1484 1055,1482 1087,1482 1090,1473 1082,1467 1076,1459 1075,1450 1076,1440 1081,1434 1081,920 1081,920 1081,920 1082,912 1086,906 1169,823 1165,814 1164,800 1165,785 1171,772 1180,760 1192,751 1205,745 1220,744 1234,745 1247,751 1259,760 1268,772 1274,785 1275,800 1274,814 1268,827 1259,839 1247,848 1234,854 1220,855 1205,854 1196,850 1118,927 1118,1434 1123,1440 1124,1450 1123,1459 1117,1467 1109,1473 1112,1482 1719,1482 1720,1481 1730,1480 1739,1481 1740,1482 2019,1482 2020,1481 2030,1480 2039,1481 2047,1487 2053,1495 2054,1505 2053,1510 2060,1517 2420,1517 2420,20 20,20 20,2780 2420,2780" stroke-width="0.0" stroke="#ff9900" fill="#ff9900" stroke-linecap="round" stroke-linejoin="round" opacity="1.0" layer="BOTTOM" />
    <polygon net="8" points="2220,2721 2204,2719 2188,2715 2174,2707 2162,2697 2152,2685 2144,2671 2140,2655 2138,2640 2140,2624 2144,2608 2152,2594 2162,2582 2174,2572 2188,2564 2204,2560 2220,2558 2235,2560 2251,2564 2265,2572 2277,2582 2287,2594 2295,2608 2299,2624 2301,2640 2299,2655 2295,2671 2287,2685 2277,2697 2265,2707 2251,2715 2235,2719" stroke-width="0.0" stroke="#006600" fill="#006600" stroke-linecap="round" stroke-linejoin="round" opacity="1.0" layer="BOTTOM" />
    <polygon net="8" points="300,855 285,854 272,848 260,839 251,827 245,814 244,800 245,785 251,772 260,760 272,751 285,745 300,744 314,745 327,751 339,760 348,772 354,785 355,800 354,814 348,827 339,839 327,848 314,854" stroke-width="0.0" stroke="#006600" fill="#006600" stroke-linecap="round" stroke-linejoin="round" opacity="1.0" layer="BOTTOM" />
    <line net="0" x1="1100" y1="920" x2="1220" y2="800" stroke-width="13" stroke="#ff9900" stroke-linecap="round" stroke-linejoin="round" opacity="1.0" layer="BOTTOM" />
    <line net="0" x1="1100" y1="920" x2="1100" y2="1450" stroke-width="13" stroke="#ff9900" stroke-linecap="round" stroke-linejoin="round" opacity="1.0" layer="BOTTOM" />
    <line net="3" x1="570" y1="1270" x2="1200" y2="640" stroke-width="20" stroke="#ff9900" stroke-linecap="round" stroke-linejoin="round" opacity="1.0" layer="BOTTOM" />
    <line net="8" x1="839" y1="1455" x2="840" y2="1455" stroke-width="14" stroke="#ff9900" stroke-linecap="round" stroke-linejoin="round" opacity="1.0" layer="BOTTOM" />
    <line net="9" x1="332" y1="1550" x2="333" y2="1549" stroke-width="14" stroke="#ff9900" stroke-linecap="round" stroke-linejoin="round" opacity="1.0" layer="BOTTOM" />
    <line net="10" x1="295" y1="1564" x2="308" y2="1577" stroke-width="14" stroke="#ff9900" stroke-linecap="round" stroke-linejoin="round" opacity="1.0" layer="BOTTOM" />
    <line net="10" x1="295" y1="1006" x2="295" y2="1563" stroke-width="14" stroke="#ff9900" stroke-linecap="round" stroke-linejoin="round" opacity="1.0" layer="BOTTOM" />
    <line net="10" x1="295" y1="1006" x2="370" y2="930" stroke-width="14" stroke="#ff9900" stroke-linecap="round" stroke-linejoin="round" opacity="1.0" layer="BOTTOM" />
    <line net="10" x1="308" y1="1577" x2="477" y2="1577" stroke-width="14" stroke="#ff9900" stroke-linecap="round" stroke-linejoin="round" opacity="1.0" layer="BOTTOM" />
    <line net="15" x1="310" y1="2347" x2="519" y2="2138" stroke-width="14" stroke="#ff9900" stroke-linecap="round" stroke-linejoin="round" opacity="1.0" layer="BOTTOM" />
    <line net="15" x1="474" y1="1522" x2="497" y2="1522" stroke-width="14" stroke="#ff9900" stroke-linecap="round" stroke-linejoin="round" opacity="1.0" layer="BOTTOM" />
    <line net="15" x1="497" y1="1522" x2="519" y2="1544" stroke-width="14" stroke="#ff9900" stroke-linecap="round" stroke-linejoin="round" opacity="1.0" layer="BOTTOM" />
    <line net="15" x1="519" y1="1544" x2="519" y2="2138" stroke-width="14" stroke="#ff9900" stroke-linecap="round" stroke-linejoin="round" opacity="1.0" layer="BOTTOM" />
    <line net="9" x1="980" y1="1535" x2="980" y2="1540" stroke-width="10" stroke="#ff9900" stroke-linecap="round" stroke-linejoin="round" opacity="1.0" layer="BOTTOM" />
    <line net="9" x1="333" y1="1549" x2="567" y2="1315" stroke-width="14" stroke="#ff9900" stroke-linecap="round" stroke-linejoin="round" opacity="1.0" layer="BOTTOM" />
    <line net="9" x1="567" y1="1315" x2="935" y2="1315" stroke-width="14" stroke="#ff9900" stroke-linecap="round" stroke-linejoin="round" opacity="1.0" layer="BOTTOM" />
    <line net="9" x1="935" y1="1315" x2="980" y2="1360" stroke-width="14" stroke="#ff9900" stroke-linecap="round" stroke-linejoin="round" opacity="1.0" layer="BOTTOM" />
    <line net="9" x1="980" y1="1360" x2="980" y2="1450" stroke-width="14" stroke="#ff9900" stroke-linecap="round" stroke-linejoin="round" opacity="1.0" layer="BOTTOM" />
    <line net="9" x1="980" y1="1450" x2="980" y2="1535" stroke-width="14" stroke="#ff9900" stroke-linecap="round" stroke-linejoin="round" opacity="1.0" layer="BOTTOM" />
    <line net="16" x1="760" y1="1430" x2="839" y2="1351" stroke-width="14" stroke="#ff9900" stroke-linecap="round" stroke-linejoin="round" opacity="1.0" layer="BOTTOM" />
    <line net="3" x1="1200" y1="150" x2="1200" y2="640" stroke-width="20" stroke="#ff9900" stroke-linecap="round" stroke-linejoin="round" opacity="1.0" layer="BOTTOM" />
    <line net="16" x1="1230" y1="2060" x2="1230" y2="2061" stroke-width="14" stroke="#ff9900" stroke-linecap="round" stroke-linejoin="round" opacity="1.0" layer="BOTTOM" />
    <line net="8" x1="814" y1="1480" x2="840" y2="1455" stroke-width="20" stroke="#ff9900" stroke-linecap="round" stroke-linejoin="round" opacity="1.0" layer="BOTTOM" />
    <line net="0" x1="782" y1="1454" x2="840" y2="1396" stroke-width="14" stroke="#ff9900" stroke-linecap="round" stroke-linejoin="round" opacity="1.0" layer="BOTTOM" />
    <line net="16" x1="760" y1="1430" x2="760" y2="1674" stroke-width="14" stroke="#ff9900" stroke-linecap="round" stroke-linejoin="round" opacity="1.0" layer="BOTTOM" />
    <line net="0" x1="782" y1="1454" x2="782" y2="1665" stroke-width="14" stroke="#ff9900" stroke-linecap="round" stroke-linejoin="round" opacity="1.0" layer="BOTTOM" />
    <line net="8" x1="814" y1="1480" x2="814" y2="1653" stroke-width="20" stroke="#ff9900" stroke-linecap="round" stroke-linejoin="round" opacity="1.0" layer="BOTTOM" />
    <line net="0" x1="1106" y1="1896" x2="1270" y2="2060" stroke-width="14" stroke="#ff9900" stroke-linecap="round" stroke-linejoin="round" opacity="1.0" layer="BOTTOM" />
    <line net="8" x1="814" y1="1653" x2="1031" y2="1870" stroke-width="20" stroke="#ff9900" stroke-linecap="round" stroke-linejoin="round" opacity="1.0" layer="BOTTOM" />
    <line net="8" x1="1031" y1="1870" x2="1600" y2="1870" stroke-width="20" stroke="#ff9900" stroke-linecap="round" stroke-linejoin="round" opacity="1.0" layer="BOTTOM" />
    <line net="0" x1="782" y1="1665" x2="1013" y2="1896" stroke-width="14" stroke="#ff9900" stroke-linecap="round" stroke-linejoin="round" opacity="1.0" layer="BOTTOM" />
    <line net="0" x1="1013" y1="1896" x2="1106" y2="1896" stroke-width="14" stroke="#ff9900" stroke-linecap="round" stroke-linejoin="round" opacity="1.0" layer="BOTTOM" />
    <line net="16" x1="760" y1="1674" x2="1004" y2="1919" stroke-width="14" stroke="#ff9900" stroke-linecap="round" stroke-linejoin="round" opacity="1.0" layer="BOTTOM" />
    <line net="16" x1="1004" y1="1919" x2="1089" y2="1919" stroke-width="14" stroke="#ff9900" stroke-linecap="round" stroke-linejoin="round" opacity="1.0" layer="BOTTOM" />
    <line net="16" x1="1089" y1="1919" x2="1221" y2="2051" stroke-width="14" stroke="#ff9900" stroke-linecap="round" stroke-linejoin="round" opacity="1.0" layer="BOTTOM" />
    <line net="4" x1="1730" y1="1505" x2="2030" y2="1505" stroke-width="20" stroke="#ff9900" stroke-linecap="round" stroke-linejoin="round" opacity="1.0" layer="BOTTOM" />
    <line net="4" x1="851" y1="1570" x2="990" y2="1570" stroke-width="20" stroke="#ff9900" stroke-linecap="round" stroke-linejoin="round" opacity="1.0" layer="BOTTOM" />
    <line net="4" x1="990" y1="1570" x2="1055" y2="1505" stroke-width="20" stroke="#ff9900" stroke-linecap="round" stroke-linejoin="round" opacity="1.0" layer="BOTTOM" />
    <line net="4" x1="1055" y1="1505" x2="1730" y2="1505" stroke-width="20" stroke="#ff9900" stroke-linecap="round" stroke-linejoin="round" opacity="1.0" layer="BOTTOM" />
    <line net="1" x1="1635" y1="1615" x2="1635" y2="1710" stroke-width="14" stroke="#ff9900" stroke-linecap="round" stroke-linejoin="round" opacity="1.0" layer="BOTTOM" />
    <line net="1" x1="850" y1="1615" x2="1635" y2="1615" stroke-width="14" stroke="#ff9900" stroke-linecap="round" stroke-linejoin="round" opacity="1.0" layer="BOTTOM" />
    <circle net="0" cx="1100" cy="1450" r="9.7" r1="12" r2="7" stroke-width="5" stroke="#ff9900" fill="#ffffff" opacity="1" layer="MULTILAYER" />
    <circle net="1" cx="850" cy="1615" r="9.7" r1="12" r2="7" stroke-width="5" stroke="#ff9900" fill="#ffffff" opacity="1" layer="MULTILAYER" />
    <circle net="8" cx="630" cy="1489" r="7.2" r1="9" r2="5" stroke-width="4" stroke="#ff9900" fill="#ffffff" opacity="1" layer="MULTILAYER" />
    <circle net="8" cx="630" cy="1450" r="7.2" r1="9" r2="5" stroke-width="4" stroke="#ff9900" fill="#ffffff" opacity="1" layer="MULTILAYER" />
    <circle net="8" cx="630" cy="1410" r="7.2" r1="9" r2="5" stroke-width="4" stroke="#ff9900" fill="#ffffff" opacity="1" layer="MULTILAYER" />
    <circle net="8" cx="709" cy="1410" r="7.2" r1="9" r2="5" stroke-width="4" stroke="#ff9900" fill="#ffffff" opacity="1" layer="MULTILAYER" />
    <circle net="8" cx="670" cy="1410" r="7.2" r1="9" r2="5" stroke-width="4" stroke="#ff9900" fill="#ffffff" opacity="1" layer="MULTILAYER" />
    <circle net="8" cx="709" cy="1450" r="7.2" r1="9" r2="5" stroke-width="4" stroke="#ff9900" fill="#ffffff" opacity="1" layer="MULTILAYER" />
    <circle net="8" cx="670" cy="1450" r="7.2" r1="9" r2="5" stroke-width="4" stroke="#ff9900" fill="#ffffff" opacity="1" layer="MULTILAYER" />
    <circle net="8" cx="709" cy="1489" r="7.2" r1="9" r2="5" stroke-width="4" stroke="#ff9900" fill="#ffffff" opacity="1" layer="MULTILAYER" />
    <circle net="8" cx="670" cy="1489" r="7.2" r1="9" r2="5" stroke-width="4" stroke="#ff9900" fill="#ffffff" opacity="1" layer="MULTILAYER" />
    <circle net="8" cx="709" cy="1529" r="7.2" r1="9" r2="5" stroke-width="4" stroke="#ff9900" fill="#ffffff" opacity="1" layer="MULTILAYER" />
    <circle net="8" cx="670" cy="1529" r="7.2" r1="9" r2="5" stroke-width="4" stroke="#ff9900" fill="#ffffff" opacity="1" layer="MULTILAYER" />
    <circle net="8" cx="630" cy="1529" r="7.2" r1="9" r2="5" stroke-width="4" stroke="#ff9900" fill="#ffffff" opacity="1" layer="MULTILAYER" />
    <circle net="4" cx="851" cy="1570" r="9.7" r1="12" r2="7" stroke-width="5" stroke="#ff9900" fill="#ffffff" opacity="1" layer="MULTILAYER" />
    <circle net="3" cx="570" cy="1270" r="19" r1="25" r2="14" stroke-width="11" stroke="#ff9900" fill="#ffffff" opacity="1" layer="MULTILAYER" />
    <circle net="8" cx="840" cy="1455" r="9.7" r1="12" r2="7" stroke-width="5" stroke="#ff9900" fill="#ffffff" opacity="1" layer="MULTILAYER" />
    <circle net="10" cx="476" cy="1577" r="9.7" r1="12" r2="7" stroke-width="5" stroke="#ff9900" fill="#ffffff" opacity="1" layer="MULTILAYER" />
    <circle net="10" cx="372" cy="930" r="9.7" r1="12" r2="7" stroke-width="5" stroke="#ff9900" fill="#ffffff" opacity="1" layer="MULTILAYER" />
    <circle net="15" cx="475" cy="1522" r="9.7" r1="12" r2="7" stroke-width="5" stroke="#ff9900" fill="#ffffff" opacity="1" layer="MULTILAYER" />
    <circle net="9" cx="333" cy="1549" r="9.7" r1="12" r2="7" stroke-width="5" stroke="#ff9900" fill="#ffffff" opacity="1" layer="MULTILAYER" />
    <circle net="16" cx="839" cy="1351" r="9.7" r1="12" r2="7" stroke-width="5" stroke="#ff9900" fill="#ffffff" opacity="1" layer="MULTILAYER" />
    <circle net="9" cx="980" cy="1450" r="9.7" r1="12" r2="7" stroke-width="5" stroke="#ff9900" fill="#ffffff" opacity="1" layer="MULTILAYER" />
    <circle net="0" cx="840" cy="1396" r="9.7" r1="12" r2="7" stroke-width="5" stroke="#ff9900" fill="#ffffff" opacity="1" layer="MULTILAYER" />
    <circle net="9" cx="980" cy="1535" r="9.7" r1="12" r2="7" stroke-width="5" stroke="#ff9900" fill="#ffffff" opacity="1" layer="MULTILAYER" />
    <circle net="16" cx="1600" cy="1870" r="9.7" r1="12" r2="7" stroke-width="5" stroke="#ff9900" fill="#ffffff" opacity="1" layer="MULTILAYER" />
    <circle net="16" cx="1730" cy="1505" r="9.7" r1="12" r2="7" stroke-width="5" stroke="#ff9900" fill="#ffffff" opacity="1" layer="MULTILAYER" />
    <circle net="4" cx="2030" cy="1505" r="9.7" r1="12" r2="7" stroke-width="5" stroke="#ff9900" fill="#ffffff" opacity="1" layer="MULTILAYER" />
    <circle net="16" cx="1370" cy="1870" r="9.7" r1="12" r2="7" stroke-width="5" stroke="#ff9900" fill="#ffffff" opacity="1" layer="MULTILAYER" />
    <circle net="16" cx="1230" cy="2060" r="9.7" r1="12" r2="7" stroke-width="5" stroke="#ff9900" fill="#ffffff" opacity="1" layer="MULTILAYER" />
    <circle net="8" cx="420" cy="80" r="9.7" r1="12" r2="7" stroke-width="5" stroke="#ff9900" fill="#ffffff" opacity="1" layer="MULTILAYER" />
    <circle net="8" cx="420" cy="120" r="9.7" r1="12" r2="7" stroke-width="5" stroke="#ff9900" fill="#ffffff" opacity="1" layer="MULTILAYER" />
    <circle net="8" cx="420" cy="160" r="9.7" r1="12" r2="7" stroke-width="5" stroke="#ff9900" fill="#ffffff" opacity="1" layer="MULTILAYER" />
    <circle net="8" cx="420" cy="200" r="9.7" r1="12" r2="7" stroke-width="5" stroke="#ff9900" fill="#ffffff" opacity="1" layer="MULTILAYER" />
    <circle net="8" cx="420" cy="240" r="9.7" r1="12" r2="7" stroke-width="5" stroke="#ff9900" fill="#ffffff" opacity="1" layer="MULTILAYER" />
    <circle net="8" cx="420" cy="280" r="9.7" r1="12" r2="7" stroke-width="5" stroke="#ff9900" fill="#ffffff" opacity="1" layer="MULTILAYER" />
    <circle net="8" cx="420" cy="320" r="9.7" r1="12" r2="7" stroke-width="5" stroke="#ff9900" fill="#ffffff" opacity="1" layer="MULTILAYER" />
    <circle net="8" cx="420" cy="360" r="9.7" r1="12" r2="7" stroke-width="5" stroke="#ff9900" fill="#ffffff" opacity="1" layer="MULTILAYER" />
    <circle net="8" cx="420" cy="400" r="9.7" r1="12" r2="7" stroke-width="5" stroke="#ff9900" fill="#ffffff" opacity="1" layer="MULTILAYER" />
    <circle net="8" cx="420" cy="440" r="9.7" r1="12" r2="7" stroke-width="5" stroke="#ff9900" fill="#ffffff" opacity="1" layer="MULTILAYER" />
    <circle net="8" cx="420" cy="480" r="9.7" r1="12" r2="7" stroke-width="5" stroke="#ff9900" fill="#ffffff" opacity="1" layer="MULTILAYER" />
    <circle net="8" cx="420" cy="520" r="9.7" r1="12" r2="7" stroke-width="5" stroke="#ff9900" fill="#ffffff" opacity="1" layer="MULTILAYER" />
    <circle net="8" cx="420" cy="560" r="9.7" r1="12" r2="7" stroke-width="5" stroke="#ff9900" fill="#ffffff" opacity="1" layer="MULTILAYER" />
    <circle net="8" cx="420" cy="600" r="9.7" r1="12" r2="7" stroke-width="5" stroke="#ff9900" fill="#ffffff" opacity="1" layer="MULTILAYER" />
    <circle net="8" cx="420" cy="640" r="9.7" r1="12" r2="7" stroke-width="5" stroke="#ff9900" fill="#ffffff" opacity="1" layer="MULTILAYER" />
    <circle net="8" cx="420" cy="680" r="9.7" r1="12" r2="7" stroke-width="5" stroke="#ff9900" fill="#ffffff" opacity="1" layer="MULTILAYER" />
    <circle net="8" cx="420" cy="720" r="9.7" r1="12" r2="7" stroke-width="5" stroke="#ff9900" fill="#ffffff" opacity="1" layer="MULTILAYER" />
    <circle net="8" cx="420" cy="760" r="9.7" r1="12" r2="7" stroke-width="5" stroke="#ff9900" fill="#ffffff" opacity="1" layer="MULTILAYER" />
    <circle net="8" cx="1400" cy="2700" r="9.7" r1="12" r2="7" stroke-width="5" stroke="#ff9900" fill="#ffffff" opacity="1" layer="MULTILAYER" />
    <circle net="8" cx="1400" cy="2660" r="9.7" r1="12" r2="7" stroke-width="5" stroke="#ff9900" fill="#ffffff" opacity="1" layer="MULTILAYER" />
    <circle net="8" cx="1400" cy="2620" r="9.7" r1="12" r2="7" stroke-width="5" stroke="#ff9900" fill="#ffffff" opacity="1" layer="MULTILAYER" />
    <circle net="8" cx="1400" cy="2580" r="9.7" r1="12" r2="7" stroke-width="5" stroke="#ff9900" fill="#ffffff" opacity="1" layer="MULTILAYER" />
    <circle net="8" cx="1400" cy="2540" r="9.7" r1="12" r2="7" stroke-width="5" stroke="#ff9900" fill="#ffffff" opacity="1" layer="MULTILAYER" />
    <circle net="8" cx="1400" cy="2500" r="9.7" r1="12" r2="7" stroke-width="5" stroke="#ff9900" fill="#ffffff" opacity="1" layer="MULTILAYER" />
    <circle net="8" cx="1400" cy="2460" r="9.7" r1="12" r2="7" stroke-width="5" stroke="#ff9900" fill="#ffffff" opacity="1" layer="MULTILAYER" />
    <circle net="8" cx="1400" cy="2420" r="9.7" r1="12" r2="7" stroke-width="5" stroke="#ff9900" fill="#ffffff" opacity="1" layer="MULTILAYER" />
    <circle net="8" cx="1400" cy="2380" r="9.7" r1="12" r2="7" stroke-width="5" stroke="#ff9900" fill="#ffffff" opacity="1" layer="MULTILAYER" />
    <circle net="8" cx="1400" cy="2340" r="9.7" r1="12" r2="7" stroke-width="5" stroke="#ff9900" fill="#ffffff" opacity="1" layer="MULTILAYER" />
    <circle net="8" cx="1400" cy="2300" r="9.7" r1="12" r2="7" stroke-width="5" stroke="#ff9900" fill="#ffffff" opacity="1" layer="MULTILAYER" />
    <circle net="8" cx="1400" cy="2260" r="9.7" r1="12" r2="7" stroke-width="5" stroke="#ff9900" fill="#ffffff" opacity="1" layer="MULTILAYER" />
    <circle net="8" cx="1400" cy="2220" r="9.7" r1="12" r2="7" stroke-width="5" stroke="#ff9900" fill="#ffffff" opacity="1" layer="MULTILAYER" />
    <circle net="8" cx="1400" cy="2180" r="9.7" r1="12" r2="7" stroke-width="5" stroke="#ff9900" fill="#ffffff" opacity="1" layer="MULTILAYER" />
    <circle net="8" cx="1400" cy="2140" r="9.7" r1="12" r2="7" stroke-width="5" stroke="#ff9900" fill="#ffffff" opacity="1" layer="MULTILAYER" />
    <circle net="8" cx="1400" cy="2100" r="9.7" r1="12" r2="7" stroke-width="5" stroke="#ff9900" fill="#ffffff" opacity="1" layer="MULTILAYER" />
    <circle net="8" cx="1400" cy="2060" r="9.7" r1="12" r2="7" stroke-width="5" stroke="#ff9900" fill="#ffffff" opacity="1" layer="MULTILAYER" />
    <circle net="6" cx="1871" cy="1701" r="6" r1="9" r2="3" stroke-width="5" stroke="#ff9900" fill="#ffffff" opacity="1" layer="MULTILAYER" />
    <circle net="6" cx="2028" cy="1701" r="6" r1="9" r2="3" stroke-width="5" stroke="#ff9900" fill="#ffffff" opacity="1" layer="MULTILAYER" />
    <circle net="6" cx="1989" cy="1701" r="6" r1="9" r2="3" stroke-width="5" stroke="#ff9900" fill="#ffffff" opacity="1" layer="MULTILAYER" />
    <circle net="6" cx="1950" cy="1661" r="6" r1="9" r2="3" stroke-width="5" stroke="#ff9900" fill="#ffffff" opacity="1" layer="MULTILAYER" />
    <circle net="6" cx="1910" cy="1701" r="6" r1="9" r2="3" stroke-width="5" stroke="#ff9900" fill="#ffffff" opacity="1" layer="MULTILAYER" />
    <circle net="6" cx="1950" cy="1740" r="6" r1="9" r2="3" stroke-width="5" stroke="#ff9900" fill="#ffffff" opacity="1" layer="MULTILAYER" />
    <circle net="6" cx="1950" cy="1701" r="6" r1="9" r2="3" stroke-width="5" stroke="#ff9900" fill="#ffffff" opacity="1" layer="MULTILAYER" />
    <circle net="0" cx="1270" cy="2060" r="9.7" r1="12" r2="7" stroke-width="5" stroke="#ff9900" fill="#ffffff" opacity="1" layer="MULTILAYER" />
    <circle net="1" cx="1405" cy="1790" r="9.7" r1="12" r2="7" stroke-width="5" stroke="#ff9900" fill="#ffffff" opacity="1" layer="MULTILAYER" />
    <circle net="1" cx="1445" cy="1790" r="9.7" r1="12" r2="7" stroke-width="5" stroke="#ff9900" fill="#ffffff" opacity="1" layer="MULTILAYER" />
    <circle net="1" cx="1515" cy="1790" r="9.7" r1="12" r2="7" stroke-width="5" stroke="#ff9900" fill="#ffffff" opacity="1" layer="MULTILAYER" />
    <circle net="1" cx="1595" cy="1790" r="9.7" r1="12" r2="7" stroke-width="5" stroke="#ff9900" fill="#ffffff" opacity="1" layer="MULTILAYER" />
    <circle net="1" cx="1555" cy="1790" r="9.7" r1="12" r2="7" stroke-width="5" stroke="#ff9900" fill="#ffffff" opacity="1" layer="MULTILAYER" />
    <circle net="1" cx="1635" cy="1790" r="9.7" r1="12" r2="7" stroke-width="5" stroke="#ff9900" fill="#ffffff" opacity="1" layer="MULTILAYER" />
    <circle net="1" cx="1635" cy="1750" r="9.7" r1="12" r2="7" stroke-width="5" stroke="#ff9900" fill="#ffffff" opacity="1" layer="MULTILAYER" />
    <circle net="1" cx="1595" cy="1750" r="9.7" r1="12" r2="7" stroke-width="5" stroke="#ff9900" fill="#ffffff" opacity="1" layer="MULTILAYER" />
    <circle net="1" cx="1540" cy="1715" r="9.7" r1="12" r2="7" stroke-width="5" stroke="#ff9900" fill="#ffffff" opacity="1" layer="MULTILAYER" />
    <circle net="1" cx="1420" cy="1715" r="9.7" r1="12" r2="7" stroke-width="5" stroke="#ff9900" fill="#ffffff" opacity="1" layer="MULTILAYER" />
    <circle net="1" cx="1595" cy="1710" r="9.7" r1="12" r2="7" stroke-width="5" stroke="#ff9900" fill="#ffffff" opacity="1" layer="MULTILAYER" />
    <circle net="1" cx="1635" cy="1710" r="9.7" r1="12" r2="7" stroke-width="5" stroke="#ff9900" fill="#ffffff" opacity="1" layer="MULTILAYER" />
    <circle net="6" cx="1995" cy="1660" r="9.7" r1="12" r2="7" stroke-width="5" stroke="#ff9900" fill="#ffffff" opacity="1" layer="MULTILAYER" />
    <circle net="6" cx="2045" cy="1660" r="9.7" r1="12" r2="7" stroke-width="5" stroke="#ff9900" fill="#ffffff" opacity="1" layer="MULTILAYER" />
    <circle net="6" cx="1910" cy="1660" r="9.7" r1="12" r2="7" stroke-width="5" stroke="#ff9900" fill="#ffffff" opacity="1" layer="MULTILAYER" />
    <circle net="6" cx="1865" cy="1660" r="9.7" r1="12" r2="7" stroke-width="5" stroke="#ff9900" fill="#ffffff" opacity="1" layer="MULTILAYER" />
    <circle net="6" cx="1820" cy="1660" r="9.7" r1="12" r2="7" stroke-width="5" stroke="#ff9900" fill="#ffffff" opacity="1" layer="MULTILAYER" />
    <circle net="6" cx="1775" cy="1660" r="9.7" r1="12" r2="7" stroke-width="5" stroke="#ff9900" fill="#ffffff" opacity="1" layer="MULTILAYER" />
    <circle net="6" cx="1775" cy="1700" r="9.7" r1="12" r2="7" stroke-width="5" stroke="#ff9900" fill="#ffffff" opacity="1" layer="MULTILAYER" />
    <circle net="6" cx="1820" cy="1700" r="9.7" r1="12" r2="7" stroke-width="5" stroke="#ff9900" fill="#ffffff" opacity="1" layer="MULTILAYER" />
    <circle net="6" cx="1890" cy="1740" r="9.7" r1="12" r2="7" stroke-width="5" stroke="#ff9900" fill="#ffffff" opacity="1" layer="MULTILAYER" />
    <circle net="6" cx="2010" cy="1740" r="9.7" r1="12" r2="7" stroke-width="5" stroke="#ff9900" fill="#ffffff" opacity="1" layer="MULTILAYER" />
    <circle net="6" cx="1800" cy="1740" r="9.7" r1="12" r2="7" stroke-width="5" stroke="#ff9900" fill="#ffffff" opacity="1" layer="MULTILAYER" />
    <circle net="1" cx="1558" cy="1756" r="6" r1="9" r2="3" stroke-width="5" stroke="#ff9900" fill="#ffffff" opacity="1" layer="MULTILAYER" />
    <circle net="1" cx="1401" cy="1756" r="6" r1="9" r2="3" stroke-width="5" stroke="#ff9900" fill="#ffffff" opacity="1" layer="MULTILAYER" />
    <circle net="1" cx="1440" cy="1756" r="6" r1="9" r2="3" stroke-width="5" stroke="#ff9900" fill="#ffffff" opacity="1" layer="MULTILAYER" />
    <circle net="1" cx="1480" cy="1796" r="6" r1="9" r2="3" stroke-width="5" stroke="#ff9900" fill="#ffffff" opacity="1" layer="MULTILAYER" />
    <circle net="1" cx="1519" cy="1756" r="6" r1="9" r2="3" stroke-width="5" stroke="#ff9900" fill="#ffffff" opacity="1" layer="MULTILAYER" />
    <circle net="1" cx="1480" cy="1717" r="6" r1="9" r2="3" stroke-width="5" stroke="#ff9900" fill="#ffffff" opacity="1" layer="MULTILAYER" />
    <circle net="1" cx="1480" cy="1756" r="6" r1="9" r2="3" stroke-width="5" stroke="#ff9900" fill="#ffffff" opacity="1" layer="MULTILAYER" />
    <circle net="3" cx="1200" cy="160" r="19" r1="25" r2="14" stroke-width="11" stroke="#ff9900" fill="#ffffff" opacity="1" layer="MULTILAYER" />
    <circle net="0" cx="1220" cy="800" r="37" r1="43" r2="31" stroke-width="12" stroke="#ff9900" fill="#ffffff" opacity="1" layer="MULTILAYER" />
    <circle net="3" cx="1200" cy="160" r="58.8" r1="68" r2="49" stroke-width="19" stroke="#ff9900" fill="#ffffff" opacity="1" layer="MULTILAYER" />
    <circle net="15" cx="310" cy="2350" r="37" r1="43" r2="31" stroke-width="12" stroke="#ff9900" fill="#ffffff" opacity="1" layer="MULTILAYER" />
    <circle net="8" cx="1260" cy="2640" r="58.8" r1="68" r2="49" stroke-width="19" stroke="#ff9900" fill="#ffffff" opacity="1" layer="MULTILAYER" />
    <circle net="6" cx="2220" cy="2640" r="58.8" r1="68" r2="49" stroke-width="19" stroke="#ff9900" fill="#ffffff" opacity="1" layer="MULTILAYER" />
    <circle net="53" cx="300" cy="800" r="37" r1="43" r2="31" stroke-width="12" stroke="#ff9900" fill="#ffffff" opacity="1" layer="MULTILAYER" />
    <circle net="8" cx="300" cy="160" r="58.8" r1="68" r2="49" stroke-width="19" stroke="#ff9900" fill="#ffffff" opacity="1" layer="MULTILAYER" />
  </g>
</svg>

