%TF.GenerationSoftware,KiCad,Pcbnew,(6.0.9-0)*%
%TF.CreationDate,2023-03-20T13:15:32-04:00*%
%TF.ProjectId,LM5116-05,4c4d3531-3136-42d3-9035-2e6b69636164,rev?*%
%TF.SameCoordinates,Original*%
%TF.FileFunction,Drillmap*%
%TF.FilePolarity,Positive*%
%FSLAX45Y45*%
G04 Gerber Fmt 4.5, Leading zero omitted, Abs format (unit mm)*
G04 Created by KiCad (PCBNEW (6.0.9-0)) date 2023-03-20 13:15:32*
%MOMM*%
%LPD*%
G01*
G04 APERTURE LIST*
%ADD10C,0.100000*%
%ADD11C,0.200000*%
%ADD12C,0.020000*%
%ADD13C,0.076200*%
%ADD14C,0.080000*%
%ADD15C,0.152000*%
G04 APERTURE END LIST*
D10*
X7854950Y-7924800D02*
X7854636Y-6381761D01*
X7962888Y-8026202D02*
X8255000Y-8026400D01*
X8356600Y-8128000D02*
X8356600Y-9626600D01*
X8255000Y-9728200D02*
X7956550Y-9728200D01*
X7854950Y-9829800D02*
X7854636Y-11381761D01*
X14354635Y-11382285D02*
X14354636Y-6381761D01*
X14054636Y-11681756D02*
G75*
G03*
X14354635Y-11382285I4J299996D01*
G01*
X8154636Y-11681761D02*
X14054636Y-11681761D01*
X8356600Y-8128000D02*
G75*
G03*
X8255000Y-8026400I-101600J0D01*
G01*
X8154636Y-6081756D02*
G75*
G03*
X7854636Y-6381761I4J-300004D01*
G01*
X7956550Y-9728200D02*
G75*
G03*
X7854950Y-9829800I0J-101600D01*
G01*
X7854950Y-7924800D02*
G75*
G03*
X7962929Y-8026199I101600J0D01*
G01*
X14054636Y-6081761D02*
X8154636Y-6081761D01*
X7854639Y-11381761D02*
G75*
G03*
X8154636Y-11681761I300001J1D01*
G01*
X14354639Y-6381761D02*
G75*
G03*
X14054636Y-6081761I-299999J1D01*
G01*
X8255000Y-9728200D02*
G75*
G03*
X8356600Y-9626600I0J101600D01*
G01*
D11*
D12*
X8600600Y-9007000D02*
X8620600Y-9027000D01*
X8620600Y-9007000D02*
X8600600Y-9027000D01*
X8626000Y-8880000D02*
X8646000Y-8900000D01*
X8646000Y-8880000D02*
X8626000Y-8900000D01*
X8702200Y-8880000D02*
X8722200Y-8900000D01*
X8722200Y-8880000D02*
X8702200Y-8900000D01*
X8753000Y-9032400D02*
X8773000Y-9052400D01*
X8773000Y-9032400D02*
X8753000Y-9052400D01*
X8778400Y-8880000D02*
X8798400Y-8900000D01*
X8798400Y-8880000D02*
X8778400Y-8900000D01*
X8854600Y-8880000D02*
X8874600Y-8900000D01*
X8874600Y-8880000D02*
X8854600Y-8900000D01*
X8854600Y-9032400D02*
X8874600Y-9052400D01*
X8874600Y-9032400D02*
X8854600Y-9052400D01*
X8930800Y-8880000D02*
X8950800Y-8900000D01*
X8950800Y-8880000D02*
X8930800Y-8900000D01*
X8956200Y-9032400D02*
X8976200Y-9052400D01*
X8976200Y-9032400D02*
X8956200Y-9052400D01*
X9057800Y-8803800D02*
X9077800Y-8823800D01*
X9077800Y-8803800D02*
X9057800Y-8823800D01*
X9057800Y-8880000D02*
X9077800Y-8900000D01*
X9077800Y-8880000D02*
X9057800Y-8900000D01*
X9057800Y-8956200D02*
X9077800Y-8976200D01*
X9077800Y-8956200D02*
X9057800Y-8976200D01*
X9057800Y-9032400D02*
X9077800Y-9052400D01*
X9077800Y-9032400D02*
X9057800Y-9052400D01*
X9489600Y-10023000D02*
X9509600Y-10043000D01*
X9509600Y-10023000D02*
X9489600Y-10043000D01*
X9489600Y-10099200D02*
X9509600Y-10119200D01*
X9509600Y-10099200D02*
X9489600Y-10119200D01*
X9515000Y-7762400D02*
X9535000Y-7782400D01*
X9535000Y-7762400D02*
X9515000Y-7782400D01*
X9540400Y-9210200D02*
X9560400Y-9230200D01*
X9560400Y-9210200D02*
X9540400Y-9230200D01*
X9540400Y-10251600D02*
X9560400Y-10271600D01*
X9560400Y-10251600D02*
X9540400Y-10271600D01*
X9540400Y-10353200D02*
X9560400Y-10373200D01*
X9560400Y-10353200D02*
X9540400Y-10373200D01*
X9565800Y-9692800D02*
X9585800Y-9712800D01*
X9585800Y-9692800D02*
X9565800Y-9712800D01*
X9591200Y-7762400D02*
X9611200Y-7782400D01*
X9611200Y-7762400D02*
X9591200Y-7782400D01*
X9616600Y-7356000D02*
X9636600Y-7376000D01*
X9636600Y-7356000D02*
X9616600Y-7376000D01*
X9642000Y-9210200D02*
X9662000Y-9230200D01*
X9662000Y-9210200D02*
X9642000Y-9230200D01*
X9743600Y-9210200D02*
X9763600Y-9230200D01*
X9763600Y-9210200D02*
X9743600Y-9230200D01*
X9769000Y-8041800D02*
X9789000Y-8061800D01*
X9789000Y-8041800D02*
X9769000Y-8061800D01*
X9845200Y-9210200D02*
X9865200Y-9230200D01*
X9865200Y-9210200D02*
X9845200Y-9230200D01*
X10048400Y-9565800D02*
X10068400Y-9585800D01*
X10068400Y-9565800D02*
X10048400Y-9585800D01*
X10048400Y-9642000D02*
X10068400Y-9662000D01*
X10068400Y-9642000D02*
X10048400Y-9662000D01*
X10251600Y-7635400D02*
X10271600Y-7655400D01*
X10271600Y-7635400D02*
X10251600Y-7655400D01*
X10251600Y-7711600D02*
X10271600Y-7731600D01*
X10271600Y-7711600D02*
X10251600Y-7731600D01*
X10467900Y-9667400D02*
X10487900Y-9687400D01*
X10487900Y-9667400D02*
X10467900Y-9687400D01*
X10467900Y-9769000D02*
X10487900Y-9789000D01*
X10487900Y-9769000D02*
X10467900Y-9789000D01*
X10480200Y-9184800D02*
X10500200Y-9204800D01*
X10500200Y-9184800D02*
X10480200Y-9204800D01*
X10480200Y-9413400D02*
X10500200Y-9433400D01*
X10500200Y-9413400D02*
X10480200Y-9433400D01*
X10835800Y-9286400D02*
X10855800Y-9306400D01*
X10855800Y-9286400D02*
X10835800Y-9306400D01*
X10842350Y-9356050D02*
X10862350Y-9376050D01*
X10862350Y-9356050D02*
X10842350Y-9376050D01*
X10842350Y-9565800D02*
X10862350Y-9585800D01*
X10862350Y-9565800D02*
X10842350Y-9585800D01*
X10912000Y-9565800D02*
X10932000Y-9585800D01*
X10932000Y-9565800D02*
X10912000Y-9585800D01*
X10912000Y-9870600D02*
X10932000Y-9890600D01*
X10932000Y-9870600D02*
X10912000Y-9890600D01*
X10912000Y-9972200D02*
X10932000Y-9992200D01*
X10932000Y-9972200D02*
X10912000Y-9992200D01*
X10924700Y-7140100D02*
X10944700Y-7160100D01*
X10944700Y-7140100D02*
X10924700Y-7160100D01*
X10925100Y-9274100D02*
X10945100Y-9294100D01*
X10945100Y-9274100D02*
X10925100Y-9294100D01*
X10925100Y-9362600D02*
X10945100Y-9382600D01*
X10945100Y-9362600D02*
X10925100Y-9382600D01*
X11369200Y-9540400D02*
X11389200Y-9560400D01*
X11389200Y-9540400D02*
X11369200Y-9560400D01*
X11826400Y-10378600D02*
X11846400Y-10398600D01*
X11846400Y-10378600D02*
X11826400Y-10398600D01*
X11902600Y-8549800D02*
X11922600Y-8569800D01*
X11922600Y-8549800D02*
X11902600Y-8569800D01*
X11902600Y-8854600D02*
X11922600Y-8874600D01*
X11922600Y-8854600D02*
X11902600Y-8874600D01*
X11953400Y-8549800D02*
X11973400Y-8569800D01*
X11973400Y-8549800D02*
X11953400Y-8569800D01*
X11953400Y-8854600D02*
X11973400Y-8874600D01*
X11973400Y-8854600D02*
X11953400Y-8874600D01*
D13*
X10375900Y-8382000D02*
G75*
G03*
X10375900Y-8382000I-38100J0D01*
G01*
X11087100Y-8229600D02*
G75*
G03*
X11087100Y-8229600I-38100J0D01*
G01*
X11758300Y-10718800D02*
G75*
G03*
X11758300Y-10718800I-38100J0D01*
G01*
X11772900Y-8229600D02*
G75*
G03*
X11772900Y-8229600I-38100J0D01*
G01*
X12636500Y-9169400D02*
G75*
G03*
X12636500Y-9169400I-38100J0D01*
G01*
D14*
X12600400Y-9408800D02*
X12600400Y-9488800D01*
X12560400Y-9448800D02*
X12640400Y-9448800D01*
X12850400Y-9408800D02*
X12850400Y-9488800D01*
X12810400Y-9448800D02*
X12890400Y-9448800D01*
D10*
X8727356Y-6340356D02*
X8727356Y-6269644D01*
X8656644Y-6269644D01*
X8656644Y-6340356D01*
X8727356Y-6340356D01*
X8727356Y-6594356D02*
X8727356Y-6523644D01*
X8656644Y-6523644D01*
X8656644Y-6594356D01*
X8727356Y-6594356D01*
X8981356Y-6340356D02*
X8981356Y-6269644D01*
X8910644Y-6269644D01*
X8910644Y-6340356D01*
X8981356Y-6340356D01*
X8981356Y-6594356D02*
X8981356Y-6523644D01*
X8910644Y-6523644D01*
X8910644Y-6594356D01*
X8981356Y-6594356D01*
X9179356Y-7147356D02*
X9179356Y-7076644D01*
X9108644Y-7076644D01*
X9108644Y-7147356D01*
X9179356Y-7147356D01*
X9179356Y-7401356D02*
X9179356Y-7330644D01*
X9108644Y-7330644D01*
X9108644Y-7401356D01*
X9179356Y-7401356D01*
X9235356Y-6340356D02*
X9235356Y-6269644D01*
X9164644Y-6269644D01*
X9164644Y-6340356D01*
X9235356Y-6340356D01*
X9235356Y-6594356D02*
X9235356Y-6523644D01*
X9164644Y-6523644D01*
X9164644Y-6594356D01*
X9235356Y-6594356D01*
X9433356Y-7147356D02*
X9433356Y-7076644D01*
X9362644Y-7076644D01*
X9362644Y-7147356D01*
X9433356Y-7147356D01*
X9433356Y-7401356D02*
X9433356Y-7330644D01*
X9362644Y-7330644D01*
X9362644Y-7401356D01*
X9433356Y-7401356D01*
X9489356Y-6340356D02*
X9489356Y-6269644D01*
X9418644Y-6269644D01*
X9418644Y-6340356D01*
X9489356Y-6340356D01*
X9489356Y-6594356D02*
X9489356Y-6523644D01*
X9418644Y-6523644D01*
X9418644Y-6594356D01*
X9489356Y-6594356D01*
X9743356Y-6340356D02*
X9743356Y-6269644D01*
X9672644Y-6269644D01*
X9672644Y-6340356D01*
X9743356Y-6340356D01*
X9743356Y-6594356D02*
X9743356Y-6523644D01*
X9672644Y-6523644D01*
X9672644Y-6594356D01*
X9743356Y-6594356D01*
X9997356Y-6340356D02*
X9997356Y-6269644D01*
X9926644Y-6269644D01*
X9926644Y-6340356D01*
X9997356Y-6340356D01*
X9997356Y-6594356D02*
X9997356Y-6523644D01*
X9926644Y-6523644D01*
X9926644Y-6594356D01*
X9997356Y-6594356D01*
X10251356Y-6340356D02*
X10251356Y-6269644D01*
X10180644Y-6269644D01*
X10180644Y-6340356D01*
X10251356Y-6340356D01*
X10251356Y-6594356D02*
X10251356Y-6523644D01*
X10180644Y-6523644D01*
X10180644Y-6594356D01*
X10251356Y-6594356D01*
X10505356Y-6340356D02*
X10505356Y-6269644D01*
X10434644Y-6269644D01*
X10434644Y-6340356D01*
X10505356Y-6340356D01*
X10505356Y-6594356D02*
X10505356Y-6523644D01*
X10434644Y-6523644D01*
X10434644Y-6594356D01*
X10505356Y-6594356D01*
X10759356Y-6340356D02*
X10759356Y-6269644D01*
X10688644Y-6269644D01*
X10688644Y-6340356D01*
X10759356Y-6340356D01*
X10759356Y-6594356D02*
X10759356Y-6523644D01*
X10688644Y-6523644D01*
X10688644Y-6594356D01*
X10759356Y-6594356D01*
X11013356Y-6340356D02*
X11013356Y-6269644D01*
X10942644Y-6269644D01*
X10942644Y-6340356D01*
X11013356Y-6340356D01*
X11013356Y-6594356D02*
X11013356Y-6523644D01*
X10942644Y-6523644D01*
X10942644Y-6594356D01*
X11013356Y-6594356D01*
X11267356Y-6340356D02*
X11267356Y-6269644D01*
X11196644Y-6269644D01*
X11196644Y-6340356D01*
X11267356Y-6340356D01*
X11267356Y-6594356D02*
X11267356Y-6523644D01*
X11196644Y-6523644D01*
X11196644Y-6594356D01*
X11267356Y-6594356D01*
X11405356Y-7464856D02*
X11405356Y-7394144D01*
X11334644Y-7394144D01*
X11334644Y-7464856D01*
X11405356Y-7464856D01*
X11521356Y-6340356D02*
X11521356Y-6269644D01*
X11450644Y-6269644D01*
X11450644Y-6340356D01*
X11521356Y-6340356D01*
X11521356Y-6594356D02*
X11521356Y-6523644D01*
X11450644Y-6523644D01*
X11450644Y-6594356D01*
X11521356Y-6594356D01*
X11659356Y-7464856D02*
X11659356Y-7394144D01*
X11588644Y-7394144D01*
X11588644Y-7464856D01*
X11659356Y-7464856D01*
X11775356Y-6340356D02*
X11775356Y-6269644D01*
X11704644Y-6269644D01*
X11704644Y-6340356D01*
X11775356Y-6340356D01*
X11775356Y-6594356D02*
X11775356Y-6523644D01*
X11704644Y-6523644D01*
X11704644Y-6594356D01*
X11775356Y-6594356D01*
X12029356Y-6340356D02*
X12029356Y-6269644D01*
X11958644Y-6269644D01*
X11958644Y-6340356D01*
X12029356Y-6340356D01*
X12029356Y-6594356D02*
X12029356Y-6523644D01*
X11958644Y-6523644D01*
X11958644Y-6594356D01*
X12029356Y-6594356D01*
X12283356Y-6340356D02*
X12283356Y-6269644D01*
X12212644Y-6269644D01*
X12212644Y-6340356D01*
X12283356Y-6340356D01*
X12283356Y-6594356D02*
X12283356Y-6523644D01*
X12212644Y-6523644D01*
X12212644Y-6594356D01*
X12283356Y-6594356D01*
X12537356Y-6340356D02*
X12537356Y-6269644D01*
X12466644Y-6269644D01*
X12466644Y-6340356D01*
X12537356Y-6340356D01*
X12537356Y-6594356D02*
X12537356Y-6523644D01*
X12466644Y-6523644D01*
X12466644Y-6594356D01*
X12537356Y-6594356D01*
X12791356Y-6340356D02*
X12791356Y-6269644D01*
X12720644Y-6269644D01*
X12720644Y-6340356D01*
X12791356Y-6340356D01*
X12791356Y-6594356D02*
X12791356Y-6523644D01*
X12720644Y-6523644D01*
X12720644Y-6594356D01*
X12791356Y-6594356D01*
X13045356Y-6340356D02*
X13045356Y-6269644D01*
X12974644Y-6269644D01*
X12974644Y-6340356D01*
X13045356Y-6340356D01*
X13045356Y-6594356D02*
X13045356Y-6523644D01*
X12974644Y-6523644D01*
X12974644Y-6594356D01*
X13045356Y-6594356D01*
X13299356Y-6340356D02*
X13299356Y-6269644D01*
X13228644Y-6269644D01*
X13228644Y-6340356D01*
X13299356Y-6340356D01*
X13299356Y-6594356D02*
X13299356Y-6523644D01*
X13228644Y-6523644D01*
X13228644Y-6594356D01*
X13299356Y-6594356D01*
X13553356Y-6340356D02*
X13553356Y-6269644D01*
X13482644Y-6269644D01*
X13482644Y-6340356D01*
X13553356Y-6340356D01*
X13553356Y-6594356D02*
X13553356Y-6523644D01*
X13482644Y-6523644D01*
X13482644Y-6594356D01*
X13553356Y-6594356D01*
D15*
X9423400Y-10921800D02*
X9499400Y-10845800D01*
X9423400Y-10769800D01*
X9347400Y-10845800D01*
X9423400Y-10921800D01*
X9931400Y-10921800D02*
X10007400Y-10845800D01*
X9931400Y-10769800D01*
X9855400Y-10845800D01*
X9931400Y-10921800D01*
D11*
X12257100Y-10415600D02*
X12457100Y-10615600D01*
X12457100Y-10415600D02*
X12257100Y-10615600D01*
X12457100Y-10515600D02*
G75*
G03*
X12457100Y-10515600I-100000J0D01*
G01*
X12257100Y-9765600D02*
X12257100Y-11265600D01*
X12457100Y-9765600D02*
X12457100Y-11265600D01*
X12257100Y-11265600D02*
G75*
G03*
X12457100Y-11265600I100000J0D01*
G01*
X12457100Y-9765600D02*
G75*
G03*
X12257100Y-9765600I-100000J0D01*
G01*
X8107255Y-11997237D02*
X8107255Y-11797237D01*
X8154874Y-11797237D01*
X8183445Y-11806761D01*
X8202493Y-11825809D01*
X8212016Y-11844856D01*
X8221540Y-11882951D01*
X8221540Y-11911523D01*
X8212016Y-11949618D01*
X8202493Y-11968666D01*
X8183445Y-11987713D01*
X8154874Y-11997237D01*
X8107255Y-11997237D01*
X8307255Y-11997237D02*
X8307255Y-11863904D01*
X8307255Y-11901999D02*
X8316778Y-11882951D01*
X8326302Y-11873428D01*
X8345350Y-11863904D01*
X8364397Y-11863904D01*
X8431064Y-11997237D02*
X8431064Y-11863904D01*
X8431064Y-11797237D02*
X8421540Y-11806761D01*
X8431064Y-11816285D01*
X8440588Y-11806761D01*
X8431064Y-11797237D01*
X8431064Y-11816285D01*
X8554874Y-11997237D02*
X8535826Y-11987713D01*
X8526302Y-11968666D01*
X8526302Y-11797237D01*
X8659636Y-11997237D02*
X8640588Y-11987713D01*
X8631064Y-11968666D01*
X8631064Y-11797237D01*
X8888207Y-11997237D02*
X8888207Y-11797237D01*
X8954874Y-11940094D01*
X9021540Y-11797237D01*
X9021540Y-11997237D01*
X9202493Y-11997237D02*
X9202493Y-11892475D01*
X9192969Y-11873428D01*
X9173921Y-11863904D01*
X9135826Y-11863904D01*
X9116778Y-11873428D01*
X9202493Y-11987713D02*
X9183445Y-11997237D01*
X9135826Y-11997237D01*
X9116778Y-11987713D01*
X9107255Y-11968666D01*
X9107255Y-11949618D01*
X9116778Y-11930571D01*
X9135826Y-11921047D01*
X9183445Y-11921047D01*
X9202493Y-11911523D01*
X9297731Y-11863904D02*
X9297731Y-12063904D01*
X9297731Y-11873428D02*
X9316778Y-11863904D01*
X9354874Y-11863904D01*
X9373921Y-11873428D01*
X9383445Y-11882951D01*
X9392969Y-11901999D01*
X9392969Y-11959142D01*
X9383445Y-11978190D01*
X9373921Y-11987713D01*
X9354874Y-11997237D01*
X9316778Y-11997237D01*
X9297731Y-11987713D01*
X9478683Y-11978190D02*
X9488207Y-11987713D01*
X9478683Y-11997237D01*
X9469159Y-11987713D01*
X9478683Y-11978190D01*
X9478683Y-11997237D01*
X9478683Y-11873428D02*
X9488207Y-11882951D01*
X9478683Y-11892475D01*
X9469159Y-11882951D01*
X9478683Y-11873428D01*
X9478683Y-11892475D01*
D12*
X7829636Y-12316761D02*
X7849636Y-12336761D01*
X7849636Y-12316761D02*
X7829636Y-12336761D01*
D11*
X8145350Y-12217237D02*
X8164397Y-12217237D01*
X8183445Y-12226761D01*
X8192969Y-12236285D01*
X8202493Y-12255332D01*
X8212016Y-12293428D01*
X8212016Y-12341047D01*
X8202493Y-12379142D01*
X8192969Y-12398190D01*
X8183445Y-12407713D01*
X8164397Y-12417237D01*
X8145350Y-12417237D01*
X8126302Y-12407713D01*
X8116778Y-12398190D01*
X8107255Y-12379142D01*
X8097731Y-12341047D01*
X8097731Y-12293428D01*
X8107255Y-12255332D01*
X8116778Y-12236285D01*
X8126302Y-12226761D01*
X8145350Y-12217237D01*
X8297731Y-12398190D02*
X8307255Y-12407713D01*
X8297731Y-12417237D01*
X8288207Y-12407713D01*
X8297731Y-12398190D01*
X8297731Y-12417237D01*
X8383445Y-12236285D02*
X8392969Y-12226761D01*
X8412017Y-12217237D01*
X8459636Y-12217237D01*
X8478683Y-12226761D01*
X8488207Y-12236285D01*
X8497731Y-12255332D01*
X8497731Y-12274380D01*
X8488207Y-12302951D01*
X8373921Y-12417237D01*
X8497731Y-12417237D01*
X8621540Y-12217237D02*
X8640588Y-12217237D01*
X8659636Y-12226761D01*
X8669159Y-12236285D01*
X8678683Y-12255332D01*
X8688207Y-12293428D01*
X8688207Y-12341047D01*
X8678683Y-12379142D01*
X8669159Y-12398190D01*
X8659636Y-12407713D01*
X8640588Y-12417237D01*
X8621540Y-12417237D01*
X8602493Y-12407713D01*
X8592969Y-12398190D01*
X8583445Y-12379142D01*
X8573921Y-12341047D01*
X8573921Y-12293428D01*
X8583445Y-12255332D01*
X8592969Y-12236285D01*
X8602493Y-12226761D01*
X8621540Y-12217237D01*
X8812017Y-12217237D02*
X8831064Y-12217237D01*
X8850112Y-12226761D01*
X8859636Y-12236285D01*
X8869159Y-12255332D01*
X8878683Y-12293428D01*
X8878683Y-12341047D01*
X8869159Y-12379142D01*
X8859636Y-12398190D01*
X8850112Y-12407713D01*
X8831064Y-12417237D01*
X8812017Y-12417237D01*
X8792969Y-12407713D01*
X8783445Y-12398190D01*
X8773921Y-12379142D01*
X8764398Y-12341047D01*
X8764398Y-12293428D01*
X8773921Y-12255332D01*
X8783445Y-12236285D01*
X8792969Y-12226761D01*
X8812017Y-12217237D01*
X8964398Y-12417237D02*
X8964398Y-12283904D01*
X8964398Y-12302951D02*
X8973921Y-12293428D01*
X8992969Y-12283904D01*
X9021540Y-12283904D01*
X9040588Y-12293428D01*
X9050112Y-12312475D01*
X9050112Y-12417237D01*
X9050112Y-12312475D02*
X9059636Y-12293428D01*
X9078683Y-12283904D01*
X9107255Y-12283904D01*
X9126302Y-12293428D01*
X9135826Y-12312475D01*
X9135826Y-12417237D01*
X9231064Y-12417237D02*
X9231064Y-12283904D01*
X9231064Y-12302951D02*
X9240588Y-12293428D01*
X9259636Y-12283904D01*
X9288207Y-12283904D01*
X9307255Y-12293428D01*
X9316778Y-12312475D01*
X9316778Y-12417237D01*
X9316778Y-12312475D02*
X9326302Y-12293428D01*
X9345350Y-12283904D01*
X9373921Y-12283904D01*
X9392969Y-12293428D01*
X9402493Y-12312475D01*
X9402493Y-12417237D01*
X9792969Y-12207713D02*
X9621540Y-12464856D01*
X10050112Y-12217237D02*
X10069159Y-12217237D01*
X10088207Y-12226761D01*
X10097731Y-12236285D01*
X10107255Y-12255332D01*
X10116778Y-12293428D01*
X10116778Y-12341047D01*
X10107255Y-12379142D01*
X10097731Y-12398190D01*
X10088207Y-12407713D01*
X10069159Y-12417237D01*
X10050112Y-12417237D01*
X10031064Y-12407713D01*
X10021540Y-12398190D01*
X10012017Y-12379142D01*
X10002493Y-12341047D01*
X10002493Y-12293428D01*
X10012017Y-12255332D01*
X10021540Y-12236285D01*
X10031064Y-12226761D01*
X10050112Y-12217237D01*
X10202493Y-12398190D02*
X10212017Y-12407713D01*
X10202493Y-12417237D01*
X10192969Y-12407713D01*
X10202493Y-12398190D01*
X10202493Y-12417237D01*
X10335826Y-12217237D02*
X10354874Y-12217237D01*
X10373921Y-12226761D01*
X10383445Y-12236285D01*
X10392969Y-12255332D01*
X10402493Y-12293428D01*
X10402493Y-12341047D01*
X10392969Y-12379142D01*
X10383445Y-12398190D01*
X10373921Y-12407713D01*
X10354874Y-12417237D01*
X10335826Y-12417237D01*
X10316778Y-12407713D01*
X10307255Y-12398190D01*
X10297731Y-12379142D01*
X10288207Y-12341047D01*
X10288207Y-12293428D01*
X10297731Y-12255332D01*
X10307255Y-12236285D01*
X10316778Y-12226761D01*
X10335826Y-12217237D01*
X10526302Y-12217237D02*
X10545350Y-12217237D01*
X10564398Y-12226761D01*
X10573921Y-12236285D01*
X10583445Y-12255332D01*
X10592969Y-12293428D01*
X10592969Y-12341047D01*
X10583445Y-12379142D01*
X10573921Y-12398190D01*
X10564398Y-12407713D01*
X10545350Y-12417237D01*
X10526302Y-12417237D01*
X10507255Y-12407713D01*
X10497731Y-12398190D01*
X10488207Y-12379142D01*
X10478683Y-12341047D01*
X10478683Y-12293428D01*
X10488207Y-12255332D01*
X10497731Y-12236285D01*
X10507255Y-12226761D01*
X10526302Y-12217237D01*
X10659636Y-12217237D02*
X10792969Y-12217237D01*
X10707255Y-12417237D01*
X10878683Y-12417237D02*
X10916778Y-12417237D01*
X10935826Y-12407713D01*
X10945350Y-12398190D01*
X10964398Y-12369618D01*
X10973921Y-12331523D01*
X10973921Y-12255332D01*
X10964398Y-12236285D01*
X10954874Y-12226761D01*
X10935826Y-12217237D01*
X10897731Y-12217237D01*
X10878683Y-12226761D01*
X10869159Y-12236285D01*
X10859636Y-12255332D01*
X10859636Y-12302951D01*
X10869159Y-12321999D01*
X10878683Y-12331523D01*
X10897731Y-12341047D01*
X10935826Y-12341047D01*
X10954874Y-12331523D01*
X10964398Y-12321999D01*
X10973921Y-12302951D01*
X11050112Y-12217237D02*
X11050112Y-12255332D01*
X11126302Y-12217237D02*
X11126302Y-12255332D01*
X11421540Y-12493428D02*
X11412016Y-12483904D01*
X11392969Y-12455332D01*
X11383445Y-12436285D01*
X11373921Y-12407713D01*
X11364397Y-12360094D01*
X11364397Y-12321999D01*
X11373921Y-12274380D01*
X11383445Y-12245809D01*
X11392969Y-12226761D01*
X11412016Y-12198190D01*
X11421540Y-12188666D01*
X11583445Y-12283904D02*
X11583445Y-12417237D01*
X11535826Y-12207713D02*
X11488207Y-12350571D01*
X11612016Y-12350571D01*
X11697731Y-12417237D02*
X11735826Y-12417237D01*
X11754874Y-12407713D01*
X11764397Y-12398190D01*
X11783445Y-12369618D01*
X11792969Y-12331523D01*
X11792969Y-12255332D01*
X11783445Y-12236285D01*
X11773921Y-12226761D01*
X11754874Y-12217237D01*
X11716778Y-12217237D01*
X11697731Y-12226761D01*
X11688207Y-12236285D01*
X11678683Y-12255332D01*
X11678683Y-12302951D01*
X11688207Y-12321999D01*
X11697731Y-12331523D01*
X11716778Y-12341047D01*
X11754874Y-12341047D01*
X11773921Y-12331523D01*
X11783445Y-12321999D01*
X11792969Y-12302951D01*
X12031064Y-12417237D02*
X12031064Y-12217237D01*
X12116778Y-12417237D02*
X12116778Y-12312475D01*
X12107255Y-12293428D01*
X12088207Y-12283904D01*
X12059635Y-12283904D01*
X12040588Y-12293428D01*
X12031064Y-12302951D01*
X12240588Y-12417237D02*
X12221540Y-12407713D01*
X12212016Y-12398190D01*
X12202493Y-12379142D01*
X12202493Y-12321999D01*
X12212016Y-12302951D01*
X12221540Y-12293428D01*
X12240588Y-12283904D01*
X12269159Y-12283904D01*
X12288207Y-12293428D01*
X12297731Y-12302951D01*
X12307255Y-12321999D01*
X12307255Y-12379142D01*
X12297731Y-12398190D01*
X12288207Y-12407713D01*
X12269159Y-12417237D01*
X12240588Y-12417237D01*
X12421540Y-12417237D02*
X12402493Y-12407713D01*
X12392969Y-12388666D01*
X12392969Y-12217237D01*
X12573921Y-12407713D02*
X12554874Y-12417237D01*
X12516778Y-12417237D01*
X12497731Y-12407713D01*
X12488207Y-12388666D01*
X12488207Y-12312475D01*
X12497731Y-12293428D01*
X12516778Y-12283904D01*
X12554874Y-12283904D01*
X12573921Y-12293428D01*
X12583445Y-12312475D01*
X12583445Y-12331523D01*
X12488207Y-12350571D01*
X12659635Y-12407713D02*
X12678683Y-12417237D01*
X12716778Y-12417237D01*
X12735826Y-12407713D01*
X12745350Y-12388666D01*
X12745350Y-12379142D01*
X12735826Y-12360094D01*
X12716778Y-12350571D01*
X12688207Y-12350571D01*
X12669159Y-12341047D01*
X12659635Y-12321999D01*
X12659635Y-12312475D01*
X12669159Y-12293428D01*
X12688207Y-12283904D01*
X12716778Y-12283904D01*
X12735826Y-12293428D01*
X12812016Y-12493428D02*
X12821540Y-12483904D01*
X12840588Y-12455332D01*
X12850112Y-12436285D01*
X12859635Y-12407713D01*
X12869159Y-12360094D01*
X12869159Y-12321999D01*
X12859635Y-12274380D01*
X12850112Y-12245809D01*
X12840588Y-12226761D01*
X12821540Y-12198190D01*
X12812016Y-12188666D01*
D13*
X7849636Y-12590761D02*
G75*
G03*
X7849636Y-12590761I-38100J0D01*
G01*
D11*
X8145350Y-12481237D02*
X8164397Y-12481237D01*
X8183445Y-12490761D01*
X8192969Y-12500285D01*
X8202493Y-12519332D01*
X8212016Y-12557428D01*
X8212016Y-12605047D01*
X8202493Y-12643142D01*
X8192969Y-12662190D01*
X8183445Y-12671713D01*
X8164397Y-12681237D01*
X8145350Y-12681237D01*
X8126302Y-12671713D01*
X8116778Y-12662190D01*
X8107255Y-12643142D01*
X8097731Y-12605047D01*
X8097731Y-12557428D01*
X8107255Y-12519332D01*
X8116778Y-12500285D01*
X8126302Y-12490761D01*
X8145350Y-12481237D01*
X8297731Y-12662190D02*
X8307255Y-12671713D01*
X8297731Y-12681237D01*
X8288207Y-12671713D01*
X8297731Y-12662190D01*
X8297731Y-12681237D01*
X8373921Y-12481237D02*
X8507255Y-12481237D01*
X8421540Y-12681237D01*
X8669159Y-12481237D02*
X8631064Y-12481237D01*
X8612017Y-12490761D01*
X8602493Y-12500285D01*
X8583445Y-12528856D01*
X8573921Y-12566951D01*
X8573921Y-12643142D01*
X8583445Y-12662190D01*
X8592969Y-12671713D01*
X8612017Y-12681237D01*
X8650112Y-12681237D01*
X8669159Y-12671713D01*
X8678683Y-12662190D01*
X8688207Y-12643142D01*
X8688207Y-12595523D01*
X8678683Y-12576475D01*
X8669159Y-12566951D01*
X8650112Y-12557428D01*
X8612017Y-12557428D01*
X8592969Y-12566951D01*
X8583445Y-12576475D01*
X8573921Y-12595523D01*
X8764398Y-12500285D02*
X8773921Y-12490761D01*
X8792969Y-12481237D01*
X8840588Y-12481237D01*
X8859636Y-12490761D01*
X8869159Y-12500285D01*
X8878683Y-12519332D01*
X8878683Y-12538380D01*
X8869159Y-12566951D01*
X8754874Y-12681237D01*
X8878683Y-12681237D01*
X8964398Y-12681237D02*
X8964398Y-12547904D01*
X8964398Y-12566951D02*
X8973921Y-12557428D01*
X8992969Y-12547904D01*
X9021540Y-12547904D01*
X9040588Y-12557428D01*
X9050112Y-12576475D01*
X9050112Y-12681237D01*
X9050112Y-12576475D02*
X9059636Y-12557428D01*
X9078683Y-12547904D01*
X9107255Y-12547904D01*
X9126302Y-12557428D01*
X9135826Y-12576475D01*
X9135826Y-12681237D01*
X9231064Y-12681237D02*
X9231064Y-12547904D01*
X9231064Y-12566951D02*
X9240588Y-12557428D01*
X9259636Y-12547904D01*
X9288207Y-12547904D01*
X9307255Y-12557428D01*
X9316778Y-12576475D01*
X9316778Y-12681237D01*
X9316778Y-12576475D02*
X9326302Y-12557428D01*
X9345350Y-12547904D01*
X9373921Y-12547904D01*
X9392969Y-12557428D01*
X9402493Y-12576475D01*
X9402493Y-12681237D01*
X9792969Y-12471713D02*
X9621540Y-12728856D01*
X10050112Y-12481237D02*
X10069159Y-12481237D01*
X10088207Y-12490761D01*
X10097731Y-12500285D01*
X10107255Y-12519332D01*
X10116778Y-12557428D01*
X10116778Y-12605047D01*
X10107255Y-12643142D01*
X10097731Y-12662190D01*
X10088207Y-12671713D01*
X10069159Y-12681237D01*
X10050112Y-12681237D01*
X10031064Y-12671713D01*
X10021540Y-12662190D01*
X10012017Y-12643142D01*
X10002493Y-12605047D01*
X10002493Y-12557428D01*
X10012017Y-12519332D01*
X10021540Y-12500285D01*
X10031064Y-12490761D01*
X10050112Y-12481237D01*
X10202493Y-12662190D02*
X10212017Y-12671713D01*
X10202493Y-12681237D01*
X10192969Y-12671713D01*
X10202493Y-12662190D01*
X10202493Y-12681237D01*
X10335826Y-12481237D02*
X10354874Y-12481237D01*
X10373921Y-12490761D01*
X10383445Y-12500285D01*
X10392969Y-12519332D01*
X10402493Y-12557428D01*
X10402493Y-12605047D01*
X10392969Y-12643142D01*
X10383445Y-12662190D01*
X10373921Y-12671713D01*
X10354874Y-12681237D01*
X10335826Y-12681237D01*
X10316778Y-12671713D01*
X10307255Y-12662190D01*
X10297731Y-12643142D01*
X10288207Y-12605047D01*
X10288207Y-12557428D01*
X10297731Y-12519332D01*
X10307255Y-12500285D01*
X10316778Y-12490761D01*
X10335826Y-12481237D01*
X10469159Y-12481237D02*
X10592969Y-12481237D01*
X10526302Y-12557428D01*
X10554874Y-12557428D01*
X10573921Y-12566951D01*
X10583445Y-12576475D01*
X10592969Y-12595523D01*
X10592969Y-12643142D01*
X10583445Y-12662190D01*
X10573921Y-12671713D01*
X10554874Y-12681237D01*
X10497731Y-12681237D01*
X10478683Y-12671713D01*
X10469159Y-12662190D01*
X10716778Y-12481237D02*
X10735826Y-12481237D01*
X10754874Y-12490761D01*
X10764398Y-12500285D01*
X10773921Y-12519332D01*
X10783445Y-12557428D01*
X10783445Y-12605047D01*
X10773921Y-12643142D01*
X10764398Y-12662190D01*
X10754874Y-12671713D01*
X10735826Y-12681237D01*
X10716778Y-12681237D01*
X10697731Y-12671713D01*
X10688207Y-12662190D01*
X10678683Y-12643142D01*
X10669159Y-12605047D01*
X10669159Y-12557428D01*
X10678683Y-12519332D01*
X10688207Y-12500285D01*
X10697731Y-12490761D01*
X10716778Y-12481237D01*
X10907255Y-12481237D02*
X10926302Y-12481237D01*
X10945350Y-12490761D01*
X10954874Y-12500285D01*
X10964398Y-12519332D01*
X10973921Y-12557428D01*
X10973921Y-12605047D01*
X10964398Y-12643142D01*
X10954874Y-12662190D01*
X10945350Y-12671713D01*
X10926302Y-12681237D01*
X10907255Y-12681237D01*
X10888207Y-12671713D01*
X10878683Y-12662190D01*
X10869159Y-12643142D01*
X10859636Y-12605047D01*
X10859636Y-12557428D01*
X10869159Y-12519332D01*
X10878683Y-12500285D01*
X10888207Y-12490761D01*
X10907255Y-12481237D01*
X11050112Y-12481237D02*
X11050112Y-12519332D01*
X11126302Y-12481237D02*
X11126302Y-12519332D01*
X11421540Y-12757428D02*
X11412016Y-12747904D01*
X11392969Y-12719332D01*
X11383445Y-12700285D01*
X11373921Y-12671713D01*
X11364397Y-12624094D01*
X11364397Y-12585999D01*
X11373921Y-12538380D01*
X11383445Y-12509809D01*
X11392969Y-12490761D01*
X11412016Y-12462190D01*
X11421540Y-12452666D01*
X11592969Y-12481237D02*
X11497731Y-12481237D01*
X11488207Y-12576475D01*
X11497731Y-12566951D01*
X11516778Y-12557428D01*
X11564397Y-12557428D01*
X11583445Y-12566951D01*
X11592969Y-12576475D01*
X11602493Y-12595523D01*
X11602493Y-12643142D01*
X11592969Y-12662190D01*
X11583445Y-12671713D01*
X11564397Y-12681237D01*
X11516778Y-12681237D01*
X11497731Y-12671713D01*
X11488207Y-12662190D01*
X11840588Y-12681237D02*
X11840588Y-12481237D01*
X11926302Y-12681237D02*
X11926302Y-12576475D01*
X11916778Y-12557428D01*
X11897731Y-12547904D01*
X11869159Y-12547904D01*
X11850112Y-12557428D01*
X11840588Y-12566951D01*
X12050112Y-12681237D02*
X12031064Y-12671713D01*
X12021540Y-12662190D01*
X12012016Y-12643142D01*
X12012016Y-12585999D01*
X12021540Y-12566951D01*
X12031064Y-12557428D01*
X12050112Y-12547904D01*
X12078683Y-12547904D01*
X12097731Y-12557428D01*
X12107255Y-12566951D01*
X12116778Y-12585999D01*
X12116778Y-12643142D01*
X12107255Y-12662190D01*
X12097731Y-12671713D01*
X12078683Y-12681237D01*
X12050112Y-12681237D01*
X12231064Y-12681237D02*
X12212016Y-12671713D01*
X12202493Y-12652666D01*
X12202493Y-12481237D01*
X12383445Y-12671713D02*
X12364397Y-12681237D01*
X12326302Y-12681237D01*
X12307255Y-12671713D01*
X12297731Y-12652666D01*
X12297731Y-12576475D01*
X12307255Y-12557428D01*
X12326302Y-12547904D01*
X12364397Y-12547904D01*
X12383445Y-12557428D01*
X12392969Y-12576475D01*
X12392969Y-12595523D01*
X12297731Y-12614571D01*
X12469159Y-12671713D02*
X12488207Y-12681237D01*
X12526302Y-12681237D01*
X12545350Y-12671713D01*
X12554874Y-12652666D01*
X12554874Y-12643142D01*
X12545350Y-12624094D01*
X12526302Y-12614571D01*
X12497731Y-12614571D01*
X12478683Y-12605047D01*
X12469159Y-12585999D01*
X12469159Y-12576475D01*
X12478683Y-12557428D01*
X12497731Y-12547904D01*
X12526302Y-12547904D01*
X12545350Y-12557428D01*
X12621540Y-12757428D02*
X12631064Y-12747904D01*
X12650112Y-12719332D01*
X12659635Y-12700285D01*
X12669159Y-12671713D01*
X12678683Y-12624094D01*
X12678683Y-12585999D01*
X12669159Y-12538380D01*
X12659635Y-12509809D01*
X12650112Y-12490761D01*
X12631064Y-12462190D01*
X12621540Y-12452666D01*
D14*
X7809636Y-12814761D02*
X7809636Y-12894761D01*
X7769636Y-12854761D02*
X7849636Y-12854761D01*
D11*
X8145350Y-12745237D02*
X8164397Y-12745237D01*
X8183445Y-12754761D01*
X8192969Y-12764285D01*
X8202493Y-12783332D01*
X8212016Y-12821428D01*
X8212016Y-12869047D01*
X8202493Y-12907142D01*
X8192969Y-12926190D01*
X8183445Y-12935713D01*
X8164397Y-12945237D01*
X8145350Y-12945237D01*
X8126302Y-12935713D01*
X8116778Y-12926190D01*
X8107255Y-12907142D01*
X8097731Y-12869047D01*
X8097731Y-12821428D01*
X8107255Y-12783332D01*
X8116778Y-12764285D01*
X8126302Y-12754761D01*
X8145350Y-12745237D01*
X8297731Y-12926190D02*
X8307255Y-12935713D01*
X8297731Y-12945237D01*
X8288207Y-12935713D01*
X8297731Y-12926190D01*
X8297731Y-12945237D01*
X8421540Y-12830951D02*
X8402493Y-12821428D01*
X8392969Y-12811904D01*
X8383445Y-12792856D01*
X8383445Y-12783332D01*
X8392969Y-12764285D01*
X8402493Y-12754761D01*
X8421540Y-12745237D01*
X8459636Y-12745237D01*
X8478683Y-12754761D01*
X8488207Y-12764285D01*
X8497731Y-12783332D01*
X8497731Y-12792856D01*
X8488207Y-12811904D01*
X8478683Y-12821428D01*
X8459636Y-12830951D01*
X8421540Y-12830951D01*
X8402493Y-12840475D01*
X8392969Y-12849999D01*
X8383445Y-12869047D01*
X8383445Y-12907142D01*
X8392969Y-12926190D01*
X8402493Y-12935713D01*
X8421540Y-12945237D01*
X8459636Y-12945237D01*
X8478683Y-12935713D01*
X8488207Y-12926190D01*
X8497731Y-12907142D01*
X8497731Y-12869047D01*
X8488207Y-12849999D01*
X8478683Y-12840475D01*
X8459636Y-12830951D01*
X8621540Y-12745237D02*
X8640588Y-12745237D01*
X8659636Y-12754761D01*
X8669159Y-12764285D01*
X8678683Y-12783332D01*
X8688207Y-12821428D01*
X8688207Y-12869047D01*
X8678683Y-12907142D01*
X8669159Y-12926190D01*
X8659636Y-12935713D01*
X8640588Y-12945237D01*
X8621540Y-12945237D01*
X8602493Y-12935713D01*
X8592969Y-12926190D01*
X8583445Y-12907142D01*
X8573921Y-12869047D01*
X8573921Y-12821428D01*
X8583445Y-12783332D01*
X8592969Y-12764285D01*
X8602493Y-12754761D01*
X8621540Y-12745237D01*
X8812017Y-12745237D02*
X8831064Y-12745237D01*
X8850112Y-12754761D01*
X8859636Y-12764285D01*
X8869159Y-12783332D01*
X8878683Y-12821428D01*
X8878683Y-12869047D01*
X8869159Y-12907142D01*
X8859636Y-12926190D01*
X8850112Y-12935713D01*
X8831064Y-12945237D01*
X8812017Y-12945237D01*
X8792969Y-12935713D01*
X8783445Y-12926190D01*
X8773921Y-12907142D01*
X8764398Y-12869047D01*
X8764398Y-12821428D01*
X8773921Y-12783332D01*
X8783445Y-12764285D01*
X8792969Y-12754761D01*
X8812017Y-12745237D01*
X8964398Y-12945237D02*
X8964398Y-12811904D01*
X8964398Y-12830951D02*
X8973921Y-12821428D01*
X8992969Y-12811904D01*
X9021540Y-12811904D01*
X9040588Y-12821428D01*
X9050112Y-12840475D01*
X9050112Y-12945237D01*
X9050112Y-12840475D02*
X9059636Y-12821428D01*
X9078683Y-12811904D01*
X9107255Y-12811904D01*
X9126302Y-12821428D01*
X9135826Y-12840475D01*
X9135826Y-12945237D01*
X9231064Y-12945237D02*
X9231064Y-12811904D01*
X9231064Y-12830951D02*
X9240588Y-12821428D01*
X9259636Y-12811904D01*
X9288207Y-12811904D01*
X9307255Y-12821428D01*
X9316778Y-12840475D01*
X9316778Y-12945237D01*
X9316778Y-12840475D02*
X9326302Y-12821428D01*
X9345350Y-12811904D01*
X9373921Y-12811904D01*
X9392969Y-12821428D01*
X9402493Y-12840475D01*
X9402493Y-12945237D01*
X9792969Y-12735713D02*
X9621540Y-12992856D01*
X10050112Y-12745237D02*
X10069159Y-12745237D01*
X10088207Y-12754761D01*
X10097731Y-12764285D01*
X10107255Y-12783332D01*
X10116778Y-12821428D01*
X10116778Y-12869047D01*
X10107255Y-12907142D01*
X10097731Y-12926190D01*
X10088207Y-12935713D01*
X10069159Y-12945237D01*
X10050112Y-12945237D01*
X10031064Y-12935713D01*
X10021540Y-12926190D01*
X10012017Y-12907142D01*
X10002493Y-12869047D01*
X10002493Y-12821428D01*
X10012017Y-12783332D01*
X10021540Y-12764285D01*
X10031064Y-12754761D01*
X10050112Y-12745237D01*
X10202493Y-12926190D02*
X10212017Y-12935713D01*
X10202493Y-12945237D01*
X10192969Y-12935713D01*
X10202493Y-12926190D01*
X10202493Y-12945237D01*
X10335826Y-12745237D02*
X10354874Y-12745237D01*
X10373921Y-12754761D01*
X10383445Y-12764285D01*
X10392969Y-12783332D01*
X10402493Y-12821428D01*
X10402493Y-12869047D01*
X10392969Y-12907142D01*
X10383445Y-12926190D01*
X10373921Y-12935713D01*
X10354874Y-12945237D01*
X10335826Y-12945237D01*
X10316778Y-12935713D01*
X10307255Y-12926190D01*
X10297731Y-12907142D01*
X10288207Y-12869047D01*
X10288207Y-12821428D01*
X10297731Y-12783332D01*
X10307255Y-12764285D01*
X10316778Y-12754761D01*
X10335826Y-12745237D01*
X10469159Y-12745237D02*
X10592969Y-12745237D01*
X10526302Y-12821428D01*
X10554874Y-12821428D01*
X10573921Y-12830951D01*
X10583445Y-12840475D01*
X10592969Y-12859523D01*
X10592969Y-12907142D01*
X10583445Y-12926190D01*
X10573921Y-12935713D01*
X10554874Y-12945237D01*
X10497731Y-12945237D01*
X10478683Y-12935713D01*
X10469159Y-12926190D01*
X10783445Y-12945237D02*
X10669159Y-12945237D01*
X10726302Y-12945237D02*
X10726302Y-12745237D01*
X10707255Y-12773809D01*
X10688207Y-12792856D01*
X10669159Y-12802380D01*
X10964398Y-12745237D02*
X10869159Y-12745237D01*
X10859636Y-12840475D01*
X10869159Y-12830951D01*
X10888207Y-12821428D01*
X10935826Y-12821428D01*
X10954874Y-12830951D01*
X10964398Y-12840475D01*
X10973921Y-12859523D01*
X10973921Y-12907142D01*
X10964398Y-12926190D01*
X10954874Y-12935713D01*
X10935826Y-12945237D01*
X10888207Y-12945237D01*
X10869159Y-12935713D01*
X10859636Y-12926190D01*
X11050112Y-12745237D02*
X11050112Y-12783332D01*
X11126302Y-12745237D02*
X11126302Y-12783332D01*
X11421540Y-13021428D02*
X11412016Y-13011904D01*
X11392969Y-12983332D01*
X11383445Y-12964285D01*
X11373921Y-12935713D01*
X11364397Y-12888094D01*
X11364397Y-12849999D01*
X11373921Y-12802380D01*
X11383445Y-12773809D01*
X11392969Y-12754761D01*
X11412016Y-12726190D01*
X11421540Y-12716666D01*
X11488207Y-12764285D02*
X11497731Y-12754761D01*
X11516778Y-12745237D01*
X11564397Y-12745237D01*
X11583445Y-12754761D01*
X11592969Y-12764285D01*
X11602493Y-12783332D01*
X11602493Y-12802380D01*
X11592969Y-12830951D01*
X11478683Y-12945237D01*
X11602493Y-12945237D01*
X11840588Y-12945237D02*
X11840588Y-12745237D01*
X11926302Y-12945237D02*
X11926302Y-12840475D01*
X11916778Y-12821428D01*
X11897731Y-12811904D01*
X11869159Y-12811904D01*
X11850112Y-12821428D01*
X11840588Y-12830951D01*
X12050112Y-12945237D02*
X12031064Y-12935713D01*
X12021540Y-12926190D01*
X12012016Y-12907142D01*
X12012016Y-12849999D01*
X12021540Y-12830951D01*
X12031064Y-12821428D01*
X12050112Y-12811904D01*
X12078683Y-12811904D01*
X12097731Y-12821428D01*
X12107255Y-12830951D01*
X12116778Y-12849999D01*
X12116778Y-12907142D01*
X12107255Y-12926190D01*
X12097731Y-12935713D01*
X12078683Y-12945237D01*
X12050112Y-12945237D01*
X12231064Y-12945237D02*
X12212016Y-12935713D01*
X12202493Y-12916666D01*
X12202493Y-12745237D01*
X12383445Y-12935713D02*
X12364397Y-12945237D01*
X12326302Y-12945237D01*
X12307255Y-12935713D01*
X12297731Y-12916666D01*
X12297731Y-12840475D01*
X12307255Y-12821428D01*
X12326302Y-12811904D01*
X12364397Y-12811904D01*
X12383445Y-12821428D01*
X12392969Y-12840475D01*
X12392969Y-12859523D01*
X12297731Y-12878571D01*
X12469159Y-12935713D02*
X12488207Y-12945237D01*
X12526302Y-12945237D01*
X12545350Y-12935713D01*
X12554874Y-12916666D01*
X12554874Y-12907142D01*
X12545350Y-12888094D01*
X12526302Y-12878571D01*
X12497731Y-12878571D01*
X12478683Y-12869047D01*
X12469159Y-12849999D01*
X12469159Y-12840475D01*
X12478683Y-12821428D01*
X12497731Y-12811904D01*
X12526302Y-12811904D01*
X12545350Y-12821428D01*
X12621540Y-13021428D02*
X12631064Y-13011904D01*
X12650112Y-12983332D01*
X12659635Y-12964285D01*
X12669159Y-12935713D01*
X12678683Y-12888094D01*
X12678683Y-12849999D01*
X12669159Y-12802380D01*
X12659635Y-12773809D01*
X12650112Y-12754761D01*
X12631064Y-12726190D01*
X12621540Y-12716666D01*
D10*
X7834991Y-13154117D02*
X7834991Y-13083405D01*
X7764280Y-13083405D01*
X7764280Y-13154117D01*
X7834991Y-13154117D01*
D11*
X8212016Y-13209237D02*
X8097731Y-13209237D01*
X8154874Y-13209237D02*
X8154874Y-13009237D01*
X8135826Y-13037809D01*
X8116778Y-13056856D01*
X8097731Y-13066380D01*
X8297731Y-13190190D02*
X8307255Y-13199713D01*
X8297731Y-13209237D01*
X8288207Y-13199713D01*
X8297731Y-13190190D01*
X8297731Y-13209237D01*
X8431064Y-13009237D02*
X8450112Y-13009237D01*
X8469159Y-13018761D01*
X8478683Y-13028285D01*
X8488207Y-13047332D01*
X8497731Y-13085428D01*
X8497731Y-13133047D01*
X8488207Y-13171142D01*
X8478683Y-13190190D01*
X8469159Y-13199713D01*
X8450112Y-13209237D01*
X8431064Y-13209237D01*
X8412017Y-13199713D01*
X8402493Y-13190190D01*
X8392969Y-13171142D01*
X8383445Y-13133047D01*
X8383445Y-13085428D01*
X8392969Y-13047332D01*
X8402493Y-13028285D01*
X8412017Y-13018761D01*
X8431064Y-13009237D01*
X8621540Y-13009237D02*
X8640588Y-13009237D01*
X8659636Y-13018761D01*
X8669159Y-13028285D01*
X8678683Y-13047332D01*
X8688207Y-13085428D01*
X8688207Y-13133047D01*
X8678683Y-13171142D01*
X8669159Y-13190190D01*
X8659636Y-13199713D01*
X8640588Y-13209237D01*
X8621540Y-13209237D01*
X8602493Y-13199713D01*
X8592969Y-13190190D01*
X8583445Y-13171142D01*
X8573921Y-13133047D01*
X8573921Y-13085428D01*
X8583445Y-13047332D01*
X8592969Y-13028285D01*
X8602493Y-13018761D01*
X8621540Y-13009237D01*
X8812017Y-13009237D02*
X8831064Y-13009237D01*
X8850112Y-13018761D01*
X8859636Y-13028285D01*
X8869159Y-13047332D01*
X8878683Y-13085428D01*
X8878683Y-13133047D01*
X8869159Y-13171142D01*
X8859636Y-13190190D01*
X8850112Y-13199713D01*
X8831064Y-13209237D01*
X8812017Y-13209237D01*
X8792969Y-13199713D01*
X8783445Y-13190190D01*
X8773921Y-13171142D01*
X8764398Y-13133047D01*
X8764398Y-13085428D01*
X8773921Y-13047332D01*
X8783445Y-13028285D01*
X8792969Y-13018761D01*
X8812017Y-13009237D01*
X8964398Y-13209237D02*
X8964398Y-13075904D01*
X8964398Y-13094951D02*
X8973921Y-13085428D01*
X8992969Y-13075904D01*
X9021540Y-13075904D01*
X9040588Y-13085428D01*
X9050112Y-13104475D01*
X9050112Y-13209237D01*
X9050112Y-13104475D02*
X9059636Y-13085428D01*
X9078683Y-13075904D01*
X9107255Y-13075904D01*
X9126302Y-13085428D01*
X9135826Y-13104475D01*
X9135826Y-13209237D01*
X9231064Y-13209237D02*
X9231064Y-13075904D01*
X9231064Y-13094951D02*
X9240588Y-13085428D01*
X9259636Y-13075904D01*
X9288207Y-13075904D01*
X9307255Y-13085428D01*
X9316778Y-13104475D01*
X9316778Y-13209237D01*
X9316778Y-13104475D02*
X9326302Y-13085428D01*
X9345350Y-13075904D01*
X9373921Y-13075904D01*
X9392969Y-13085428D01*
X9402493Y-13104475D01*
X9402493Y-13209237D01*
X9792969Y-12999713D02*
X9621540Y-13256856D01*
X10050112Y-13009237D02*
X10069159Y-13009237D01*
X10088207Y-13018761D01*
X10097731Y-13028285D01*
X10107255Y-13047332D01*
X10116778Y-13085428D01*
X10116778Y-13133047D01*
X10107255Y-13171142D01*
X10097731Y-13190190D01*
X10088207Y-13199713D01*
X10069159Y-13209237D01*
X10050112Y-13209237D01*
X10031064Y-13199713D01*
X10021540Y-13190190D01*
X10012017Y-13171142D01*
X10002493Y-13133047D01*
X10002493Y-13085428D01*
X10012017Y-13047332D01*
X10021540Y-13028285D01*
X10031064Y-13018761D01*
X10050112Y-13009237D01*
X10202493Y-13190190D02*
X10212017Y-13199713D01*
X10202493Y-13209237D01*
X10192969Y-13199713D01*
X10202493Y-13190190D01*
X10202493Y-13209237D01*
X10335826Y-13009237D02*
X10354874Y-13009237D01*
X10373921Y-13018761D01*
X10383445Y-13028285D01*
X10392969Y-13047332D01*
X10402493Y-13085428D01*
X10402493Y-13133047D01*
X10392969Y-13171142D01*
X10383445Y-13190190D01*
X10373921Y-13199713D01*
X10354874Y-13209237D01*
X10335826Y-13209237D01*
X10316778Y-13199713D01*
X10307255Y-13190190D01*
X10297731Y-13171142D01*
X10288207Y-13133047D01*
X10288207Y-13085428D01*
X10297731Y-13047332D01*
X10307255Y-13028285D01*
X10316778Y-13018761D01*
X10335826Y-13009237D01*
X10469159Y-13009237D02*
X10592969Y-13009237D01*
X10526302Y-13085428D01*
X10554874Y-13085428D01*
X10573921Y-13094951D01*
X10583445Y-13104475D01*
X10592969Y-13123523D01*
X10592969Y-13171142D01*
X10583445Y-13190190D01*
X10573921Y-13199713D01*
X10554874Y-13209237D01*
X10497731Y-13209237D01*
X10478683Y-13199713D01*
X10469159Y-13190190D01*
X10688207Y-13209237D02*
X10726302Y-13209237D01*
X10745350Y-13199713D01*
X10754874Y-13190190D01*
X10773921Y-13161618D01*
X10783445Y-13123523D01*
X10783445Y-13047332D01*
X10773921Y-13028285D01*
X10764398Y-13018761D01*
X10745350Y-13009237D01*
X10707255Y-13009237D01*
X10688207Y-13018761D01*
X10678683Y-13028285D01*
X10669159Y-13047332D01*
X10669159Y-13094951D01*
X10678683Y-13113999D01*
X10688207Y-13123523D01*
X10707255Y-13133047D01*
X10745350Y-13133047D01*
X10764398Y-13123523D01*
X10773921Y-13113999D01*
X10783445Y-13094951D01*
X10954874Y-13075904D02*
X10954874Y-13209237D01*
X10907255Y-12999713D02*
X10859636Y-13142571D01*
X10983445Y-13142571D01*
X11050112Y-13009237D02*
X11050112Y-13047332D01*
X11126302Y-13009237D02*
X11126302Y-13047332D01*
X11421540Y-13285428D02*
X11412016Y-13275904D01*
X11392969Y-13247332D01*
X11383445Y-13228285D01*
X11373921Y-13199713D01*
X11364397Y-13152094D01*
X11364397Y-13113999D01*
X11373921Y-13066380D01*
X11383445Y-13037809D01*
X11392969Y-13018761D01*
X11412016Y-12990190D01*
X11421540Y-12980666D01*
X11583445Y-13075904D02*
X11583445Y-13209237D01*
X11535826Y-12999713D02*
X11488207Y-13142571D01*
X11612016Y-13142571D01*
X11773921Y-13009237D02*
X11735826Y-13009237D01*
X11716778Y-13018761D01*
X11707255Y-13028285D01*
X11688207Y-13056856D01*
X11678683Y-13094951D01*
X11678683Y-13171142D01*
X11688207Y-13190190D01*
X11697731Y-13199713D01*
X11716778Y-13209237D01*
X11754874Y-13209237D01*
X11773921Y-13199713D01*
X11783445Y-13190190D01*
X11792969Y-13171142D01*
X11792969Y-13123523D01*
X11783445Y-13104475D01*
X11773921Y-13094951D01*
X11754874Y-13085428D01*
X11716778Y-13085428D01*
X11697731Y-13094951D01*
X11688207Y-13104475D01*
X11678683Y-13123523D01*
X12031064Y-13209237D02*
X12031064Y-13009237D01*
X12116778Y-13209237D02*
X12116778Y-13104475D01*
X12107255Y-13085428D01*
X12088207Y-13075904D01*
X12059635Y-13075904D01*
X12040588Y-13085428D01*
X12031064Y-13094951D01*
X12240588Y-13209237D02*
X12221540Y-13199713D01*
X12212016Y-13190190D01*
X12202493Y-13171142D01*
X12202493Y-13113999D01*
X12212016Y-13094951D01*
X12221540Y-13085428D01*
X12240588Y-13075904D01*
X12269159Y-13075904D01*
X12288207Y-13085428D01*
X12297731Y-13094951D01*
X12307255Y-13113999D01*
X12307255Y-13171142D01*
X12297731Y-13190190D01*
X12288207Y-13199713D01*
X12269159Y-13209237D01*
X12240588Y-13209237D01*
X12421540Y-13209237D02*
X12402493Y-13199713D01*
X12392969Y-13180666D01*
X12392969Y-13009237D01*
X12573921Y-13199713D02*
X12554874Y-13209237D01*
X12516778Y-13209237D01*
X12497731Y-13199713D01*
X12488207Y-13180666D01*
X12488207Y-13104475D01*
X12497731Y-13085428D01*
X12516778Y-13075904D01*
X12554874Y-13075904D01*
X12573921Y-13085428D01*
X12583445Y-13104475D01*
X12583445Y-13123523D01*
X12488207Y-13142571D01*
X12659635Y-13199713D02*
X12678683Y-13209237D01*
X12716778Y-13209237D01*
X12735826Y-13199713D01*
X12745350Y-13180666D01*
X12745350Y-13171142D01*
X12735826Y-13152094D01*
X12716778Y-13142571D01*
X12688207Y-13142571D01*
X12669159Y-13133047D01*
X12659635Y-13113999D01*
X12659635Y-13104475D01*
X12669159Y-13085428D01*
X12688207Y-13075904D01*
X12716778Y-13075904D01*
X12735826Y-13085428D01*
X12812016Y-13285428D02*
X12821540Y-13275904D01*
X12840588Y-13247332D01*
X12850112Y-13228285D01*
X12859635Y-13199713D01*
X12869159Y-13152094D01*
X12869159Y-13113999D01*
X12859635Y-13066380D01*
X12850112Y-13037809D01*
X12840588Y-13018761D01*
X12821540Y-12990190D01*
X12812016Y-12980666D01*
D15*
X7773636Y-13458761D02*
X7849636Y-13382761D01*
X7773636Y-13306761D01*
X7697636Y-13382761D01*
X7773636Y-13458761D01*
D11*
X8212016Y-13473237D02*
X8097731Y-13473237D01*
X8154874Y-13473237D02*
X8154874Y-13273237D01*
X8135826Y-13301809D01*
X8116778Y-13320856D01*
X8097731Y-13330380D01*
X8297731Y-13454190D02*
X8307255Y-13463713D01*
X8297731Y-13473237D01*
X8288207Y-13463713D01*
X8297731Y-13454190D01*
X8297731Y-13473237D01*
X8488207Y-13273237D02*
X8392969Y-13273237D01*
X8383445Y-13368475D01*
X8392969Y-13358951D01*
X8412017Y-13349428D01*
X8459636Y-13349428D01*
X8478683Y-13358951D01*
X8488207Y-13368475D01*
X8497731Y-13387523D01*
X8497731Y-13435142D01*
X8488207Y-13454190D01*
X8478683Y-13463713D01*
X8459636Y-13473237D01*
X8412017Y-13473237D01*
X8392969Y-13463713D01*
X8383445Y-13454190D01*
X8573921Y-13292285D02*
X8583445Y-13282761D01*
X8602493Y-13273237D01*
X8650112Y-13273237D01*
X8669159Y-13282761D01*
X8678683Y-13292285D01*
X8688207Y-13311332D01*
X8688207Y-13330380D01*
X8678683Y-13358951D01*
X8564398Y-13473237D01*
X8688207Y-13473237D01*
X8812017Y-13273237D02*
X8831064Y-13273237D01*
X8850112Y-13282761D01*
X8859636Y-13292285D01*
X8869159Y-13311332D01*
X8878683Y-13349428D01*
X8878683Y-13397047D01*
X8869159Y-13435142D01*
X8859636Y-13454190D01*
X8850112Y-13463713D01*
X8831064Y-13473237D01*
X8812017Y-13473237D01*
X8792969Y-13463713D01*
X8783445Y-13454190D01*
X8773921Y-13435142D01*
X8764398Y-13397047D01*
X8764398Y-13349428D01*
X8773921Y-13311332D01*
X8783445Y-13292285D01*
X8792969Y-13282761D01*
X8812017Y-13273237D01*
X8964398Y-13473237D02*
X8964398Y-13339904D01*
X8964398Y-13358951D02*
X8973921Y-13349428D01*
X8992969Y-13339904D01*
X9021540Y-13339904D01*
X9040588Y-13349428D01*
X9050112Y-13368475D01*
X9050112Y-13473237D01*
X9050112Y-13368475D02*
X9059636Y-13349428D01*
X9078683Y-13339904D01*
X9107255Y-13339904D01*
X9126302Y-13349428D01*
X9135826Y-13368475D01*
X9135826Y-13473237D01*
X9231064Y-13473237D02*
X9231064Y-13339904D01*
X9231064Y-13358951D02*
X9240588Y-13349428D01*
X9259636Y-13339904D01*
X9288207Y-13339904D01*
X9307255Y-13349428D01*
X9316778Y-13368475D01*
X9316778Y-13473237D01*
X9316778Y-13368475D02*
X9326302Y-13349428D01*
X9345350Y-13339904D01*
X9373921Y-13339904D01*
X9392969Y-13349428D01*
X9402493Y-13368475D01*
X9402493Y-13473237D01*
X9792969Y-13263713D02*
X9621540Y-13520856D01*
X10050112Y-13273237D02*
X10069159Y-13273237D01*
X10088207Y-13282761D01*
X10097731Y-13292285D01*
X10107255Y-13311332D01*
X10116778Y-13349428D01*
X10116778Y-13397047D01*
X10107255Y-13435142D01*
X10097731Y-13454190D01*
X10088207Y-13463713D01*
X10069159Y-13473237D01*
X10050112Y-13473237D01*
X10031064Y-13463713D01*
X10021540Y-13454190D01*
X10012017Y-13435142D01*
X10002493Y-13397047D01*
X10002493Y-13349428D01*
X10012017Y-13311332D01*
X10021540Y-13292285D01*
X10031064Y-13282761D01*
X10050112Y-13273237D01*
X10202493Y-13454190D02*
X10212017Y-13463713D01*
X10202493Y-13473237D01*
X10192969Y-13463713D01*
X10202493Y-13454190D01*
X10202493Y-13473237D01*
X10335826Y-13273237D02*
X10354874Y-13273237D01*
X10373921Y-13282761D01*
X10383445Y-13292285D01*
X10392969Y-13311332D01*
X10402493Y-13349428D01*
X10402493Y-13397047D01*
X10392969Y-13435142D01*
X10383445Y-13454190D01*
X10373921Y-13463713D01*
X10354874Y-13473237D01*
X10335826Y-13473237D01*
X10316778Y-13463713D01*
X10307255Y-13454190D01*
X10297731Y-13435142D01*
X10288207Y-13397047D01*
X10288207Y-13349428D01*
X10297731Y-13311332D01*
X10307255Y-13292285D01*
X10316778Y-13282761D01*
X10335826Y-13273237D01*
X10583445Y-13273237D02*
X10488207Y-13273237D01*
X10478683Y-13368475D01*
X10488207Y-13358951D01*
X10507255Y-13349428D01*
X10554874Y-13349428D01*
X10573921Y-13358951D01*
X10583445Y-13368475D01*
X10592969Y-13387523D01*
X10592969Y-13435142D01*
X10583445Y-13454190D01*
X10573921Y-13463713D01*
X10554874Y-13473237D01*
X10507255Y-13473237D01*
X10488207Y-13463713D01*
X10478683Y-13454190D01*
X10688207Y-13473237D02*
X10726302Y-13473237D01*
X10745350Y-13463713D01*
X10754874Y-13454190D01*
X10773921Y-13425618D01*
X10783445Y-13387523D01*
X10783445Y-13311332D01*
X10773921Y-13292285D01*
X10764398Y-13282761D01*
X10745350Y-13273237D01*
X10707255Y-13273237D01*
X10688207Y-13282761D01*
X10678683Y-13292285D01*
X10669159Y-13311332D01*
X10669159Y-13358951D01*
X10678683Y-13377999D01*
X10688207Y-13387523D01*
X10707255Y-13397047D01*
X10745350Y-13397047D01*
X10764398Y-13387523D01*
X10773921Y-13377999D01*
X10783445Y-13358951D01*
X10897731Y-13358951D02*
X10878683Y-13349428D01*
X10869159Y-13339904D01*
X10859636Y-13320856D01*
X10859636Y-13311332D01*
X10869159Y-13292285D01*
X10878683Y-13282761D01*
X10897731Y-13273237D01*
X10935826Y-13273237D01*
X10954874Y-13282761D01*
X10964398Y-13292285D01*
X10973921Y-13311332D01*
X10973921Y-13320856D01*
X10964398Y-13339904D01*
X10954874Y-13349428D01*
X10935826Y-13358951D01*
X10897731Y-13358951D01*
X10878683Y-13368475D01*
X10869159Y-13377999D01*
X10859636Y-13397047D01*
X10859636Y-13435142D01*
X10869159Y-13454190D01*
X10878683Y-13463713D01*
X10897731Y-13473237D01*
X10935826Y-13473237D01*
X10954874Y-13463713D01*
X10964398Y-13454190D01*
X10973921Y-13435142D01*
X10973921Y-13397047D01*
X10964398Y-13377999D01*
X10954874Y-13368475D01*
X10935826Y-13358951D01*
X11050112Y-13273237D02*
X11050112Y-13311332D01*
X11126302Y-13273237D02*
X11126302Y-13311332D01*
X11421540Y-13549428D02*
X11412016Y-13539904D01*
X11392969Y-13511332D01*
X11383445Y-13492285D01*
X11373921Y-13463713D01*
X11364397Y-13416094D01*
X11364397Y-13377999D01*
X11373921Y-13330380D01*
X11383445Y-13301809D01*
X11392969Y-13282761D01*
X11412016Y-13254190D01*
X11421540Y-13244666D01*
X11488207Y-13292285D02*
X11497731Y-13282761D01*
X11516778Y-13273237D01*
X11564397Y-13273237D01*
X11583445Y-13282761D01*
X11592969Y-13292285D01*
X11602493Y-13311332D01*
X11602493Y-13330380D01*
X11592969Y-13358951D01*
X11478683Y-13473237D01*
X11602493Y-13473237D01*
X11840588Y-13473237D02*
X11840588Y-13273237D01*
X11926302Y-13473237D02*
X11926302Y-13368475D01*
X11916778Y-13349428D01*
X11897731Y-13339904D01*
X11869159Y-13339904D01*
X11850112Y-13349428D01*
X11840588Y-13358951D01*
X12050112Y-13473237D02*
X12031064Y-13463713D01*
X12021540Y-13454190D01*
X12012016Y-13435142D01*
X12012016Y-13377999D01*
X12021540Y-13358951D01*
X12031064Y-13349428D01*
X12050112Y-13339904D01*
X12078683Y-13339904D01*
X12097731Y-13349428D01*
X12107255Y-13358951D01*
X12116778Y-13377999D01*
X12116778Y-13435142D01*
X12107255Y-13454190D01*
X12097731Y-13463713D01*
X12078683Y-13473237D01*
X12050112Y-13473237D01*
X12231064Y-13473237D02*
X12212016Y-13463713D01*
X12202493Y-13444666D01*
X12202493Y-13273237D01*
X12383445Y-13463713D02*
X12364397Y-13473237D01*
X12326302Y-13473237D01*
X12307255Y-13463713D01*
X12297731Y-13444666D01*
X12297731Y-13368475D01*
X12307255Y-13349428D01*
X12326302Y-13339904D01*
X12364397Y-13339904D01*
X12383445Y-13349428D01*
X12392969Y-13368475D01*
X12392969Y-13387523D01*
X12297731Y-13406571D01*
X12469159Y-13463713D02*
X12488207Y-13473237D01*
X12526302Y-13473237D01*
X12545350Y-13463713D01*
X12554874Y-13444666D01*
X12554874Y-13435142D01*
X12545350Y-13416094D01*
X12526302Y-13406571D01*
X12497731Y-13406571D01*
X12478683Y-13397047D01*
X12469159Y-13377999D01*
X12469159Y-13368475D01*
X12478683Y-13349428D01*
X12497731Y-13339904D01*
X12526302Y-13339904D01*
X12545350Y-13349428D01*
X12621540Y-13549428D02*
X12631064Y-13539904D01*
X12650112Y-13511332D01*
X12659635Y-13492285D01*
X12669159Y-13463713D01*
X12678683Y-13416094D01*
X12678683Y-13377999D01*
X12669159Y-13330380D01*
X12659635Y-13301809D01*
X12650112Y-13282761D01*
X12631064Y-13254190D01*
X12621540Y-13244666D01*
X7649636Y-13554761D02*
X7849636Y-13754761D01*
X7849636Y-13554761D02*
X7649636Y-13754761D01*
X7849636Y-13654761D02*
G75*
G03*
X7849636Y-13654761I-100000J0D01*
G01*
X8097731Y-13564285D02*
X8107255Y-13554761D01*
X8126302Y-13545237D01*
X8173921Y-13545237D01*
X8192969Y-13554761D01*
X8202493Y-13564285D01*
X8212016Y-13583332D01*
X8212016Y-13602380D01*
X8202493Y-13630951D01*
X8088207Y-13745237D01*
X8212016Y-13745237D01*
X8297731Y-13726190D02*
X8307255Y-13735713D01*
X8297731Y-13745237D01*
X8288207Y-13735713D01*
X8297731Y-13726190D01*
X8297731Y-13745237D01*
X8431064Y-13545237D02*
X8450112Y-13545237D01*
X8469159Y-13554761D01*
X8478683Y-13564285D01*
X8488207Y-13583332D01*
X8497731Y-13621428D01*
X8497731Y-13669047D01*
X8488207Y-13707142D01*
X8478683Y-13726190D01*
X8469159Y-13735713D01*
X8450112Y-13745237D01*
X8431064Y-13745237D01*
X8412017Y-13735713D01*
X8402493Y-13726190D01*
X8392969Y-13707142D01*
X8383445Y-13669047D01*
X8383445Y-13621428D01*
X8392969Y-13583332D01*
X8402493Y-13564285D01*
X8412017Y-13554761D01*
X8431064Y-13545237D01*
X8621540Y-13545237D02*
X8640588Y-13545237D01*
X8659636Y-13554761D01*
X8669159Y-13564285D01*
X8678683Y-13583332D01*
X8688207Y-13621428D01*
X8688207Y-13669047D01*
X8678683Y-13707142D01*
X8669159Y-13726190D01*
X8659636Y-13735713D01*
X8640588Y-13745237D01*
X8621540Y-13745237D01*
X8602493Y-13735713D01*
X8592969Y-13726190D01*
X8583445Y-13707142D01*
X8573921Y-13669047D01*
X8573921Y-13621428D01*
X8583445Y-13583332D01*
X8592969Y-13564285D01*
X8602493Y-13554761D01*
X8621540Y-13545237D01*
X8812017Y-13545237D02*
X8831064Y-13545237D01*
X8850112Y-13554761D01*
X8859636Y-13564285D01*
X8869159Y-13583332D01*
X8878683Y-13621428D01*
X8878683Y-13669047D01*
X8869159Y-13707142D01*
X8859636Y-13726190D01*
X8850112Y-13735713D01*
X8831064Y-13745237D01*
X8812017Y-13745237D01*
X8792969Y-13735713D01*
X8783445Y-13726190D01*
X8773921Y-13707142D01*
X8764398Y-13669047D01*
X8764398Y-13621428D01*
X8773921Y-13583332D01*
X8783445Y-13564285D01*
X8792969Y-13554761D01*
X8812017Y-13545237D01*
X8964398Y-13745237D02*
X8964398Y-13611904D01*
X8964398Y-13630951D02*
X8973921Y-13621428D01*
X8992969Y-13611904D01*
X9021540Y-13611904D01*
X9040588Y-13621428D01*
X9050112Y-13640475D01*
X9050112Y-13745237D01*
X9050112Y-13640475D02*
X9059636Y-13621428D01*
X9078683Y-13611904D01*
X9107255Y-13611904D01*
X9126302Y-13621428D01*
X9135826Y-13640475D01*
X9135826Y-13745237D01*
X9231064Y-13745237D02*
X9231064Y-13611904D01*
X9231064Y-13630951D02*
X9240588Y-13621428D01*
X9259636Y-13611904D01*
X9288207Y-13611904D01*
X9307255Y-13621428D01*
X9316778Y-13640475D01*
X9316778Y-13745237D01*
X9316778Y-13640475D02*
X9326302Y-13621428D01*
X9345350Y-13611904D01*
X9373921Y-13611904D01*
X9392969Y-13621428D01*
X9402493Y-13640475D01*
X9402493Y-13745237D01*
X9792969Y-13535713D02*
X9621540Y-13792856D01*
X10050112Y-13545237D02*
X10069159Y-13545237D01*
X10088207Y-13554761D01*
X10097731Y-13564285D01*
X10107255Y-13583332D01*
X10116778Y-13621428D01*
X10116778Y-13669047D01*
X10107255Y-13707142D01*
X10097731Y-13726190D01*
X10088207Y-13735713D01*
X10069159Y-13745237D01*
X10050112Y-13745237D01*
X10031064Y-13735713D01*
X10021540Y-13726190D01*
X10012017Y-13707142D01*
X10002493Y-13669047D01*
X10002493Y-13621428D01*
X10012017Y-13583332D01*
X10021540Y-13564285D01*
X10031064Y-13554761D01*
X10050112Y-13545237D01*
X10202493Y-13726190D02*
X10212017Y-13735713D01*
X10202493Y-13745237D01*
X10192969Y-13735713D01*
X10202493Y-13726190D01*
X10202493Y-13745237D01*
X10335826Y-13545237D02*
X10354874Y-13545237D01*
X10373921Y-13554761D01*
X10383445Y-13564285D01*
X10392969Y-13583332D01*
X10402493Y-13621428D01*
X10402493Y-13669047D01*
X10392969Y-13707142D01*
X10383445Y-13726190D01*
X10373921Y-13735713D01*
X10354874Y-13745237D01*
X10335826Y-13745237D01*
X10316778Y-13735713D01*
X10307255Y-13726190D01*
X10297731Y-13707142D01*
X10288207Y-13669047D01*
X10288207Y-13621428D01*
X10297731Y-13583332D01*
X10307255Y-13564285D01*
X10316778Y-13554761D01*
X10335826Y-13545237D01*
X10469159Y-13545237D02*
X10602493Y-13545237D01*
X10516778Y-13745237D01*
X10707255Y-13630951D02*
X10688207Y-13621428D01*
X10678683Y-13611904D01*
X10669159Y-13592856D01*
X10669159Y-13583332D01*
X10678683Y-13564285D01*
X10688207Y-13554761D01*
X10707255Y-13545237D01*
X10745350Y-13545237D01*
X10764398Y-13554761D01*
X10773921Y-13564285D01*
X10783445Y-13583332D01*
X10783445Y-13592856D01*
X10773921Y-13611904D01*
X10764398Y-13621428D01*
X10745350Y-13630951D01*
X10707255Y-13630951D01*
X10688207Y-13640475D01*
X10678683Y-13649999D01*
X10669159Y-13669047D01*
X10669159Y-13707142D01*
X10678683Y-13726190D01*
X10688207Y-13735713D01*
X10707255Y-13745237D01*
X10745350Y-13745237D01*
X10764398Y-13735713D01*
X10773921Y-13726190D01*
X10783445Y-13707142D01*
X10783445Y-13669047D01*
X10773921Y-13649999D01*
X10764398Y-13640475D01*
X10745350Y-13630951D01*
X10850112Y-13545237D02*
X10983445Y-13545237D01*
X10897731Y-13745237D01*
X11050112Y-13545237D02*
X11050112Y-13583332D01*
X11126302Y-13545237D02*
X11126302Y-13583332D01*
X11421540Y-13821428D02*
X11412016Y-13811904D01*
X11392969Y-13783332D01*
X11383445Y-13764285D01*
X11373921Y-13735713D01*
X11364397Y-13688094D01*
X11364397Y-13649999D01*
X11373921Y-13602380D01*
X11383445Y-13573809D01*
X11392969Y-13554761D01*
X11412016Y-13526190D01*
X11421540Y-13516666D01*
X11602493Y-13745237D02*
X11488207Y-13745237D01*
X11545350Y-13745237D02*
X11545350Y-13545237D01*
X11526302Y-13573809D01*
X11507255Y-13592856D01*
X11488207Y-13602380D01*
X11831064Y-13735713D02*
X11850112Y-13745237D01*
X11888207Y-13745237D01*
X11907255Y-13735713D01*
X11916778Y-13716666D01*
X11916778Y-13707142D01*
X11907255Y-13688094D01*
X11888207Y-13678571D01*
X11859635Y-13678571D01*
X11840588Y-13669047D01*
X11831064Y-13649999D01*
X11831064Y-13640475D01*
X11840588Y-13621428D01*
X11859635Y-13611904D01*
X11888207Y-13611904D01*
X11907255Y-13621428D01*
X12031064Y-13745237D02*
X12012016Y-13735713D01*
X12002493Y-13716666D01*
X12002493Y-13545237D01*
X12135826Y-13745237D02*
X12116778Y-13735713D01*
X12107255Y-13726190D01*
X12097731Y-13707142D01*
X12097731Y-13649999D01*
X12107255Y-13630951D01*
X12116778Y-13621428D01*
X12135826Y-13611904D01*
X12164397Y-13611904D01*
X12183445Y-13621428D01*
X12192969Y-13630951D01*
X12202493Y-13649999D01*
X12202493Y-13707142D01*
X12192969Y-13726190D01*
X12183445Y-13735713D01*
X12164397Y-13745237D01*
X12135826Y-13745237D01*
X12259635Y-13611904D02*
X12335826Y-13611904D01*
X12288207Y-13545237D02*
X12288207Y-13716666D01*
X12297731Y-13735713D01*
X12316778Y-13745237D01*
X12335826Y-13745237D01*
X12383445Y-13821428D02*
X12392969Y-13811904D01*
X12412016Y-13783332D01*
X12421540Y-13764285D01*
X12431064Y-13735713D01*
X12440588Y-13688094D01*
X12440588Y-13649999D01*
X12431064Y-13602380D01*
X12421540Y-13573809D01*
X12412016Y-13554761D01*
X12392969Y-13526190D01*
X12383445Y-13516666D01*
M02*
