G04 #@! TF.GenerationSoftware,KiCad,Pcbnew,(6.0.9-0)*
G04 #@! TF.CreationDate,2023-03-20T13:15:15-04:00*
G04 #@! TF.ProjectId,LM5116-05,4c4d3531-3136-42d3-9035-2e6b69636164,rev?*
G04 #@! TF.SameCoordinates,Original*
G04 #@! TF.FileFunction,Legend,Bot*
G04 #@! TF.FilePolarity,Positive*
%FSLAX46Y46*%
G04 Gerber Fmt 4.6, Leading zero omitted, Abs format (unit mm)*
G04 Created by KiCad (PCBNEW (6.0.9-0)) date 2023-03-20 13:15:15*
%MOMM*%
%LPD*%
G01*
G04 APERTURE LIST*
%ADD10C,0.300000*%
%ADD11C,0.150000*%
%ADD12C,0.120000*%
%ADD13C,3.000000*%
%ADD14R,1.700000X1.700000*%
%ADD15O,1.700000X1.700000*%
%ADD16R,3.000000X3.000000*%
%ADD17O,2.500000X17.500000*%
%ADD18C,1.524000*%
%ADD19C,1.600000*%
G04 APERTURE END LIST*
D10*
X140910571Y-108274571D02*
X141982000Y-108274571D01*
X142196285Y-108346000D01*
X142339142Y-108488857D01*
X142410571Y-108703142D01*
X142410571Y-108846000D01*
X142410571Y-106846000D02*
X142410571Y-107560285D01*
X140910571Y-107560285D01*
X142267714Y-105488857D02*
X142339142Y-105560285D01*
X142410571Y-105774571D01*
X142410571Y-105917428D01*
X142339142Y-106131714D01*
X142196285Y-106274571D01*
X142053428Y-106346000D01*
X141767714Y-106417428D01*
X141553428Y-106417428D01*
X141267714Y-106346000D01*
X141124857Y-106274571D01*
X140982000Y-106131714D01*
X140910571Y-105917428D01*
X140910571Y-105774571D01*
X140982000Y-105560285D01*
X141053428Y-105488857D01*
X140910571Y-104417428D02*
X141982000Y-104417428D01*
X142196285Y-104488857D01*
X142339142Y-104631714D01*
X142410571Y-104846000D01*
X142410571Y-104988857D01*
X142410571Y-102988857D02*
X142410571Y-103703142D01*
X140910571Y-103703142D01*
X142267714Y-101631714D02*
X142339142Y-101703142D01*
X142410571Y-101917428D01*
X142410571Y-102060285D01*
X142339142Y-102274571D01*
X142196285Y-102417428D01*
X142053428Y-102488857D01*
X141767714Y-102560285D01*
X141553428Y-102560285D01*
X141267714Y-102488857D01*
X141124857Y-102417428D01*
X140982000Y-102274571D01*
X140910571Y-102060285D01*
X140910571Y-101917428D01*
X140982000Y-101703142D01*
X141053428Y-101631714D01*
X140910571Y-100560285D02*
X141982000Y-100560285D01*
X142196285Y-100631714D01*
X142339142Y-100774571D01*
X142410571Y-100988857D01*
X142410571Y-101131714D01*
X142410571Y-99131714D02*
X142410571Y-99846000D01*
X140910571Y-99846000D01*
X142267714Y-97774571D02*
X142339142Y-97846000D01*
X142410571Y-98060285D01*
X142410571Y-98203142D01*
X142339142Y-98417428D01*
X142196285Y-98560285D01*
X142053428Y-98631714D01*
X141767714Y-98703142D01*
X141553428Y-98703142D01*
X141267714Y-98631714D01*
X141124857Y-98560285D01*
X140982000Y-98417428D01*
X140910571Y-98203142D01*
X140910571Y-98060285D01*
X140982000Y-97846000D01*
X141053428Y-97774571D01*
X140910571Y-96703142D02*
X141982000Y-96703142D01*
X142196285Y-96774571D01*
X142339142Y-96917428D01*
X142410571Y-97131714D01*
X142410571Y-97274571D01*
X142410571Y-95274571D02*
X142410571Y-95988857D01*
X140910571Y-95988857D01*
X142267714Y-93917428D02*
X142339142Y-93988857D01*
X142410571Y-94203142D01*
X142410571Y-94346000D01*
X142339142Y-94560285D01*
X142196285Y-94703142D01*
X142053428Y-94774571D01*
X141767714Y-94846000D01*
X141553428Y-94846000D01*
X141267714Y-94774571D01*
X141124857Y-94703142D01*
X140982000Y-94560285D01*
X140910571Y-94346000D01*
X140910571Y-94203142D01*
X140982000Y-93988857D01*
X141053428Y-93917428D01*
D11*
X83602380Y-63986666D02*
X84316666Y-63986666D01*
X84459523Y-63939047D01*
X84554761Y-63843809D01*
X84602380Y-63700952D01*
X84602380Y-63605714D01*
X83602380Y-64367619D02*
X83602380Y-64986666D01*
X83983333Y-64653333D01*
X83983333Y-64796190D01*
X84030952Y-64891428D01*
X84078571Y-64939047D01*
X84173809Y-64986666D01*
X84411904Y-64986666D01*
X84507142Y-64939047D01*
X84554761Y-64891428D01*
X84602380Y-64796190D01*
X84602380Y-64510476D01*
X84554761Y-64415238D01*
X84507142Y-64367619D01*
D12*
X136510000Y-61720000D02*
X136510000Y-66920000D01*
X85590000Y-64320000D02*
X88190000Y-64320000D01*
X88190000Y-66920000D02*
X136510000Y-66920000D01*
X85590000Y-65590000D02*
X85590000Y-66920000D01*
X85590000Y-61720000D02*
X85590000Y-64320000D01*
X88190000Y-64320000D02*
X88190000Y-66920000D01*
X85590000Y-66920000D02*
X86920000Y-66920000D01*
X85590000Y-61720000D02*
X136510000Y-61720000D01*
%LPC*%
D13*
X82040000Y-64310000D03*
X140040000Y-64330000D03*
X82040000Y-113320000D03*
X140030000Y-113310000D03*
D14*
X93980000Y-73660000D03*
D15*
X91440000Y-73660000D03*
X93980000Y-71120000D03*
X91440000Y-71120000D03*
D16*
X99314000Y-108458000D03*
D13*
X94234000Y-108458000D03*
D14*
X113700000Y-74295000D03*
D15*
X116240000Y-74295000D03*
D17*
X123571000Y-105156000D03*
D18*
X103378000Y-83820000D03*
X125984000Y-91694000D03*
X117202000Y-107188000D03*
X117348000Y-82296000D03*
D19*
X128504000Y-94488000D03*
X126004000Y-94488000D03*
D18*
X110490000Y-82296000D03*
D14*
X86920000Y-65590000D03*
D15*
X86920000Y-63050000D03*
X89460000Y-65590000D03*
X89460000Y-63050000D03*
X92000000Y-65590000D03*
X92000000Y-63050000D03*
X94540000Y-65590000D03*
X94540000Y-63050000D03*
X97080000Y-65590000D03*
X97080000Y-63050000D03*
X99620000Y-65590000D03*
X99620000Y-63050000D03*
X102160000Y-65590000D03*
X102160000Y-63050000D03*
X104700000Y-65590000D03*
X104700000Y-63050000D03*
X107240000Y-65590000D03*
X107240000Y-63050000D03*
X109780000Y-65590000D03*
X109780000Y-63050000D03*
X112320000Y-65590000D03*
X112320000Y-63050000D03*
X114860000Y-65590000D03*
X114860000Y-63050000D03*
X117400000Y-65590000D03*
X117400000Y-63050000D03*
X119940000Y-65590000D03*
X119940000Y-63050000D03*
X122480000Y-65590000D03*
X122480000Y-63050000D03*
X125020000Y-65590000D03*
X125020000Y-63050000D03*
X127560000Y-65590000D03*
X127560000Y-63050000D03*
X130100000Y-65590000D03*
X130100000Y-63050000D03*
X132640000Y-65590000D03*
X132640000Y-63050000D03*
X135180000Y-65590000D03*
X135180000Y-63050000D03*
M02*
