M48
; DRILL file {KiCad (6.0.9-0)} date Wednesday, February 01, 2023 at 04:38:24 PM
; FORMAT={-:-/ absolute / metric / decimal}
; #@! TF.CreationDate,2023-02-01T16:38:24-05:00
; #@! TF.GenerationSoftware,Kicad,Pcbnew,(6.0.9-0)
; #@! TF.FileFunction,Plated,1,2,PTH
FMAT,2
METRIC
; #@! TA.AperFunction,Plated,PTH,ViaDrill
T1C0.200
; #@! TA.AperFunction,Plated,PTH,ComponentDrill
T2C0.762
; #@! TA.AperFunction,Plated,PTH,ComponentDrill
T3C0.800
; #@! TA.AperFunction,Plated,PTH,ComponentDrill
T4C1.000
; #@! TA.AperFunction,Plated,PTH,ComponentDrill
T5C1.520
; #@! TA.AperFunction,Plated,PTH,ComponentDrill
T6C2.000
%
G90
G05
T1
X86.106Y-90.17
X86.36Y-88.9
X87.122Y-88.9
X87.63Y-90.424
X87.884Y-88.9
X88.646Y-88.9
X88.646Y-90.424
X89.408Y-88.9
X89.662Y-90.424
X90.678Y-88.138
X90.678Y-88.9
X90.678Y-89.662
X90.678Y-90.424
X94.996Y-100.33
X94.996Y-101.092
X95.25Y-77.724
X95.504Y-92.202
X95.504Y-102.616
X95.504Y-103.632
X95.758Y-97.028
X96.012Y-77.724
X96.266Y-73.66
X96.52Y-92.202
X97.536Y-92.202
X97.79Y-80.518
X98.552Y-92.202
X100.584Y-95.758
X100.584Y-96.52
X102.616Y-76.454
X102.616Y-77.216
X104.779Y-96.774
X104.779Y-97.79
X104.902Y-91.948
X104.902Y-94.234
X108.458Y-92.964
X108.523Y-93.66
X108.523Y-95.758
X109.22Y-95.758
X109.22Y-98.806
X109.22Y-99.822
X109.347Y-71.501
X109.351Y-92.841
X109.351Y-93.726
X113.792Y-95.504
X118.364Y-103.886
T2
X103.378Y-83.82
X110.49Y-82.296
X117.202Y-107.188
X117.348Y-82.296
X125.984Y-91.694
T3
X126.004Y-94.488
X128.504Y-94.488
T4
X86.92Y-63.05
X86.92Y-65.59
X89.46Y-63.05
X89.46Y-65.59
X91.44Y-71.12
X91.44Y-73.66
X92.0Y-63.05
X92.0Y-65.59
X93.98Y-71.12
X93.98Y-73.66
X94.54Y-63.05
X94.54Y-65.59
X97.08Y-63.05
X97.08Y-65.59
X99.62Y-63.05
X99.62Y-65.59
X102.16Y-63.05
X102.16Y-65.59
X104.7Y-63.05
X104.7Y-65.59
X107.24Y-63.05
X107.24Y-65.59
X109.78Y-63.05
X109.78Y-65.59
X112.32Y-63.05
X112.32Y-65.59
X113.7Y-74.295
X114.86Y-63.05
X114.86Y-65.59
X116.24Y-74.295
X117.4Y-63.05
X117.4Y-65.59
X119.94Y-63.05
X119.94Y-65.59
X122.48Y-63.05
X122.48Y-65.59
X125.02Y-63.05
X125.02Y-65.59
X127.56Y-63.05
X127.56Y-65.59
X130.1Y-63.05
X130.1Y-65.59
X132.64Y-63.05
X132.64Y-65.59
X135.18Y-63.05
X135.18Y-65.59
T5
X94.234Y-108.458
X99.314Y-108.458
T6
X123.571Y-97.656G85X123.571Y-112.656
G05
T0
M30
